<?xml version="1.0" encoding="UTF-8"?>
<svg id="Layer_1" data-name="Layer 1" xmlns="http://www.w3.org/2000/svg" viewBox="0 0 841.89 595.28">
  <defs>
    <style>
      .cls-1 {
        fill: #d6b28f;
      }

      .cls-2 {
        fill: #95a5a6;
      }

      .cls-3 {
        fill: #c3996c;
      }
    </style>
  </defs>
  <g>
    <g>
      <path class="cls-2" d="m796.74,274.82c-.55,0-1-.45-1-1v-72.03c0-.55.45-1,1-1s1,.45,1,1v72.03c0,.55-.45,1-1,1Z"/>
      <path class="cls-2" d="m796.74,397.33c-.55,0-1-.45-1-1v-76.61c0-.55.45-1,1-1s1,.45,1,1v76.61c0,.55-.45,1-1,1Z"/>
      <path class="cls-3" d="m798.6,280.96c0,1.02-.83,1.84-1.86,1.84s-1.86-.83-1.86-1.84.83-1.84,1.86-1.84,1.86.83,1.86,1.84Z"/>
      <path class="cls-3" d="m798.6,291.52c0,1.02-.83,1.84-1.86,1.84s-1.86-.83-1.86-1.84.83-1.84,1.86-1.84,1.86.83,1.86,1.84Z"/>
      <path class="cls-3" d="m798.6,302.08c0,1.02-.83,1.84-1.86,1.84s-1.86-.83-1.86-1.84.83-1.84,1.86-1.84,1.86.83,1.86,1.84Z"/>
      <path class="cls-3" d="m798.6,312.64c0,1.02-.83,1.84-1.86,1.84s-1.86-.83-1.86-1.84.83-1.84,1.86-1.84,1.86.83,1.86,1.84Z"/>
    </g>
    <path class="cls-3" d="m799.37,398.16c0,1.44-1.18,2.6-2.63,2.6s-2.63-1.16-2.63-2.6,1.18-2.6,2.63-2.6,2.63,1.16,2.63,2.6Z"/>
    <path class="cls-3" d="m799.37,199.94c0,1.44-1.18,2.6-2.63,2.6s-2.63-1.16-2.63-2.6,1.18-2.6,2.63-2.6,2.63,1.16,2.63,2.6Z"/>
  </g>
  <g>
    <g>
      <path class="cls-2" d="m45.11,274.82c-.55,0-1-.45-1-1v-72.03c0-.55.45-1,1-1s1,.45,1,1v72.03c0,.55-.45,1-1,1Z"/>
      <path class="cls-2" d="m45.11,397.33c-.55,0-1-.45-1-1v-76.61c0-.55.45-1,1-1s1,.45,1,1v76.61c0,.55-.45,1-1,1Z"/>
      <path class="cls-3" d="m46.97,280.96c0,1.02-.83,1.84-1.86,1.84s-1.86-.83-1.86-1.84.83-1.84,1.86-1.84,1.86.83,1.86,1.84Z"/>
      <path class="cls-3" d="m46.97,291.52c0,1.02-.83,1.84-1.86,1.84s-1.86-.83-1.86-1.84.83-1.84,1.86-1.84,1.86.83,1.86,1.84Z"/>
      <path class="cls-3" d="m46.97,302.08c0,1.02-.83,1.84-1.86,1.84s-1.86-.83-1.86-1.84.83-1.84,1.86-1.84,1.86.83,1.86,1.84Z"/>
      <path class="cls-3" d="m46.97,312.64c0,1.02-.83,1.84-1.86,1.84s-1.86-.83-1.86-1.84.83-1.84,1.86-1.84,1.86.83,1.86,1.84Z"/>
    </g>
    <path class="cls-3" d="m47.74,398.16c0,1.44-1.18,2.6-2.63,2.6s-2.63-1.16-2.63-2.6,1.18-2.6,2.63-2.6,2.63,1.16,2.63,2.6Z"/>
    <path class="cls-3" d="m47.74,199.94c0,1.44-1.18,2.6-2.63,2.6s-2.63-1.16-2.63-2.6,1.18-2.6,2.63-2.6,2.63,1.16,2.63,2.6Z"/>
  </g>
  <g>
    <path class="cls-2" d="m124.78,540.28h-16.37c-.55,0-1-.45-1-1s.45-1,1-1h16.37c.55,0,1,.45,1,1s-.45,1-1,1Z"/>
    <path class="cls-2" d="m59.6,491.29c-.55,0-1-.45-1-1v-28.99c0-.55.45-1,1-1s1,.45,1,1v28.99c0,.55-.45,1-1,1Z"/>
    <path class="cls-2" d="m68.1,521.75c-.09,0-.18-.01-.27-.04-2.35-.62-4.13-2.39-4.75-4.72-.61-2.31.04-4.7,1.75-6.38l5.54-5.48c1.27-1.25,2.94-1.94,4.71-1.94,3.08,0,5.69,1.98,6.49,4.92.08.31.02.65-.17.9-.19.26-.5.41-.82.42l-11.21.22-.22,11.08c0,.32-.16.62-.42.82-.18.14-.41.21-.63.21Zm-.86-10.57l-.94.93c-1.16,1.15-1.61,2.78-1.19,4.35.3,1.14,1.01,2.08,1.97,2.68l.16-7.96Zm7.84-5.89c-1.21,0-2.36.47-3.24,1.34l-.9.89,8.04-.16c-.91-1.42-2.5-2.07-3.9-2.07Z"/>
    <path class="cls-2" d="m83.86,536.07c-3.08,0-5.69-1.98-6.49-4.92-.08-.31-.02-.64.17-.9.19-.26.49-.41.81-.43l11.05-.39.4-10.92c.01-.32.17-.62.42-.81.26-.19.58-.25.89-.17,2.35.62,4.13,2.39,4.75,4.72.61,2.31-.04,4.7-1.75,6.38l-5.54,5.48c-1.27,1.25-2.94,1.94-4.71,1.94Zm-3.91-4.2c.91,1.44,2.51,2.1,3.91,2.1,1.21,0,2.36-.47,3.24-1.34l1.07-1.05-8.22.29Zm11.89-11.76l-.3,8.13,1.1-1.09c1.16-1.15,1.61-2.78,1.19-4.35-.3-1.15-1.02-2.09-2-2.69Z"/>
    <path class="cls-2" d="m82.73,517.45c-.09,0-.18-.01-.27-.04l-8.91-2.36c-.18-.05-.34-.14-.47-.27l-22.97-22.71c-.41-.41-.42-1.07,0-1.48.41-.41,1.07-.42,1.48,0l22.77,22.51,8.64,2.29c.56.15.89.72.74,1.28-.12.47-.55.78-1.01.78Z"/>
    <path class="cls-1" d="m50.85,492.33c-.55,0-1-.45-1-1v-35.62c0-.55.45-1,1-1s1,.45,1,1v35.62c0,.55-.45,1-1,1Z"/>
    <path class="cls-1" d="m72.77,505.24c-.26,0-.51-.1-.71-.29l-21.92-22c-.39-.39-.39-1.02,0-1.41.39-.39,1.02-.39,1.41,0l21.92,22c.39.39.39,1.02,0,1.41-.19.19-.45.29-.7.29Z"/>
    <path class="cls-1" d="m50.85,509.62c-.25,0-.51-.1-.7-.29l-8.74-8.64c-.19-.19-.3-.44-.3-.71s.11-.52.3-.71l8.74-8.64c.39-.38,1.01-.38,1.4,0l8.74,8.64c.19.19.3.44.3.71s-.11.52-.3.71l-8.74,8.64c-.19.19-.45.29-.7.29Zm-7.32-9.64l7.32,7.24,7.32-7.24-7.32-7.24-7.32,7.24Z"/>
    <path class="cls-2" d="m42.11,500.97c-.55,0-1-.45-1-1v-54.62c0-.55.45-1,1-1s1,.45,1,1v54.62c0,.55-.45,1-1,1Z"/>
    <g>
      <path class="cls-2" d="m108.09,548.92c-.25,0-.51-.1-.7-.29l-22.97-22.71c-.13-.12-.22-.28-.26-.45l-1.94-7.16-29.98,29.71c-.39.39-1.02.39-1.41,0-.39-.39-.38-1.03,0-1.41l31.2-30.91c.25-.25.62-.35.96-.25.34.09.61.36.7.7l2.32,8.55,22.78,22.52c.39.39.4,1.02,0,1.41-.2.2-.45.3-.71.3Z"/>
      <path class="cls-1" d="m137.11,548.92h-29.03c-.55,0-1-.45-1-1s.45-1,1-1h29.03c.55,0,1,.45,1,1s-.45,1-1,1Z"/>
      <path class="cls-1" d="m117.28,548.92c-.25,0-.5-.09-.69-.28l-22.25-21.67c-.4-.39-.4-1.02-.02-1.41.38-.4,1.02-.4,1.41-.02l22.25,21.67c.4.39.4,1.02.02,1.41-.2.2-.46.3-.72.3Z"/>
      <path class="cls-1" d="m99.34,557.57c-.25,0-.51-.1-.7-.29l-8.74-8.64c-.19-.19-.3-.44-.3-.71s.11-.52.3-.71l8.74-8.64c.39-.38,1.01-.38,1.4,0l8.74,8.64c.19.19.3.44.3.71s-.11.52-.3.71l-8.74,8.64c-.19.19-.45.29-.7.29Zm-7.32-9.64l7.32,7.24,7.32-7.24-7.32-7.24-7.32,7.24Z"/>
      <path class="cls-2" d="m146.94,557.57h-47.6c-.55,0-1-.45-1-1s.45-1,1-1h47.6c.55,0,1,.45,1,1s-.45,1-1,1Z"/>
    </g>
    <g>
      <g>
        <path class="cls-2" d="m51.53,548.31c-.55,0-1-.45-1-1v-32.12c0-.55.45-1,1-1s1,.45,1,1v32.12c0,.55-.45,1-1,1Z"/>
        <path class="cls-2" d="m90.68,554.91h-45.66c-.55,0-1-.45-1-1v-45.15c0-.4.24-.77.61-.92.37-.16.8-.07,1.09.21l6.51,6.44c.39.39.4,1.02,0,1.41-.39.39-1.02.4-1.41,0l-4.81-4.76v41.76h44.66c.55,0,1,.45,1,1s-.45,1-1,1Z"/>
        <path class="cls-2" d="m63.89,528.29h-12.36c-.48,0-.86-.39-.86-.87v-12.22c0-.48.39-.87.86-.87h12.36c.48,0,.86.39.86.87v12.22c0,.48-.39.87-.86.87Zm-11.5-1.73h10.63v-10.49h-10.63v10.49Z"/>
        <path class="cls-2" d="m63.89,515.91c-.18,0-.36-.07-.5-.21l-6.37-6.29c-.28-.28-.28-.73,0-1.02.28-.28.73-.29,1.01,0l6.37,6.29c.28.28.28.73,0,1.02-.14.14-.32.21-.51.21Z"/>
      </g>
      <g>
        <path class="cls-2" d="m84.18,548.48h-32.48c-.55,0-1-.45-1-1s.45-1,1-1h32.48c.55,0,1,.45,1,1s-.45,1-1,1Z"/>
        <path class="cls-2" d="m90.68,554.96c-.27,0-.53-.1-.74-.3l-6.51-6.44c-.41-.41-.42-1.07,0-1.48.41-.41,1.07-.42,1.48,0l6.51,6.44c.41.41.42,1.07,0,1.48-.21.21-.48.31-.75.31Z"/>
        <path class="cls-2" d="m84.18,548.34h-12.36c-.48,0-.86-.39-.86-.87v-12.22c0-.48.39-.87.86-.87h12.36c.23,0,.45.09.61.25s.25.38.25.61v12.23c0,.48-.39.87-.86.87Zm-11.5-1.73h10.63v-10.49h-10.63v10.49Z"/>
        <path class="cls-2" d="m90.54,542.26c-.18,0-.36-.07-.5-.21l-6.37-6.29c-.28-.28-.28-.73,0-1.02.28-.28.73-.29,1.01,0l6.37,6.29c.28.28.28.73,0,1.02-.14.14-.32.21-.51.21Z"/>
      </g>
    </g>
    <g>
      <path class="cls-1" d="m54.65,551.76c-.6,0-1.09-.47-1.1-1.06,0-.59.47-1.08,1.07-1.09.6,0,1.09.47,1.1,1.06s-.47,1.08-1.07,1.09Z"/>
      <g>
        <path class="cls-1" d="m76.92,551.7c-.6,0-1.09-.47-1.1-1.06s.47-1.08,1.07-1.09c.6,0,1.09.47,1.1,1.06,0,.59-.47,1.08-1.07,1.09Z"/>
        <path class="cls-1" d="m65.39,551.84c-.6,0-1.09-.47-1.1-1.06,0-.59.47-1.08,1.07-1.09.6,0,1.09.47,1.1,1.06,0,.59-.47,1.08-1.07,1.09Z"/>
      </g>
    </g>
    <g>
      <path class="cls-1" d="m48.96,542.86c0,.59-.47,1.08-1.07,1.09-.6,0-1.09-.47-1.1-1.06,0-.59.47-1.08,1.07-1.09.6,0,1.09.47,1.1,1.06Z"/>
      <g>
        <path class="cls-1" d="m48.9,520.83c0,.59-.47,1.08-1.07,1.09-.6,0-1.09-.47-1.1-1.06,0-.59.47-1.08,1.07-1.09.6,0,1.09.47,1.1,1.06Z"/>
        <path class="cls-1" d="m49.04,532.24c0,.59-.47,1.08-1.07,1.09-.6,0-1.09-.47-1.1-1.06,0-.59.47-1.08,1.07-1.09.6,0,1.09.47,1.1,1.06Z"/>
      </g>
    </g>
    <path class="cls-2" d="m85.31,526.45c-.1,0-.21-.02-.31-.05l-8.84-2.79c-.33-.1-.58-.36-.69-.69l-2.64-8.57c-.17-.55.14-1.14.69-1.31.55-.17,1.14.14,1.31.69l2.48,8.04,8.32,2.62c.55.17.86.76.69,1.32-.14.45-.55.74-1,.74Z"/>
    <path class="cls-2" d="m71.81,536.3c-.27,0-.53-.1-.74-.3l-7.92-7.83c-.41-.41-.42-1.07,0-1.48.41-.41,1.07-.42,1.48,0l7.92,7.83c.41.41.42,1.07,0,1.48-.2.21-.48.31-.75.31Z"/>
  </g>
  <g>
    <path class="cls-2" d="m733.76,540.28h-16.37c-.55,0-1-.45-1-1s.45-1,1-1h16.37c.55,0,1,.45,1,1s-.45,1-1,1Z"/>
    <path class="cls-2" d="m782.57,491.29c-.55,0-1-.45-1-1v-28.99c0-.55.45-1,1-1s1,.45,1,1v28.99c0,.55-.45,1-1,1Z"/>
    <path class="cls-2" d="m774.07,521.75c-.22,0-.45-.07-.63-.21-.26-.19-.41-.5-.42-.82l-.22-11.08-11.21-.22c-.32,0-.62-.16-.82-.42-.19-.26-.26-.59-.17-.9.8-2.94,3.41-4.92,6.49-4.92,1.77,0,3.44.69,4.71,1.94l2.66,2.63c.09.07.18.15.24.24l2.64,2.61c1.71,1.69,2.36,4.07,1.75,6.38-.62,2.33-2.39,4.1-4.75,4.72-.09.02-.18.04-.27.04Zm.86-10.57l.16,7.96c.97-.6,1.67-1.54,1.97-2.68.42-1.57-.03-3.2-1.19-4.35l-.94-.93Zm-11.74-3.82l8.04.16-.9-.89c-.87-.86-2.02-1.34-3.24-1.34-1.4,0-2.98.65-3.9,2.07Z"/>
    <path class="cls-2" d="m758.3,536.07h0c-1.77,0-3.44-.69-4.71-1.94l-5.54-5.48c-1.71-1.69-2.36-4.07-1.75-6.38.62-2.33,2.39-4.1,4.75-4.72.31-.08.64-.02.89.17.26.19.41.49.42.81l.4,10.92,11.05.39c.32.01.62.17.81.43.19.26.25.59.17.9-.8,2.94-3.4,4.92-6.49,4.92Zm-4.3-4.49l1.06,1.05c.87.86,2.02,1.34,3.24,1.34h0c1.41,0,3-.66,3.91-2.1l-8.21-.29Zm-3.67-11.47c-.98.6-1.69,1.55-2,2.69-.42,1.57.03,3.2,1.19,4.35l1.1,1.09-.3-8.13Z"/>
    <path class="cls-2" d="m759.43,517.45c-.46,0-.89-.31-1.01-.78-.15-.56.19-1.14.75-1.28l8.64-2.29,22.77-22.51c.41-.41,1.07-.4,1.48,0,.41.41.4,1.08,0,1.48l-22.97,22.71c-.13.13-.29.22-.47.27l-8.91,2.36c-.09.02-.18.04-.27.04Z"/>
    <path class="cls-1" d="m791.31,492.33c-.55,0-1-.45-1-1v-35.62c0-.55.45-1,1-1s1,.45,1,1v35.62c0,.55-.45,1-1,1Z"/>
    <path class="cls-1" d="m769.39,505.24c-.26,0-.51-.1-.7-.29-.39-.39-.39-1.02,0-1.41l21.92-22c.39-.39,1.02-.39,1.41,0,.39.39.39,1.02,0,1.41l-21.92,22c-.19.2-.45.29-.71.29Z"/>
    <path class="cls-1" d="m791.31,509.62c-.25,0-.51-.1-.7-.29l-8.74-8.64c-.19-.19-.3-.44-.3-.71s.11-.52.3-.71l8.74-8.64c.39-.38,1.01-.38,1.4,0l8.74,8.64c.19.19.3.44.3.71s-.11.52-.3.71l-8.74,8.64c-.19.19-.45.29-.7.29Zm-7.32-9.64l7.32,7.24,7.32-7.24-7.32-7.24-7.32,7.24Z"/>
    <path class="cls-2" d="m800.05,500.97c-.55,0-1-.45-1-1v-54.62c0-.55.45-1,1-1s1,.45,1,1v54.62c0,.55-.45,1-1,1Z"/>
    <g>
      <path class="cls-2" d="m734.08,548.92c-.26,0-.52-.1-.71-.3-.39-.39-.38-1.03,0-1.41l22.77-22.52,2.32-8.55c.09-.34.36-.61.7-.7.34-.09.71,0,.96.25l31.2,30.91c.39.39.4,1.02,0,1.41-.39.39-1.02.4-1.41,0l-29.98-29.71-1.94,7.16c-.05.17-.14.33-.26.45l-22.97,22.71c-.19.19-.45.29-.7.29Z"/>
      <path class="cls-1" d="m734.08,548.92h-29.03c-.55,0-1-.45-1-1s.45-1,1-1h29.03c.55,0,1,.45,1,1s-.45,1-1,1Z"/>
      <path class="cls-1" d="m724.88,548.92c-.26,0-.52-.1-.72-.3-.38-.4-.38-1.03.02-1.41l22.25-21.67c.39-.38,1.03-.38,1.41.02.38.4.38,1.03-.02,1.41l-22.25,21.67c-.19.19-.45.28-.7.28Z"/>
      <path class="cls-1" d="m742.82,557.57c-.25,0-.51-.1-.7-.29l-8.74-8.64c-.19-.19-.3-.44-.3-.71s.11-.52.3-.71l8.74-8.64c.39-.38,1.01-.38,1.4,0l8.74,8.64c.19.19.3.44.3.71s-.11.52-.3.71l-8.74,8.64c-.19.19-.45.29-.7.29Zm-7.32-9.64l7.32,7.24,7.32-7.24-7.32-7.24-7.32,7.24Z"/>
      <path class="cls-2" d="m742.82,557.57h-47.6c-.55,0-1-.45-1-1s.45-1,1-1h47.6c.55,0,1,.45,1,1s-.45,1-1,1Z"/>
    </g>
    <g>
      <g>
        <path class="cls-2" d="m790.63,548.31c-.55,0-1-.45-1-1v-32.12c0-.55.45-1,1-1s1,.45,1,1v32.12c0,.55-.45,1-1,1Z"/>
        <path class="cls-2" d="m797.14,554.91h-45.66c-.55,0-1-.45-1-1s.45-1,1-1h44.66v-41.76l-4.81,4.76c-.39.39-1.02.38-1.41,0-.39-.39-.38-1.03,0-1.41l6.51-6.44c.29-.28.71-.37,1.09-.21.37.16.61.52.61.92v45.15c0,.55-.45,1-1,1Z"/>
        <path class="cls-2" d="m790.63,528.29h-12.36c-.48,0-.86-.39-.86-.87v-12.22c0-.48.39-.87.86-.87h12.36c.48,0,.86.39.86.87v12.22c0,.48-.39.87-.86.87Zm-11.5-1.73h10.63v-10.49h-10.63v10.49Z"/>
        <path class="cls-2" d="m778.27,515.91c-.19,0-.37-.07-.51-.21-.28-.28-.28-.74,0-1.02l6.37-6.29c.28-.28.74-.28,1.01,0,.28.28.28.74,0,1.02l-6.37,6.29c-.14.14-.32.21-.5.21Z"/>
      </g>
      <g>
        <path class="cls-2" d="m790.47,548.48h-32.48c-.55,0-1-.45-1-1s.45-1,1-1h32.48c.55,0,1,.45,1,1s-.45,1-1,1Z"/>
        <path class="cls-2" d="m751.48,554.96c-.27,0-.54-.1-.75-.31-.41-.41-.4-1.08,0-1.48l6.51-6.44c.41-.41,1.07-.4,1.48,0,.41.41.4,1.08,0,1.48l-6.51,6.44c-.2.2-.47.3-.74.3Z"/>
        <path class="cls-2" d="m770.35,548.34h-12.36c-.48,0-.86-.39-.86-.87v-12.23c0-.23.09-.45.25-.61.16-.16.38-.25.61-.25h12.36c.48,0,.86.39.86.87v12.22c0,.48-.39.87-.86.87Zm-11.5-1.73h10.63v-10.49h-10.63s0,10.49,0,10.49Z"/>
        <path class="cls-2" d="m751.62,542.26c-.19,0-.37-.07-.51-.21-.28-.28-.28-.74,0-1.02l6.37-6.29c.28-.28.74-.28,1.01,0,.28.28.28.74,0,1.02l-6.37,6.29c-.14.14-.32.21-.5.21Z"/>
      </g>
    </g>
    <g>
      <path class="cls-1" d="m787.52,551.76c.6,0,1.09-.47,1.1-1.06,0-.59-.47-1.08-1.07-1.09-.6,0-1.09.47-1.1,1.06,0,.59.47,1.08,1.07,1.09Z"/>
      <g>
        <path class="cls-1" d="m765.24,551.7c.6,0,1.09-.47,1.1-1.06,0-.59-.47-1.08-1.07-1.09-.6,0-1.09.47-1.1,1.06,0,.59.47,1.08,1.07,1.09Z"/>
        <path class="cls-1" d="m776.78,551.84c.6,0,1.09-.47,1.1-1.06,0-.59-.47-1.08-1.07-1.09-.6,0-1.09.47-1.1,1.06,0,.59.47,1.08,1.07,1.09Z"/>
      </g>
    </g>
    <g>
      <path class="cls-1" d="m793.2,542.86c0,.59.47,1.08,1.07,1.09.6,0,1.09-.47,1.1-1.06,0-.59-.47-1.08-1.07-1.09-.6,0-1.09.47-1.1,1.06Z"/>
      <g>
        <path class="cls-1" d="m793.27,520.83c0,.59.47,1.08,1.07,1.09.6,0,1.09-.47,1.1-1.06,0-.59-.47-1.08-1.07-1.09-.6,0-1.09.47-1.1,1.06Z"/>
        <path class="cls-1" d="m793.13,532.24c0,.59.47,1.08,1.07,1.09.6,0,1.09-.47,1.1-1.06,0-.59-.47-1.08-1.07-1.09-.6,0-1.09.47-1.1,1.06Z"/>
      </g>
    </g>
    <path class="cls-2" d="m756.86,526.45c-.45,0-.86-.29-1-.74-.17-.55.13-1.14.68-1.32l8.32-2.62,2.48-8.04c.17-.55.76-.86,1.31-.69.55.17.86.76.69,1.31l-2.64,8.57c-.1.33-.36.59-.69.69l-8.84,2.79c-.11.03-.21.05-.31.05Z"/>
    <path class="cls-2" d="m770.35,536.3c-.27,0-.54-.1-.75-.31-.41-.41-.4-1.08,0-1.48l7.92-7.83c.41-.41,1.07-.4,1.48,0,.41.41.4,1.08,0,1.48l-7.92,7.83c-.2.2-.47.3-.74.3Z"/>
  </g>
  <g>
    <path class="cls-2" d="m124.78,60.56h-16.37c-.55,0-1-.45-1-1s.45-1,1-1h16.37c.55,0,1,.45,1,1s-.45,1-1,1Z"/>
    <path class="cls-2" d="m59.6,138.54c-.55,0-1-.45-1-1v-28.99c0-.55.45-1,1-1s1,.45,1,1v28.99c0,.55-.45,1-1,1Z"/>
    <path class="cls-2" d="m75.08,95.66c-1.77,0-3.44-.69-4.71-1.94l-5.54-5.48c-1.71-1.69-2.36-4.07-1.75-6.38.62-2.33,2.39-4.1,4.75-4.72.31-.08.64-.02.9.18.26.19.41.5.42.82l.22,11.08,11.21.22c.32,0,.62.16.82.42.19.26.26.59.17.9-.8,2.94-3.41,4.92-6.49,4.92Zm-4.14-4.33l.9.89c.87.86,2.02,1.34,3.24,1.34,1.4,0,2.98-.65,3.9-2.07l-8.04-.16Zm-3.86-11.62c-.96.6-1.67,1.54-1.97,2.68-.42,1.57.03,3.2,1.19,4.35l.94.93-.16-7.96Z"/>
    <path class="cls-2" d="m90.84,81.34c-.22,0-.44-.07-.62-.21-.26-.19-.41-.49-.42-.81l-.4-10.92-11.05-.39c-.32-.01-.62-.17-.81-.43-.19-.26-.25-.59-.17-.9.8-2.94,3.41-4.92,6.49-4.92,1.77,0,3.44.69,4.71,1.94l5.54,5.48c1.71,1.69,2.36,4.07,1.75,6.38-.62,2.33-2.39,4.1-4.75,4.72-.09.02-.18.04-.27.04Zm.7-10.74l.3,8.13c.98-.6,1.69-1.55,2-2.69.42-1.57-.03-3.2-1.19-4.35l-1.1-1.09Zm-11.59-3.63l8.22.29-1.07-1.05c-.87-.86-2.02-1.34-3.24-1.34-1.41,0-3,.66-3.91,2.1Z"/>
    <path class="cls-2" d="m50.85,108.56c-.27,0-.54-.1-.75-.31-.41-.41-.4-1.08,0-1.48l22.97-22.71c.13-.13.29-.22.47-.27l8.91-2.36c.56-.15,1.13.19,1.28.75.15.56-.19,1.14-.74,1.28l-8.64,2.29-22.77,22.51c-.2.2-.47.3-.74.3Z"/>
    <path class="cls-1" d="m50.85,144.13c-.55,0-1-.45-1-1v-35.62c0-.55.45-1,1-1s1,.45,1,1v35.62c0,.55-.45,1-1,1Z"/>
    <path class="cls-1" d="m50.85,117.61c-.26,0-.51-.1-.7-.29-.39-.39-.39-1.02,0-1.41l21.92-22c.39-.39,1.02-.39,1.41,0,.39.39.39,1.02,0,1.41l-21.92,22c-.19.2-.45.29-.71.29Z"/>
    <path class="cls-1" d="m50.85,108.51c-.25,0-.51-.1-.7-.29l-8.74-8.64c-.19-.19-.3-.44-.3-.71s.11-.52.3-.71l8.74-8.64c.39-.38,1.01-.38,1.4,0l8.74,8.64c.19.19.3.44.3.71s-.11.52-.3.71l-8.74,8.64c-.19.19-.45.29-.7.29Zm-7.32-9.64l7.32,7.24,7.32-7.24-7.32-7.24-7.32,7.24Z"/>
    <path class="cls-2" d="m42.11,154.49c-.55,0-1-.45-1-1v-54.62c0-.55.45-1,1-1s1,.45,1,1v54.62c0,.55-.45,1-1,1Z"/>
    <g>
      <path class="cls-2" d="m82.73,83.44c-.26,0-.51-.1-.7-.29l-31.2-30.91c-.39-.39-.4-1.02,0-1.41.39-.39,1.02-.4,1.41,0l29.98,29.71,1.94-7.16c.05-.17.14-.33.26-.45l22.97-22.71c.39-.39,1.02-.38,1.41,0,.39.39.38,1.03,0,1.41l-22.78,22.52-2.32,8.55c-.09.34-.36.61-.7.7-.09.02-.17.03-.26.03Z"/>
      <path class="cls-1" d="m137.11,51.92h-29.03c-.55,0-1-.45-1-1s.45-1,1-1h29.03c.55,0,1,.45,1,1s-.45,1-1,1Z"/>
      <path class="cls-1" d="m95.03,73.59c-.26,0-.52-.1-.72-.3-.38-.4-.38-1.03.02-1.41l22.25-21.67c.4-.38,1.03-.38,1.41.02.38.4.38,1.03-.02,1.41l-22.25,21.67c-.19.19-.44.28-.7.28Z"/>
      <path class="cls-1" d="m99.34,60.56c-.25,0-.51-.1-.7-.29l-8.74-8.64c-.19-.19-.3-.44-.3-.71s.11-.52.3-.71l8.74-8.64c.39-.38,1.01-.38,1.4,0l8.74,8.64c.19.19.3.44.3.71s-.11.52-.3.71l-8.74,8.64c-.19.19-.45.29-.7.29Zm-7.32-9.64l7.32,7.24,7.32-7.24-7.32-7.24-7.32,7.24Z"/>
      <path class="cls-2" d="m146.94,43.28h-47.6c-.55,0-1-.45-1-1s.45-1,1-1h47.6c.55,0,1,.45,1,1s-.45,1-1,1Z"/>
    </g>
    <g>
      <g>
        <path class="cls-2" d="m51.53,84.65c-.55,0-1-.45-1-1v-32.12c0-.55.45-1,1-1s1,.45,1,1v32.12c0,.55-.45,1-1,1Z"/>
        <path class="cls-2" d="m45.02,91.08c-.13,0-.26-.03-.38-.08-.37-.16-.61-.52-.61-.92v-45.15c0-.55.45-1,1-1h45.66c.55,0,1,.45,1,1s-.45,1-1,1h-44.66v41.76l4.81-4.76c.39-.39,1.02-.38,1.41,0,.39.39.38,1.03,0,1.41l-6.51,6.44c-.19.19-.44.29-.7.29Z"/>
        <path class="cls-2" d="m63.89,84.51h-12.36c-.48,0-.86-.39-.86-.87v-12.23c0-.23.09-.45.25-.61s.38-.25.61-.25h12.36c.48,0,.86.39.86.87v12.22c0,.48-.39.87-.86.87Zm-11.5-1.73h10.63v-10.49h-10.63s0,10.49,0,10.49Z"/>
        <path class="cls-2" d="m57.53,90.66c-.19,0-.37-.07-.51-.21-.28-.28-.27-.74,0-1.02l6.37-6.29c.28-.28.73-.28,1.01,0,.28.28.27.74,0,1.02l-6.37,6.29c-.14.14-.32.21-.5.21Z"/>
      </g>
      <g>
        <path class="cls-2" d="m84.18,52.37h-32.48c-.55,0-1-.45-1-1s.45-1,1-1h32.48c.55,0,1,.45,1,1s-.45,1-1,1Z"/>
        <path class="cls-2" d="m84.18,52.42c-.27,0-.54-.1-.75-.31-.41-.41-.4-1.08,0-1.48l6.51-6.44c.41-.41,1.07-.4,1.48,0,.41.41.4,1.08,0,1.48l-6.51,6.44c-.2.2-.47.3-.74.3Z"/>
        <path class="cls-2" d="m84.18,64.46h-12.36c-.48,0-.86-.39-.86-.87v-12.22c0-.48.39-.87.86-.87h12.36c.48,0,.86.39.86.87v12.22c0,.48-.39.87-.86.87Zm-11.5-1.73h10.63v-10.49h-10.63v10.49Z"/>
        <path class="cls-2" d="m84.18,64.31c-.19,0-.37-.07-.51-.21-.28-.28-.27-.74,0-1.02l6.37-6.29c.28-.28.73-.28,1.01,0,.28.28.27.74,0,1.02l-6.37,6.29c-.14.14-.32.21-.5.21Z"/>
      </g>
    </g>
    <g>
      <path class="cls-1" d="m54.65,47.08c-.6,0-1.09.47-1.1,1.06,0,.59.47,1.08,1.07,1.09.6,0,1.09-.47,1.1-1.06s-.47-1.08-1.07-1.09Z"/>
      <g>
        <path class="cls-1" d="m76.92,47.14c-.6,0-1.09.47-1.1,1.06s.47,1.08,1.07,1.09c.6,0,1.09-.47,1.1-1.06,0-.59-.47-1.08-1.07-1.09Z"/>
        <path class="cls-1" d="m65.39,47.01c-.6,0-1.09.47-1.1,1.06s.47,1.08,1.07,1.09c.6,0,1.09-.47,1.1-1.06s-.47-1.08-1.07-1.09Z"/>
      </g>
    </g>
    <g>
      <path class="cls-1" d="m48.96,55.98c0-.59-.47-1.08-1.07-1.09-.6,0-1.09.47-1.1,1.06,0,.59.47,1.08,1.07,1.09.6,0,1.09-.47,1.1-1.06Z"/>
      <g>
        <path class="cls-1" d="m48.9,78.01c0-.59-.47-1.08-1.07-1.09-.6,0-1.09.47-1.1,1.06,0,.59.47,1.08,1.07,1.09.6,0,1.09-.47,1.1-1.06Z"/>
        <path class="cls-1" d="m49.04,66.6c0-.59-.47-1.08-1.07-1.09-.6,0-1.09.47-1.1,1.06,0,.59.47,1.08,1.07,1.09.6,0,1.09-.47,1.1-1.06Z"/>
      </g>
    </g>
    <path class="cls-2" d="m73.82,85.85c-.1,0-.21-.02-.31-.05-.55-.17-.86-.76-.69-1.31l2.64-8.57c.1-.33.36-.59.69-.69l8.84-2.79c.55-.17,1.14.13,1.31.69.17.55-.13,1.14-.69,1.32l-8.32,2.62-2.48,8.04c-.14.45-.55.74-1,.74Z"/>
    <path class="cls-2" d="m63.89,72.47c-.27,0-.54-.1-.75-.31-.41-.41-.4-1.08,0-1.48l7.92-7.83c.41-.41,1.07-.4,1.48,0,.41.41.4,1.08,0,1.48l-7.92,7.83c-.2.2-.47.3-.74.3Z"/>
  </g>
  <g>
    <path class="cls-2" d="m733.76,60.56h-16.37c-.55,0-1-.45-1-1s.45-1,1-1h16.37c.55,0,1,.45,1,1s-.45,1-1,1Z"/>
    <path class="cls-2" d="m782.57,138.54c-.55,0-1-.45-1-1v-28.99c0-.55.45-1,1-1s1,.45,1,1v28.99c0,.55-.45,1-1,1Z"/>
    <path class="cls-2" d="m767.09,95.66h0c-3.08,0-5.69-1.98-6.49-4.92-.08-.31-.02-.65.17-.9.19-.26.5-.41.82-.42l11.21-.22.22-11.08c0-.32.16-.62.42-.82.26-.19.59-.26.9-.18,2.35.62,4.13,2.39,4.75,4.72.61,2.31-.04,4.7-1.75,6.38l-2.64,2.61c-.07.09-.15.17-.24.24l-2.66,2.63c-1.27,1.25-2.94,1.94-4.71,1.94Zm-3.9-4.17c.91,1.42,2.5,2.07,3.9,2.07,1.21,0,2.36-.47,3.24-1.34l.9-.89-8.04.16Zm11.9-11.77l-.16,7.96.94-.93c1.16-1.15,1.61-2.78,1.19-4.35-.3-1.14-1.01-2.08-1.97-2.68Z"/>
    <path class="cls-2" d="m751.32,81.34c-.09,0-.18-.01-.27-.04-2.35-.62-4.13-2.39-4.75-4.72-.61-2.31.04-4.7,1.75-6.38l5.54-5.48c1.27-1.25,2.94-1.94,4.71-1.94,3.09,0,5.69,1.98,6.49,4.92.08.31.02.64-.17.9-.19.26-.49.41-.81.43l-11.05.39-.4,10.92c-.01.32-.17.61-.42.81-.18.14-.4.21-.62.21Zm-.7-10.74l-1.1,1.09c-1.16,1.15-1.61,2.78-1.19,4.35.3,1.15,1.02,2.09,2,2.69l.3-8.13Zm7.68-5.73c-1.21,0-2.36.47-3.24,1.34l-1.06,1.05,8.21-.29c-.91-1.44-2.51-2.1-3.91-2.1Z"/>
    <path class="cls-2" d="m791.31,108.56c-.27,0-.53-.1-.74-.3l-22.77-22.51-8.64-2.29c-.56-.15-.89-.72-.75-1.28.15-.56.72-.89,1.28-.75l8.91,2.36c.18.05.34.14.47.27l22.97,22.71c.41.41.42,1.07,0,1.48-.2.21-.47.31-.75.31Z"/>
    <path class="cls-1" d="m791.31,144.13c-.55,0-1-.45-1-1v-35.62c0-.55.45-1,1-1s1,.45,1,1v35.62c0,.55-.45,1-1,1Z"/>
    <path class="cls-1" d="m791.31,117.61c-.26,0-.51-.1-.71-.29l-21.92-22c-.39-.39-.39-1.02,0-1.41.39-.39,1.02-.39,1.41,0l21.92,22c.39.39.39,1.02,0,1.41-.19.19-.45.29-.7.29Z"/>
    <path class="cls-1" d="m791.31,108.51c-.25,0-.51-.1-.7-.29l-8.74-8.64c-.19-.19-.3-.44-.3-.71s.11-.52.3-.71l8.74-8.64c.39-.38,1.01-.38,1.4,0l8.74,8.64c.19.19.3.44.3.71s-.11.52-.3.71l-8.74,8.64c-.19.19-.45.29-.7.29Zm-7.32-9.64l7.32,7.24,7.32-7.24-7.32-7.24-7.32,7.24Z"/>
    <path class="cls-2" d="m800.05,154.49c-.55,0-1-.45-1-1v-54.62c0-.55.45-1,1-1s1,.45,1,1v54.62c0,.55-.45,1-1,1Z"/>
    <g>
      <path class="cls-2" d="m759.43,83.44c-.09,0-.17-.01-.26-.03-.34-.09-.61-.36-.7-.7l-2.32-8.55-22.77-22.52c-.39-.39-.4-1.02,0-1.41.39-.39,1.02-.4,1.41,0l22.97,22.71c.13.12.22.28.26.45l1.94,7.16,29.98-29.71c.39-.39,1.02-.38,1.41,0,.39.39.38,1.03,0,1.41l-31.2,30.91c-.19.19-.44.29-.7.29Z"/>
      <path class="cls-1" d="m734.08,51.92h-29.03c-.55,0-1-.45-1-1s.45-1,1-1h29.03c.55,0,1,.45,1,1s-.45,1-1,1Z"/>
      <path class="cls-1" d="m747.13,73.59c-.25,0-.5-.09-.7-.28l-22.25-21.67c-.39-.39-.4-1.02-.02-1.41.38-.4,1.02-.4,1.41-.02l22.25,21.67c.39.39.4,1.02.02,1.41-.19.2-.45.3-.71.3Z"/>
      <path class="cls-1" d="m742.82,60.56c-.25,0-.51-.1-.7-.29l-8.74-8.64c-.19-.19-.3-.44-.3-.71s.11-.52.3-.71l8.74-8.64c.39-.38,1.01-.38,1.4,0l8.74,8.64c.19.19.3.44.3.71s-.11.52-.3.71l-8.74,8.64c-.19.19-.45.29-.7.29Zm-7.32-9.64l7.32,7.24,7.32-7.24-7.32-7.24-7.32,7.24Z"/>
      <path class="cls-2" d="m742.82,43.28h-47.6c-.55,0-1-.45-1-1s.45-1,1-1h47.6c.55,0,1,.45,1,1s-.45,1-1,1Z"/>
    </g>
    <g>
      <g>
        <path class="cls-2" d="m790.63,84.65c-.55,0-1-.45-1-1v-32.12c0-.55.45-1,1-1s1,.45,1,1v32.12c0,.55-.45,1-1,1Z"/>
        <path class="cls-2" d="m797.14,91.08c-.26,0-.51-.1-.7-.29l-6.51-6.44c-.39-.39-.4-1.02,0-1.41.39-.39,1.02-.4,1.41,0l4.81,4.76v-41.76h-44.66c-.55,0-1-.45-1-1s.45-1,1-1h45.66c.55,0,1,.45,1,1v45.15c0,.4-.24.77-.61.92-.12.05-.26.08-.38.08Z"/>
        <path class="cls-2" d="m790.63,84.51h-12.36c-.48,0-.86-.39-.86-.87v-12.22c0-.48.39-.87.86-.87h12.36c.48,0,.86.39.86.87v12.22c0,.48-.39.87-.86.87Zm-11.5-1.73h10.63v-10.49h-10.63v10.49Z"/>
        <path class="cls-2" d="m784.64,90.66c-.18,0-.36-.07-.5-.21l-6.37-6.29c-.28-.28-.29-.73,0-1.02.28-.28.73-.29,1.01,0l6.37,6.29c.28.28.29.73,0,1.02-.14.14-.32.21-.51.21Z"/>
      </g>
      <g>
        <path class="cls-2" d="m790.47,52.37h-32.48c-.55,0-1-.45-1-1s.45-1,1-1h32.48c.55,0,1,.45,1,1s-.45,1-1,1Z"/>
        <path class="cls-2" d="m757.99,52.42c-.27,0-.53-.1-.74-.3l-6.51-6.44c-.41-.41-.42-1.07,0-1.48.4-.41,1.07-.42,1.48,0l6.51,6.44c.41.41.42,1.07,0,1.48-.2.21-.47.31-.75.31Z"/>
        <path class="cls-2" d="m770.35,64.46h-12.36c-.48,0-.86-.39-.86-.87v-12.22c0-.48.39-.87.86-.87h12.36c.48,0,.86.39.86.87v12.22c0,.48-.39.87-.86.87Zm-11.5-1.73h10.63v-10.49h-10.63v10.49Z"/>
        <path class="cls-2" d="m757.99,64.31c-.18,0-.36-.07-.5-.21l-6.37-6.29c-.28-.28-.29-.73,0-1.02.28-.28.73-.29,1.01,0l6.37,6.29c.28.28.29.73,0,1.02-.14.14-.32.21-.51.21Z"/>
      </g>
    </g>
    <g>
      <path class="cls-1" d="m787.52,47.08c.6,0,1.09.47,1.1,1.06,0,.59-.47,1.08-1.07,1.09s-1.09-.47-1.1-1.06c0-.59.47-1.08,1.07-1.09Z"/>
      <g>
        <path class="cls-1" d="m765.24,47.14c.6,0,1.09.47,1.1,1.06,0,.59-.47,1.08-1.07,1.09-.6,0-1.09-.47-1.1-1.06,0-.59.47-1.08,1.07-1.09Z"/>
        <path class="cls-1" d="m776.78,47.01c.6,0,1.09.47,1.1,1.06,0,.59-.47,1.08-1.07,1.09-.6,0-1.09-.47-1.1-1.06,0-.59.47-1.08,1.07-1.09Z"/>
      </g>
    </g>
    <g>
      <path class="cls-1" d="m793.2,55.98c0-.59.47-1.08,1.07-1.09.6,0,1.09.47,1.1,1.06s-.47,1.08-1.07,1.09c-.6,0-1.09-.47-1.1-1.06Z"/>
      <g>
        <path class="cls-1" d="m793.27,78.01c0-.59.47-1.08,1.07-1.09.6,0,1.09.47,1.1,1.06,0,.59-.47,1.08-1.07,1.09-.6,0-1.09-.47-1.1-1.06Z"/>
        <path class="cls-1" d="m793.13,66.6c0-.59.47-1.08,1.07-1.09.6,0,1.09.47,1.1,1.06s-.47,1.08-1.07,1.09c-.6,0-1.09-.47-1.1-1.06Z"/>
      </g>
    </g>
    <path class="cls-2" d="m768.34,85.85c-.45,0-.86-.29-1-.74l-2.48-8.04-8.32-2.62c-.55-.17-.86-.76-.68-1.32.17-.55.76-.86,1.31-.69l8.84,2.79c.33.1.58.36.69.69l2.64,8.57c.17.55-.14,1.14-.69,1.31-.1.03-.21.05-.31.05Z"/>
    <path class="cls-2" d="m778.27,72.47c-.27,0-.53-.1-.74-.3l-7.92-7.83c-.41-.41-.42-1.07,0-1.48.4-.41,1.07-.42,1.48,0l7.92,7.83c.41.41.42,1.07,0,1.48-.2.21-.47.31-.75.31Z"/>
  </g>
  <g>
    <polygon class="cls-1" points="69.42 570.13 50.44 570.13 55.16 576.81 50.44 583.49 69.42 583.49 64.6 576.81 69.42 570.13"/>
    <polygon class="cls-3" points="88.39 570.13 69.42 570.13 74.14 576.81 69.42 583.49 88.39 583.49 83.58 576.81 88.39 570.13"/>
    <polygon class="cls-1" points="107.37 570.13 88.39 570.13 93.12 576.81 88.39 583.49 107.37 583.49 102.56 576.81 107.37 570.13"/>
    <polygon class="cls-3" points="126.35 570.13 107.37 570.13 112.09 576.81 107.37 583.49 126.35 583.49 121.53 576.81 126.35 570.13"/>
    <polygon class="cls-1" points="145.32 570.13 126.35 570.13 131.07 576.81 126.35 583.49 145.32 583.49 140.51 576.81 145.32 570.13"/>
    <polygon class="cls-3" points="164.3 570.13 145.32 570.13 150.05 576.81 145.32 583.49 164.3 583.49 159.49 576.81 164.3 570.13"/>
    <polygon class="cls-1" points="183.28 570.13 164.3 570.13 169.02 576.81 164.3 583.49 183.28 583.49 178.47 576.81 183.28 570.13"/>
    <polygon class="cls-3" points="202.25 570.13 183.28 570.13 188 576.81 183.28 583.49 202.25 583.49 197.44 576.81 202.25 570.13"/>
    <polygon class="cls-1" points="221.23 570.13 202.25 570.13 206.98 576.81 202.25 583.49 221.23 583.49 216.42 576.81 221.23 570.13"/>
    <polygon class="cls-3" points="240.21 570.13 221.23 570.13 225.95 576.81 221.23 583.49 240.21 583.49 235.4 576.81 240.21 570.13"/>
    <polygon class="cls-1" points="259.18 570.13 240.21 570.13 244.93 576.81 240.21 583.49 259.18 583.49 254.37 576.81 259.18 570.13"/>
    <polygon class="cls-3" points="278.16 570.13 259.18 570.13 263.91 576.81 259.18 583.49 278.16 583.49 273.35 576.81 278.16 570.13"/>
    <polygon class="cls-1" points="297.14 570.13 278.16 570.13 282.88 576.81 278.16 583.49 297.14 583.49 292.33 576.81 297.14 570.13"/>
    <polygon class="cls-3" points="316.11 570.13 297.14 570.13 301.86 576.81 297.14 583.49 316.11 583.49 311.3 576.81 316.11 570.13"/>
    <polygon class="cls-1" points="335.09 570.13 316.11 570.13 320.84 576.81 316.11 583.49 335.09 583.49 330.28 576.81 335.09 570.13"/>
    <polygon class="cls-3" points="354.07 570.13 335.09 570.13 339.81 576.81 335.09 583.49 354.07 583.49 349.26 576.81 354.07 570.13"/>
    <polygon class="cls-1" points="373.04 570.13 354.07 570.13 358.79 576.81 354.07 583.49 373.04 583.49 368.23 576.81 373.04 570.13"/>
    <polygon class="cls-3" points="392.02 570.13 373.04 570.13 377.77 576.81 373.04 583.49 392.02 583.49 387.21 576.81 392.02 570.13"/>
    <polygon class="cls-1" points="411 570.13 392.02 570.13 396.74 576.81 392.02 583.49 411 583.49 406.19 576.81 411 570.13"/>
    <polygon class="cls-3" points="429.97 570.13 411 570.13 415.72 576.81 411 583.49 429.97 583.49 425.16 576.81 429.97 570.13"/>
    <polygon class="cls-1" points="448.95 570.13 429.97 570.13 434.7 576.81 429.97 583.49 448.95 583.49 444.14 576.81 448.95 570.13"/>
    <polygon class="cls-3" points="467.93 570.13 448.95 570.13 453.67 576.81 448.95 583.49 467.93 583.49 463.12 576.81 467.93 570.13"/>
    <polygon class="cls-1" points="486.9 570.13 467.93 570.13 472.65 576.81 467.93 583.49 486.9 583.49 482.09 576.81 486.9 570.13"/>
    <polygon class="cls-3" points="505.88 570.13 486.9 570.13 491.63 576.81 486.9 583.49 505.88 583.49 501.07 576.81 505.88 570.13"/>
    <polygon class="cls-1" points="524.86 570.13 505.88 570.13 510.6 576.81 505.88 583.49 524.86 583.49 520.05 576.81 524.86 570.13"/>
    <polygon class="cls-3" points="543.83 570.13 524.86 570.13 529.58 576.81 524.86 583.49 543.83 583.49 539.02 576.81 543.83 570.13"/>
    <polygon class="cls-1" points="562.81 570.13 543.83 570.13 548.56 576.81 543.83 583.49 562.81 583.49 558 576.81 562.81 570.13"/>
    <polygon class="cls-3" points="581.79 570.13 562.81 570.13 567.54 576.81 562.81 583.49 581.79 583.49 576.98 576.81 581.79 570.13"/>
    <polygon class="cls-1" points="600.76 570.13 581.79 570.13 586.51 576.81 581.79 583.49 600.76 583.49 595.95 576.81 600.76 570.13"/>
    <polygon class="cls-3" points="619.74 570.13 600.76 570.13 605.49 576.81 600.76 583.49 619.74 583.49 614.93 576.81 619.74 570.13"/>
    <polygon class="cls-1" points="638.72 570.13 619.74 570.13 624.47 576.81 619.74 583.49 638.72 583.49 633.91 576.81 638.72 570.13"/>
    <polygon class="cls-3" points="657.7 570.13 638.72 570.13 643.44 576.81 638.72 583.49 657.7 583.49 652.88 576.81 657.7 570.13"/>
    <polygon class="cls-1" points="676.67 570.13 657.7 570.13 662.42 576.81 657.7 583.49 676.67 583.49 671.86 576.81 676.67 570.13"/>
    <polygon class="cls-3" points="695.65 570.13 676.67 570.13 681.4 576.81 676.67 583.49 695.65 583.49 690.84 576.81 695.65 570.13"/>
    <polygon class="cls-1" points="714.63 570.13 695.65 570.13 700.37 576.81 695.65 583.49 714.63 583.49 709.82 576.81 714.63 570.13"/>
    <polygon class="cls-3" points="733.6 570.13 714.63 570.13 719.35 576.81 714.63 583.49 733.6 583.49 728.79 576.81 733.6 570.13"/>
    <polygon class="cls-1" points="752.58 570.13 733.6 570.13 738.33 576.81 733.6 583.49 752.58 583.49 747.77 576.81 752.58 570.13"/>
    <polygon class="cls-3" points="771.56 570.13 752.58 570.13 757.3 576.81 752.58 583.49 771.56 583.49 766.75 576.81 771.56 570.13"/>
    <polygon class="cls-1" points="790.53 570.13 771.56 570.13 776.28 576.81 771.56 583.49 790.53 583.49 785.72 576.81 790.53 570.13"/>
  </g>
  <g>
    <polygon class="cls-1" points="69.42 12.68 50.44 12.68 55.16 19.36 50.44 26.04 69.42 26.04 64.6 19.36 69.42 12.68"/>
    <polygon class="cls-3" points="88.39 12.68 69.42 12.68 74.14 19.36 69.42 26.04 88.39 26.04 83.58 19.36 88.39 12.68"/>
    <polygon class="cls-1" points="107.37 12.68 88.39 12.68 93.12 19.36 88.39 26.04 107.37 26.04 102.56 19.36 107.37 12.68"/>
    <polygon class="cls-3" points="126.35 12.68 107.37 12.68 112.09 19.36 107.37 26.04 126.35 26.04 121.53 19.36 126.35 12.68"/>
    <polygon class="cls-1" points="145.32 12.68 126.35 12.68 131.07 19.36 126.35 26.04 145.32 26.04 140.51 19.36 145.32 12.68"/>
    <polygon class="cls-3" points="164.3 12.68 145.32 12.68 150.05 19.36 145.32 26.04 164.3 26.04 159.49 19.36 164.3 12.68"/>
    <polygon class="cls-1" points="183.28 12.68 164.3 12.68 169.02 19.36 164.3 26.04 183.28 26.04 178.47 19.36 183.28 12.68"/>
    <polygon class="cls-3" points="202.25 12.68 183.28 12.68 188 19.36 183.28 26.04 202.25 26.04 197.44 19.36 202.25 12.68"/>
    <polygon class="cls-1" points="221.23 12.68 202.25 12.68 206.98 19.36 202.25 26.04 221.23 26.04 216.42 19.36 221.23 12.68"/>
    <polygon class="cls-3" points="240.21 12.68 221.23 12.68 225.95 19.36 221.23 26.04 240.21 26.04 235.4 19.36 240.21 12.68"/>
    <polygon class="cls-1" points="259.18 12.68 240.21 12.68 244.93 19.36 240.21 26.04 259.18 26.04 254.37 19.36 259.18 12.68"/>
    <polygon class="cls-3" points="278.16 12.68 259.18 12.68 263.91 19.36 259.18 26.04 278.16 26.04 273.35 19.36 278.16 12.68"/>
    <polygon class="cls-1" points="297.14 12.68 278.16 12.68 282.88 19.36 278.16 26.04 297.14 26.04 292.33 19.36 297.14 12.68"/>
    <polygon class="cls-3" points="316.11 12.68 297.14 12.68 301.86 19.36 297.14 26.04 316.11 26.04 311.3 19.36 316.11 12.68"/>
    <polygon class="cls-1" points="335.09 12.68 316.11 12.68 320.84 19.36 316.11 26.04 335.09 26.04 330.28 19.36 335.09 12.68"/>
    <polygon class="cls-3" points="354.07 12.68 335.09 12.68 339.81 19.36 335.09 26.04 354.07 26.04 349.26 19.36 354.07 12.68"/>
    <polygon class="cls-1" points="373.04 12.68 354.07 12.68 358.79 19.36 354.07 26.04 373.04 26.04 368.23 19.36 373.04 12.68"/>
    <polygon class="cls-3" points="392.02 12.68 373.04 12.68 377.77 19.36 373.04 26.04 392.02 26.04 387.21 19.36 392.02 12.68"/>
    <polygon class="cls-1" points="411 12.68 392.02 12.68 396.74 19.36 392.02 26.04 411 26.04 406.19 19.36 411 12.68"/>
    <polygon class="cls-3" points="429.97 12.68 411 12.68 415.72 19.36 411 26.04 429.97 26.04 425.16 19.36 429.97 12.68"/>
    <polygon class="cls-1" points="448.95 12.68 429.97 12.68 434.7 19.36 429.97 26.04 448.95 26.04 444.14 19.36 448.95 12.68"/>
    <polygon class="cls-3" points="467.93 12.68 448.95 12.68 453.67 19.36 448.95 26.04 467.93 26.04 463.12 19.36 467.93 12.68"/>
    <polygon class="cls-1" points="486.9 12.68 467.93 12.68 472.65 19.36 467.93 26.04 486.9 26.04 482.09 19.36 486.9 12.68"/>
    <polygon class="cls-3" points="505.88 12.68 486.9 12.68 491.63 19.36 486.9 26.04 505.88 26.04 501.07 19.36 505.88 12.68"/>
    <polygon class="cls-1" points="524.86 12.68 505.88 12.68 510.6 19.36 505.88 26.04 524.86 26.04 520.05 19.36 524.86 12.68"/>
    <polygon class="cls-3" points="543.83 12.68 524.86 12.68 529.58 19.36 524.86 26.04 543.83 26.04 539.02 19.36 543.83 12.68"/>
    <polygon class="cls-1" points="562.81 12.68 543.83 12.68 548.56 19.36 543.83 26.04 562.81 26.04 558 19.36 562.81 12.68"/>
    <polygon class="cls-3" points="581.79 12.68 562.81 12.68 567.54 19.36 562.81 26.04 581.79 26.04 576.98 19.36 581.79 12.68"/>
    <polygon class="cls-1" points="600.76 12.68 581.79 12.68 586.51 19.36 581.79 26.04 600.76 26.04 595.95 19.36 600.76 12.68"/>
    <polygon class="cls-3" points="619.74 12.68 600.76 12.68 605.49 19.36 600.76 26.04 619.74 26.04 614.93 19.36 619.74 12.68"/>
    <polygon class="cls-1" points="638.72 12.68 619.74 12.68 624.47 19.36 619.74 26.04 638.72 26.04 633.91 19.36 638.72 12.68"/>
    <polygon class="cls-3" points="657.7 12.68 638.72 12.68 643.44 19.36 638.72 26.04 657.7 26.04 652.88 19.36 657.7 12.68"/>
    <polygon class="cls-1" points="676.67 12.68 657.7 12.68 662.42 19.36 657.7 26.04 676.67 26.04 671.86 19.36 676.67 12.68"/>
    <polygon class="cls-3" points="695.65 12.68 676.67 12.68 681.4 19.36 676.67 26.04 695.65 26.04 690.84 19.36 695.65 12.68"/>
    <polygon class="cls-1" points="714.63 12.68 695.65 12.68 700.37 19.36 695.65 26.04 714.63 26.04 709.82 19.36 714.63 12.68"/>
    <polygon class="cls-3" points="733.6 12.68 714.63 12.68 719.35 19.36 714.63 26.04 733.6 26.04 728.79 19.36 733.6 12.68"/>
    <polygon class="cls-1" points="752.58 12.68 733.6 12.68 738.33 19.36 733.6 26.04 752.58 26.04 747.77 19.36 752.58 12.68"/>
    <polygon class="cls-3" points="771.56 12.68 752.58 12.68 757.3 19.36 752.58 26.04 771.56 26.04 766.75 19.36 771.56 12.68"/>
    <polygon class="cls-1" points="790.53 12.68 771.56 12.68 776.28 19.36 771.56 26.04 790.53 26.04 785.72 19.36 790.53 12.68"/>
  </g>
  <g>
    <polygon class="cls-3" points="815.83 520.1 815.83 538.87 822.59 534.2 829.34 538.87 829.34 520.1 822.59 524.86 815.83 520.1"/>
    <polygon class="cls-1" points="815.83 501.34 815.83 520.1 822.59 515.43 829.34 520.1 829.34 501.34 822.59 506.1 815.83 501.34"/>
    <polygon class="cls-3" points="815.83 482.57 815.83 501.34 822.59 496.67 829.34 501.34 829.34 482.57 822.59 487.33 815.83 482.57"/>
    <polygon class="cls-1" points="815.83 463.81 815.83 482.57 822.59 477.9 829.34 482.57 829.34 463.81 822.59 468.56 815.83 463.81"/>
    <polygon class="cls-3" points="815.83 445.04 815.83 463.81 822.59 459.14 829.34 463.81 829.34 445.04 822.59 449.8 815.83 445.04"/>
    <polygon class="cls-1" points="815.83 426.28 815.83 445.04 822.59 440.37 829.34 445.04 829.34 426.28 822.59 431.03 815.83 426.28"/>
    <polygon class="cls-3" points="815.83 407.51 815.83 426.28 822.59 421.61 829.34 426.28 829.34 407.51 822.59 412.27 815.83 407.51"/>
    <polygon class="cls-1" points="815.83 388.75 815.83 407.51 822.59 402.84 829.34 407.51 829.34 388.75 822.59 393.5 815.83 388.75"/>
    <polygon class="cls-3" points="815.83 369.98 815.83 388.75 822.59 384.08 829.34 388.75 829.34 369.98 822.59 374.74 815.83 369.98"/>
    <polygon class="cls-1" points="815.83 351.22 815.83 369.98 822.59 365.31 829.34 369.98 829.34 351.22 822.59 355.97 815.83 351.22"/>
    <polygon class="cls-3" points="815.83 332.45 815.83 351.22 822.59 346.54 829.34 351.22 829.34 332.45 822.59 337.21 815.83 332.45"/>
    <polygon class="cls-1" points="815.83 313.68 815.83 332.45 822.59 327.78 829.34 332.45 829.34 313.68 822.59 318.44 815.83 313.68"/>
    <polygon class="cls-3" points="815.83 294.92 815.83 313.68 822.59 309.01 829.34 313.68 829.34 294.92 822.59 299.68 815.83 294.92"/>
    <polygon class="cls-1" points="815.83 276.15 815.83 294.92 822.59 290.25 829.34 294.92 829.34 276.15 822.59 280.91 815.83 276.15"/>
    <polygon class="cls-3" points="815.83 257.39 815.83 276.15 822.59 271.48 829.34 276.15 829.34 257.39 822.59 262.15 815.83 257.39"/>
    <polygon class="cls-1" points="815.83 238.62 815.83 257.39 822.59 252.72 829.34 257.39 829.34 238.62 822.59 243.38 815.83 238.62"/>
    <polygon class="cls-3" points="815.83 219.86 815.83 238.62 822.59 233.95 829.34 238.62 829.34 219.86 822.59 224.61 815.83 219.86"/>
    <polygon class="cls-1" points="815.83 201.09 815.83 219.86 822.59 215.19 829.34 219.86 829.34 201.09 822.59 205.85 815.83 201.09"/>
    <polygon class="cls-3" points="815.83 182.33 815.83 201.09 822.59 196.42 829.34 201.09 829.34 182.33 822.59 187.08 815.83 182.33"/>
    <polygon class="cls-1" points="815.83 163.56 815.83 182.33 822.59 177.66 829.34 182.33 829.34 163.56 822.59 168.32 815.83 163.56"/>
    <polygon class="cls-3" points="815.83 144.8 815.83 163.56 822.59 158.89 829.34 163.56 829.34 144.8 822.59 149.55 815.83 144.8"/>
    <polygon class="cls-1" points="815.83 126.03 815.83 144.8 822.59 140.13 829.34 144.8 829.34 126.03 822.59 130.79 815.83 126.03"/>
    <polygon class="cls-3" points="815.83 107.27 815.83 126.03 822.59 121.36 829.34 126.03 829.34 107.27 822.59 112.02 815.83 107.27"/>
    <polygon class="cls-1" points="815.83 88.5 815.83 107.27 822.59 102.59 829.34 107.27 829.34 88.5 822.59 93.26 815.83 88.5"/>
    <polygon class="cls-3" points="815.83 69.73 815.83 88.5 822.59 83.83 829.34 88.5 829.34 69.73 822.59 74.49 815.83 69.73"/>
    <polygon class="cls-1" points="815.83 50.97 815.83 69.73 822.59 65.06 829.34 69.73 829.34 50.97 822.59 55.73 815.83 50.97"/>
  </g>
  <g>
    <polygon class="cls-3" points="12.04 520.1 12.04 538.87 18.8 534.2 25.55 538.87 25.55 520.1 18.8 524.86 12.04 520.1"/>
    <polygon class="cls-1" points="12.04 501.34 12.04 520.1 18.8 515.43 25.55 520.1 25.55 501.34 18.8 506.1 12.04 501.34"/>
    <polygon class="cls-3" points="12.04 482.57 12.04 501.34 18.8 496.67 25.55 501.34 25.55 482.57 18.8 487.33 12.04 482.57"/>
    <polygon class="cls-1" points="12.04 463.81 12.04 482.57 18.8 477.9 25.55 482.57 25.55 463.81 18.8 468.56 12.04 463.81"/>
    <polygon class="cls-3" points="12.04 445.04 12.04 463.81 18.8 459.14 25.55 463.81 25.55 445.04 18.8 449.8 12.04 445.04"/>
    <polygon class="cls-1" points="12.04 426.28 12.04 445.04 18.8 440.37 25.55 445.04 25.55 426.28 18.8 431.03 12.04 426.28"/>
    <polygon class="cls-3" points="12.04 407.51 12.04 426.28 18.8 421.61 25.55 426.28 25.55 407.51 18.8 412.27 12.04 407.51"/>
    <polygon class="cls-1" points="12.04 388.75 12.04 407.51 18.8 402.84 25.55 407.51 25.55 388.75 18.8 393.5 12.04 388.75"/>
    <polygon class="cls-3" points="12.04 369.98 12.04 388.75 18.8 384.08 25.55 388.75 25.55 369.98 18.8 374.74 12.04 369.98"/>
    <polygon class="cls-1" points="12.04 351.22 12.04 369.98 18.8 365.31 25.55 369.98 25.55 351.22 18.8 355.97 12.04 351.22"/>
    <polygon class="cls-3" points="12.04 332.45 12.04 351.22 18.8 346.54 25.55 351.22 25.55 332.45 18.8 337.21 12.04 332.45"/>
    <polygon class="cls-1" points="12.04 313.68 12.04 332.45 18.8 327.78 25.55 332.45 25.55 313.68 18.8 318.44 12.04 313.68"/>
    <polygon class="cls-3" points="12.04 294.92 12.04 313.68 18.8 309.01 25.55 313.68 25.55 294.92 18.8 299.68 12.04 294.92"/>
    <polygon class="cls-1" points="12.04 276.15 12.04 294.92 18.8 290.25 25.55 294.92 25.55 276.15 18.8 280.91 12.04 276.15"/>
    <polygon class="cls-3" points="12.04 257.39 12.04 276.15 18.8 271.48 25.55 276.15 25.55 257.39 18.8 262.15 12.04 257.39"/>
    <polygon class="cls-1" points="12.04 238.62 12.04 257.39 18.8 252.72 25.55 257.39 25.55 238.62 18.8 243.38 12.04 238.62"/>
    <polygon class="cls-3" points="12.04 219.86 12.04 238.62 18.8 233.95 25.55 238.62 25.55 219.86 18.8 224.61 12.04 219.86"/>
    <polygon class="cls-1" points="12.04 201.09 12.04 219.86 18.8 215.19 25.55 219.86 25.55 201.09 18.8 205.85 12.04 201.09"/>
    <polygon class="cls-3" points="12.04 182.33 12.04 201.09 18.8 196.42 25.55 201.09 25.55 182.33 18.8 187.08 12.04 182.33"/>
    <polygon class="cls-1" points="12.04 163.56 12.04 182.33 18.8 177.66 25.55 182.33 25.55 163.56 18.8 168.32 12.04 163.56"/>
    <polygon class="cls-3" points="12.04 144.8 12.04 163.56 18.8 158.89 25.55 163.56 25.55 144.8 18.8 149.55 12.04 144.8"/>
    <polygon class="cls-1" points="12.04 126.03 12.04 144.8 18.8 140.13 25.55 144.8 25.55 126.03 18.8 130.79 12.04 126.03"/>
    <polygon class="cls-3" points="12.04 107.27 12.04 126.03 18.8 121.36 25.55 126.03 25.55 107.27 18.8 112.02 12.04 107.27"/>
    <polygon class="cls-1" points="12.04 88.5 12.04 107.27 18.8 102.59 25.55 107.27 25.55 88.5 18.8 93.26 12.04 88.5"/>
    <polygon class="cls-3" points="12.04 69.73 12.04 88.5 18.8 83.83 25.55 88.5 25.55 69.73 18.8 74.49 12.04 69.73"/>
    <polygon class="cls-1" points="12.04 50.97 12.04 69.73 18.8 65.06 25.55 69.73 25.55 50.97 18.8 55.73 12.04 50.97"/>
  </g>
  <g>
    <path class="cls-2" d="m825.29,34.88c1.67-.18,3.68-.09,4.61,1.31,1.1,1.66-.29,4.01-2.16,4.73-1.87.73-3.95.37-5.95.21-6.28-.51-12.72,1.04-18.06,4.35,5.62-5.9,13.42-9.74,21.57-10.6Z"/>
    <path class="cls-2" d="m802.28,19.87c-.49-1.59-1.37-3.38-3.03-3.67-1.97-.35-3.61,1.84-3.55,3.82.06,1.98,1.21,3.74,2.15,5.5,2.95,5.51,4.04,11.97,3.06,18.13,3.28-7.43,3.77-16.03,1.37-23.78Z"/>
    <path class="cls-2" d="m819.22,24.42c-4.4,6.79-9.75,12.99-15.82,18.3,2.48-8.13,6.64-15.85,12.1-22.49.95-1.16,2.26-2.41,3.62-2.12,1.16.25,1.76,1.6,1.63,2.84-.14,1.24-.83,2.39-1.53,3.46Z"/>
  </g>
  <g>
    <path class="cls-2" d="m804.02,577.93c-.35,1.63-1.07,3.48-2.69,3.92-1.94.52-3.76-1.52-3.87-3.5-.12-1.98.87-3.83,1.65-5.66,2.45-5.75,2.96-12.28,1.45-18.33,3.92,7.12,5.17,15.64,3.46,23.57Z"/>
    <path class="cls-2" d="m825.62,560.98c1.68.03,3.67-.23,4.47-1.7.95-1.75-.64-3.97-2.57-4.53-1.92-.56-3.97-.03-5.95.3-6.21,1.05-12.76.06-18.38-2.77,6.12,5.39,14.23,8.54,22.43,8.7Z"/>
    <path class="cls-2" d="m815.97,575.49c-5.16-6.25-9.44-13.21-12.65-20.57,7.04,4.87,13.16,11.18,17.84,18.38.82,1.26,1.61,2.87.91,4.06-.6,1.02-2.09,1.16-3.24.64-1.15-.52-2.03-1.52-2.85-2.51Z"/>
  </g>
  <g>
    <path class="cls-2" d="m17.28,34.88c-1.67-.18-3.68-.09-4.61,1.31-1.1,1.66.29,4.01,2.16,4.73,1.87.73,3.95.37,5.95.21,6.28-.51,12.72,1.04,18.06,4.35-5.62-5.9-13.42-9.74-21.57-10.6Z"/>
    <path class="cls-2" d="m40.3,19.87c.49-1.59,1.37-3.38,3.03-3.67,1.97-.35,3.61,1.84,3.55,3.82-.06,1.98-1.21,3.74-2.15,5.5-2.95,5.51-4.04,11.97-3.06,18.13-3.28-7.43-3.77-16.03-1.37-23.78Z"/>
    <path class="cls-2" d="m23.35,24.42c4.4,6.79,9.75,12.99,15.82,18.3-2.48-8.13-6.64-15.85-12.1-22.49-.95-1.16-2.26-2.41-3.62-2.12-1.16.25-1.76,1.6-1.63,2.84.14,1.24.83,2.39,1.53,3.46Z"/>
  </g>
  <g>
    <path class="cls-2" d="m38.56,577.93c.35,1.63,1.07,3.48,2.69,3.92,1.94.52,3.76-1.52,3.87-3.5.12-1.98-.87-3.83-1.65-5.66-2.45-5.75-2.96-12.28-1.45-18.33-3.92,7.12-5.17,15.64-3.46,23.57Z"/>
    <path class="cls-2" d="m16.96,560.98c-1.68.03-3.67-.23-4.47-1.7-.95-1.75.64-3.97,2.57-4.53,1.92-.56,3.97-.03,5.95.3,6.21,1.05,12.76.06,18.38-2.77-6.12,5.39-14.23,8.54-22.43,8.7Z"/>
    <path class="cls-2" d="m26.61,575.49c5.16-6.25,9.44-13.21,12.65-20.57-7.04,4.87-13.16,11.18-17.84,18.38-.82,1.26-1.61,2.87-.91,4.06.6,1.02,2.09,1.16,3.24.64,1.15-.52,2.03-1.52,2.85-2.51Z"/>
  </g>
  <path class="cls-2" d="m790.07,565.82H51.82v-2c0-19.18-18.63-19.46-19.42-19.46h-1.99V53.23h1.99c.79-.01,19.42-.36,19.42-19.47v-2h738.25v2c0,19.1,18.63,19.45,19.42,19.46h1.98s0,2,0,2v489.14h-1.99c-.79.01-19.42.36-19.42,19.47v2Zm-734.32-4h730.39c1.06-17.32,15.9-20.66,21.35-21.31V57.07c-5.45-.64-20.29-3.98-21.35-21.31H55.75c-1.06,17.32-15.9,20.66-21.35,21.31v483.45c5.45.64,20.29,3.98,21.35,21.31Z"/>
</svg>