<?xml version="1.0" encoding="utf-8"?>
<!-- Generator: Adobe Illustrator 27.1.1, SVG Export Plug-In . SVG Version: 6.00 Build 0)  -->
<svg version="1.1" id="Layer_1" xmlns="http://www.w3.org/2000/svg" xmlns:xlink="http://www.w3.org/1999/xlink" x="0px" y="0px"
	 viewBox="0 0 153.1 244.1" style="enable-background:new 0 0 153.1 244.1;" xml:space="preserve">
<style type="text/css">
	.st0{fill:#0C8140;}
	.st1{fill:#FFFFFF;}
	.st2{fill:#F7EC13;}
	.st3{fill:#ED2024;}
	.st4{fill:#9C9B9D;}
	.st5{fill:#412410;}
	.st6{font-family:'BernardMT-Condensed';}
	.st7{font-size:11.87px;}
	.st8{fill:#231F20;}
	.st9{font-family:'MinionPro-Regular';}
	.st10{font-size:8px;}
	.st11{fill:#ED2224;}
	.st12{font-size:8.11px;}
	.st13{fill:#010101;}
	.st14{font-size:6.49px;}
</style>
<rect y="0" class="st0" width="153.1" height="244.1"/>
<path class="st1" d="M6,4.3h140.8c1.2,0,2.1,0.9,2.1,2.1V238c0,1.2-0.9,2.1-2.1,2.1H6c-1.2,0-2.1-0.9-2.1-2.1V6.5
	C3.9,5.3,4.8,4.3,6,4.3z"/>
<rect x="3.9" y="235" class="st2" width="145.1" height="1.4"/>
<rect x="3.9" y="237.2" width="145.1" height="1"/>
<g>
	<path class="st2" d="M6.7,105.1c8.2-1.7,14.8-4.2,19.5-6.3c4.8-2.1,8.5-4.3,10.6-5.5c5.8-3.4,9.9-6.6,14.2-9.9
		c1.7-1.3,2.2-1.7,10.8-8.8c5.4-4.4,9.6-7.9,10-8.2c20.9-17.1,39.8-23,39.9-23l0,0c1.5-0.5,3.5-1,5.9-1.6c5.1-1.2,11.2-1.7,11.2-1.7
		c7.4-0.6,14.2-0.3,17.8,0v23.2c-2.9-0.4-6.5-0.8-10.5-1c-1.4-0.1-6.8-0.3-13,0.1c-7,0.4-15.2,0.9-24.9,4.1
		c-7.5,2.5-14.6,6.9-28.9,15.8c-10,6.2-10.9,7.4-19.4,12.3c-8.5,4.9-13.6,7.9-20.8,10.4c-5.4,2-13,4.1-22.5,4.9
		C6.6,108.4,6.7,106.8,6.7,105.1L6.7,105.1z"/>
	<path class="st0" d="M6.6,110.1c-0.1,2.1-0.1,4.3-0.2,6.4c4-0.1,8.5-0.5,13.4-1.3c4.7-0.8,8-1.7,12.1-2.8
		c5.9-1.6,14.2-3.9,24.4-8.4c4.7-2,3.5-1.8,12.7-6.1c7.7-3.6,12-5.6,17.2-7.6c5.6-2.1,14.2-5.4,25.8-7.1c6.8-1,12.2-1.8,19.4-1
		c1.5,0.2,7.1,2.1,14.9,2.7c0.1,0,0.2,0,0.3,0V63.3c-3.9-0.6-9.1-1.3-15.4-1.5c-5.5-0.2-13.8-0.4-23.2,1.7c-10,2.2-16.8,6-27,11.7
		c-3.5,2-9.7,5.9-22.2,13.9c-6.6,4.2-9.7,6.3-15,9.1c-5.6,3-9.8,5.3-15.9,7.4c-1.8,0.6-8.7,2.9-18,4.1C8.5,109.9,7.4,110,6.6,110.1
		L6.6,110.1z"/>
	<path class="st3" d="M146.6,84.8v17c-1.7-0.5-3.9-1.2-6.7-1.8c-3.9-0.9-12.2-2.6-23-2.5c-3.5,0-11.8,0.3-22.3,2.9
		c-9.2,2.3-10.1,3.9-28.3,10.2c-6.5,2.3-10.1,3.5-15.5,5c-11.6,3.2-20.7,4.6-25,5.1c-6.9,0.9-12.3,1.1-14.1,1.2
		c-2.2,0.1-4.1,0.1-5.5,0.1c0.1-1.9,0.1-3.7,0.1-5.6c5.6-0.2,10.3-0.8,13.8-1.4c4.7-0.8,8.3-1.8,11.4-2.6c1.4-0.4,5.6-1.5,11.1-3.4
		c6.5-2.2,11.3-4.3,16.7-6.7c2.3-1,4.5-2,8.8-3.9c6.6-3,8.5-3.9,10.9-5c4.8-2.1,13.4-5.9,24.4-8.8c4.1-1.1,8.1-2.1,13.7-2.6
		c8.4-0.8,14.8-0.1,17.7,0.3c5.1,0.7,8.6,1.7,9.5,1.9C145.4,84.4,146.1,84.6,146.6,84.8L146.6,84.8z"/>
	<path class="st4" d="M51.2,44h56.4c2.4,0,4.4,2,4.4,4.4v63.3c0,2.4-2,4.4-4.4,4.4H51.2c-2.4,0-4.4-2-4.4-4.4V48.4
		C46.8,46,48.8,44,51.2,44z"/>
</g>
<image style="overflow:visible;enable-background:new    ;" width="819" height="746" xlink:href="EEEFDB49.png"  transform="matrix(4.000000e-02 0 0 4.000000e-02 9.21 26.86)">
</image>
<text transform="matrix(0.94 0 0 1 10.8701 21.0402)" class="st5 st6 st7">NURE MADINA SHISHU ACADEMY</text>
<text transform="matrix(0.94 0 0 1 52.6997 35.0099)" class="st5 st6 st7">KURIGRAM</text>
<text transform="matrix(1 0 0 1 17.04 147.04)" class="st8 st9 st10">Class:</text>
<text transform="matrix(1 0 0 1 67.06 147.04)" class="st8 st9 st10">Section:</text>
<text transform="matrix(1 0 0 1 111.98 147.13)" class="st8 st9 st10">Roll:</text>
<text transform="matrix(1.16 0 0 1 16.1602 161.6799)" class="st11 st9 st12">ID Number   </text>
<text transform="matrix(1.16 0 0 1 16.2603 172.3898)" class="st13 st9 st14">Date of Birth      </text>
<text transform="matrix(1.16 0 0 1 16.2603 183.07)" class="st13 st9 st14">Father&apos;s Name    </text>
<text transform="matrix(1.16 0 0 1 16.3804 193.8)" class="st13 st9 st14">Mother&apos;s Name   </text>
<text transform="matrix(1.16 0 0 1 16.2603 204.53)" class="st13 st9 st14">Father&apos;s Mobile</text>
<text transform="matrix(1.16 0 0 1 64.6602 160.7199)" class="st11 st9 st14">:</text>
<text transform="matrix(1.16 0 0 1 64.6704 171.7902)" class="st13 st9 st14">:</text>
<text transform="matrix(1.16 0 0 1 64.6401 182.3498)" class="st13 st9 st14">:</text>
<text transform="matrix(1.16 0 0 1 64.6104 193.4099)" class="st13 st9 st14">:</text>
<text transform="matrix(1.16 0 0 1 64.6401 203.8801)" class="st13 st9 st14">:</text>
</svg>
