<?xml version="1.0" encoding="UTF-8"?>
<svg id="F2" xmlns="http://www.w3.org/2000/svg" viewBox="0 0 841.89 595.28">
  <defs>
    <style>
      .cls-1 {
        fill: #252525;
      }
    </style>
  </defs>
  <g>
    <g>
      <polygon class="cls-1" points="13.81 471.99 13.81 485.9 27.21 485.9 27.21 471.56 16.36 471.56 16.36 483.22 24.84 483.22 24.84 474.31 18.98 474.31 18.98 480.46 22.43 480.46 22.43 478.02 21.59 478.02 21.59 479.61 19.81 479.61 19.81 475.16 24 475.16 24 482.37 17.2 482.37 17.2 472.41 26.37 472.41 26.37 485.05 14.65 485.05 14.65 471.99 13.81 471.99"/>
      <polygon class="cls-1" points="13.81 455.86 13.81 469.78 14.65 469.78 14.65 456.71 26.37 456.71 26.37 469.35 17.2 469.35 17.2 459.39 24 459.39 24 466.6 19.81 466.6 19.81 462.15 21.59 462.15 21.59 463.75 22.43 463.75 22.43 461.3 18.98 461.3 18.98 467.45 24.84 467.45 24.84 458.54 16.36 458.54 16.36 470.2 27.21 470.2 27.21 455.86 13.81 455.86"/>
    </g>
    <g>
      <polygon class="cls-1" points="13.81 440.41 13.81 454.33 27.21 454.33 27.21 439.99 16.36 439.99 16.36 451.65 24.84 451.65 24.84 442.74 18.98 442.74 18.98 448.89 22.43 448.89 22.43 446.44 21.59 446.44 21.59 448.04 19.81 448.04 19.81 443.59 24 443.59 24 450.8 17.2 450.8 17.2 440.84 26.37 440.84 26.37 453.48 14.65 453.48 14.65 440.41 13.81 440.41"/>
      <polygon class="cls-1" points="13.81 424.29 13.81 438.21 14.65 438.21 14.65 425.14 26.37 425.14 26.37 437.78 17.2 437.78 17.2 427.82 24 427.82 24 435.03 19.81 435.03 19.81 430.58 21.59 430.58 21.59 432.18 22.43 432.18 22.43 429.73 18.98 429.73 18.98 435.88 24.84 435.88 24.84 426.97 16.36 426.97 16.36 438.63 27.21 438.63 27.21 424.29 13.81 424.29"/>
    </g>
    <g>
      <polygon class="cls-1" points="13.81 408.84 13.81 422.76 27.21 422.76 27.21 408.42 16.36 408.42 16.36 420.08 24.84 420.08 24.84 411.17 18.98 411.17 18.98 417.32 22.43 417.32 22.43 414.87 21.59 414.87 21.59 416.47 19.81 416.47 19.81 412.02 24 412.02 24 419.23 17.2 419.23 17.2 409.27 26.37 409.27 26.37 421.91 14.65 421.91 14.65 408.84 13.81 408.84"/>
      <polygon class="cls-1" points="13.81 392.72 13.81 406.63 14.65 406.63 14.65 393.57 26.37 393.57 26.37 406.21 17.2 406.21 17.2 396.25 24 396.25 24 403.46 19.81 403.46 19.81 399 21.59 399 21.59 400.6 22.43 400.6 22.43 398.16 18.98 398.16 18.98 404.31 24.84 404.31 24.84 395.4 16.36 395.4 16.36 407.06 27.21 407.06 27.21 392.72 13.81 392.72"/>
    </g>
    <g>
      <polygon class="cls-1" points="13.81 566.7 13.81 580.61 27.21 580.61 27.21 566.28 16.36 566.28 16.36 577.94 24.84 577.94 24.84 569.03 18.98 569.03 18.98 575.18 22.43 575.18 22.43 572.73 21.59 572.73 21.59 574.33 19.81 574.33 19.81 569.88 24 569.88 24 577.09 17.2 577.09 17.2 567.13 26.37 567.13 26.37 579.77 14.65 579.77 14.65 566.7 13.81 566.7"/>
      <polygon class="cls-1" points="13.81 550.58 13.81 564.49 14.65 564.49 14.65 551.43 26.37 551.43 26.37 564.07 17.2 564.07 17.2 554.1 24 554.1 24 561.32 19.81 561.32 19.81 556.86 21.59 556.86 21.59 558.46 22.43 558.46 22.43 556.01 18.98 556.01 18.98 562.16 24.84 562.16 24.84 553.26 16.36 553.26 16.36 564.92 27.21 564.92 27.21 550.58 13.81 550.58"/>
    </g>
    <g>
      <polygon class="cls-1" points="13.81 535.13 13.81 549.04 27.21 549.04 27.21 534.71 16.36 534.71 16.36 546.36 24.84 546.36 24.84 537.46 18.98 537.46 18.98 543.61 22.43 543.61 22.43 541.16 21.59 541.16 21.59 542.76 19.81 542.76 19.81 538.3 24 538.3 24 545.52 17.2 545.52 17.2 535.55 26.37 535.55 26.37 548.19 14.65 548.19 14.65 535.13 13.81 535.13"/>
      <polygon class="cls-1" points="13.81 519.01 13.81 532.92 14.65 532.92 14.65 519.86 26.37 519.86 26.37 532.5 17.2 532.5 17.2 522.53 24 522.53 24 529.74 19.81 529.74 19.81 525.29 21.59 525.29 21.59 526.89 22.43 526.89 22.43 524.44 18.98 524.44 18.98 530.59 24.84 530.59 24.84 521.68 16.36 521.68 16.36 533.34 27.21 533.34 27.21 519.01 13.81 519.01"/>
    </g>
    <g>
      <polygon class="cls-1" points="13.81 503.56 13.81 517.47 27.21 517.47 27.21 503.13 16.36 503.13 16.36 514.79 24.84 514.79 24.84 505.88 18.98 505.88 18.98 512.04 22.43 512.04 22.43 509.59 21.59 509.59 21.59 511.19 19.81 511.19 19.81 506.73 24 506.73 24 513.94 17.2 513.94 17.2 503.98 26.37 503.98 26.37 516.62 14.65 516.62 14.65 503.56 13.81 503.56"/>
      <polygon class="cls-1" points="13.81 487.44 13.81 501.35 14.65 501.35 14.65 488.28 26.37 488.28 26.37 500.92 17.2 500.92 17.2 490.96 24 490.96 24 498.17 19.81 498.17 19.81 493.72 21.59 493.72 21.59 495.32 22.43 495.32 22.43 492.87 18.98 492.87 18.98 499.02 24.84 499.02 24.84 490.11 16.36 490.11 16.36 501.77 27.21 501.77 27.21 487.44 13.81 487.44"/>
    </g>
    <g>
      <polygon class="cls-1" points="13.81 377.27 13.81 391.18 27.21 391.18 27.21 376.85 16.36 376.85 16.36 388.51 24.84 388.51 24.84 379.6 18.98 379.6 18.98 385.75 22.43 385.75 22.43 383.3 21.59 383.3 21.59 384.9 19.81 384.9 19.81 380.45 24 380.45 24 387.66 17.2 387.66 17.2 377.7 26.37 377.7 26.37 390.34 14.65 390.34 14.65 377.27 13.81 377.27"/>
      <polygon class="cls-1" points="13.81 361.15 13.81 375.06 14.65 375.06 14.65 362 26.37 362 26.37 374.64 17.2 374.64 17.2 364.67 24 364.67 24 371.89 19.81 371.89 19.81 367.43 21.59 367.43 21.59 369.03 22.43 369.03 22.43 366.58 18.98 366.58 18.98 372.73 24.84 372.73 24.84 363.83 16.36 363.83 16.36 375.49 27.21 375.49 27.21 361.15 13.81 361.15"/>
    </g>
    <g>
      <polygon class="cls-1" points="13.81 345.7 13.81 359.61 27.21 359.61 27.21 345.28 16.36 345.28 16.36 356.93 24.84 356.93 24.84 348.03 18.98 348.03 18.98 354.18 22.43 354.18 22.43 351.73 21.59 351.73 21.59 353.33 19.81 353.33 19.81 348.87 24 348.87 24 356.09 17.2 356.09 17.2 346.12 26.37 346.12 26.37 358.76 14.65 358.76 14.65 345.7 13.81 345.7"/>
      <polygon class="cls-1" points="13.81 329.58 13.81 343.49 14.65 343.49 14.65 330.43 26.37 330.43 26.37 343.07 17.2 343.07 17.2 333.1 24 333.1 24 340.31 19.81 340.31 19.81 335.86 21.59 335.86 21.59 337.46 22.43 337.46 22.43 335.01 18.98 335.01 18.98 341.16 24.84 341.16 24.84 332.25 16.36 332.25 16.36 343.91 27.21 343.91 27.21 329.58 13.81 329.58"/>
    </g>
    <g>
      <polygon class="cls-1" points="13.81 314.13 13.81 328.04 27.21 328.04 27.21 313.7 16.36 313.7 16.36 325.36 24.84 325.36 24.84 316.45 18.98 316.45 18.98 322.6 22.43 322.6 22.43 320.16 21.59 320.16 21.59 321.76 19.81 321.76 19.81 317.3 24 317.3 24 324.51 17.2 324.51 17.2 314.55 26.37 314.55 26.37 327.19 14.65 327.19 14.65 314.13 13.81 314.13"/>
      <polygon class="cls-1" points="13.81 298 13.81 311.92 14.65 311.92 14.65 298.85 26.37 298.85 26.37 311.49 17.2 311.49 17.2 301.53 24 301.53 24 308.74 19.81 308.74 19.81 304.29 21.59 304.29 21.59 305.89 22.43 305.89 22.43 303.44 18.98 303.44 18.98 309.59 24.84 309.59 24.84 300.68 16.36 300.68 16.36 312.34 27.21 312.34 27.21 298 13.81 298"/>
    </g>
    <g>
      <polygon class="cls-1" points="13.81 282.56 13.81 296.47 27.21 296.47 27.21 282.13 16.36 282.13 16.36 293.79 24.84 293.79 24.84 284.88 18.98 284.88 18.98 291.03 22.43 291.03 22.43 288.59 21.59 288.59 21.59 290.18 19.81 290.18 19.81 285.73 24 285.73 24 292.94 17.2 292.94 17.2 282.98 26.37 282.98 26.37 295.62 14.65 295.62 14.65 282.56 13.81 282.56"/>
      <polygon class="cls-1" points="13.81 266.43 13.81 280.35 14.65 280.35 14.65 267.28 26.37 267.28 26.37 279.92 17.2 279.92 17.2 269.96 24 269.96 24 277.17 19.81 277.17 19.81 272.72 21.59 272.72 21.59 274.32 22.43 274.32 22.43 271.87 18.98 271.87 18.98 278.02 24.84 278.02 24.84 269.11 16.36 269.11 16.36 280.77 27.21 280.77 27.21 266.43 13.81 266.43"/>
    </g>
    <g>
      <polygon class="cls-1" points="13.81 250.98 13.81 264.9 27.21 264.9 27.21 250.56 16.36 250.56 16.36 262.22 24.84 262.22 24.84 253.31 18.98 253.31 18.98 259.46 22.43 259.46 22.43 257.01 21.59 257.01 21.59 258.61 19.81 258.61 19.81 254.16 24 254.16 24 261.37 17.2 261.37 17.2 251.41 26.37 251.41 26.37 264.05 14.65 264.05 14.65 250.98 13.81 250.98"/>
      <polygon class="cls-1" points="13.81 234.86 13.81 248.78 14.65 248.78 14.65 235.71 26.37 235.71 26.37 248.35 17.2 248.35 17.2 238.39 24 238.39 24 245.6 19.81 245.6 19.81 241.15 21.59 241.15 21.59 242.75 22.43 242.75 22.43 240.3 18.98 240.3 18.98 246.45 24.84 246.45 24.84 237.54 16.36 237.54 16.36 249.2 27.21 249.2 27.21 234.86 13.81 234.86"/>
    </g>
    <g>
      <polygon class="cls-1" points="13.81 219.41 13.81 233.33 27.21 233.33 27.21 218.99 16.36 218.99 16.36 230.65 24.84 230.65 24.84 221.74 18.98 221.74 18.98 227.89 22.43 227.89 22.43 225.44 21.59 225.44 21.59 227.04 19.81 227.04 19.81 222.59 24 222.59 24 229.8 17.2 229.8 17.2 219.84 26.37 219.84 26.37 232.48 14.65 232.48 14.65 219.41 13.81 219.41"/>
      <polygon class="cls-1" points="13.81 203.29 13.81 217.2 14.65 217.2 14.65 204.14 26.37 204.14 26.37 216.78 17.2 216.78 17.2 206.82 24 206.82 24 214.03 19.81 214.03 19.81 209.57 21.59 209.57 21.59 211.17 22.43 211.17 22.43 208.73 18.98 208.73 18.98 214.88 24.84 214.88 24.84 205.97 16.36 205.97 16.36 217.63 27.21 217.63 27.21 203.29 13.81 203.29"/>
    </g>
    <g>
      <polygon class="cls-1" points="13.81 187.84 13.81 201.75 27.21 201.75 27.21 187.42 16.36 187.42 16.36 199.08 24.84 199.08 24.84 190.17 18.98 190.17 18.98 196.32 22.43 196.32 22.43 193.87 21.59 193.87 21.59 195.47 19.81 195.47 19.81 191.02 24 191.02 24 198.23 17.2 198.23 17.2 188.27 26.37 188.27 26.37 200.91 14.65 200.91 14.65 187.84 13.81 187.84"/>
      <polygon class="cls-1" points="13.81 171.72 13.81 185.63 14.65 185.63 14.65 172.57 26.37 172.57 26.37 185.21 17.2 185.21 17.2 175.24 24 175.24 24 182.46 19.81 182.46 19.81 178 21.59 178 21.59 179.6 22.43 179.6 22.43 177.15 18.98 177.15 18.98 183.3 24.84 183.3 24.84 174.4 16.36 174.4 16.36 186.06 27.21 186.06 27.21 171.72 13.81 171.72"/>
    </g>
    <g>
      <polygon class="cls-1" points="13.81 156.27 13.81 170.18 27.21 170.18 27.21 155.84 16.36 155.84 16.36 167.5 24.84 167.5 24.84 158.6 18.98 158.6 18.98 164.75 22.43 164.75 22.43 162.3 21.59 162.3 21.59 163.9 19.81 163.9 19.81 159.44 24 159.44 24 166.66 17.2 166.66 17.2 156.69 26.37 156.69 26.37 169.33 14.65 169.33 14.65 156.27 13.81 156.27"/>
      <polygon class="cls-1" points="13.81 140.15 13.81 154.06 14.65 154.06 14.65 141 26.37 141 26.37 153.64 17.2 153.64 17.2 143.67 24 143.67 24 150.88 19.81 150.88 19.81 146.43 21.59 146.43 21.59 148.03 22.43 148.03 22.43 145.58 18.98 145.58 18.98 151.73 24.84 151.73 24.84 142.82 16.36 142.82 16.36 154.48 27.21 154.48 27.21 140.15 13.81 140.15"/>
    </g>
    <g>
      <polygon class="cls-1" points="13.81 124.7 13.81 138.61 27.21 138.61 27.21 124.27 16.36 124.27 16.36 135.93 24.84 135.93 24.84 127.02 18.98 127.02 18.98 133.17 22.43 133.17 22.43 130.73 21.59 130.73 21.59 132.33 19.81 132.33 19.81 127.87 24 127.87 24 135.08 17.2 135.08 17.2 125.12 26.37 125.12 26.37 137.76 14.65 137.76 14.65 124.7 13.81 124.7"/>
      <polygon class="cls-1" points="13.81 108.57 13.81 122.49 14.65 122.49 14.65 109.42 26.37 109.42 26.37 122.06 17.2 122.06 17.2 112.1 24 112.1 24 119.31 19.81 119.31 19.81 114.86 21.59 114.86 21.59 116.46 22.43 116.46 22.43 114.01 18.98 114.01 18.98 120.16 24.84 120.16 24.84 111.25 16.36 111.25 16.36 122.91 27.21 122.91 27.21 108.57 13.81 108.57"/>
    </g>
    <g>
      <polygon class="cls-1" points="13.81 93.13 13.81 107.04 27.21 107.04 27.21 92.7 16.36 92.7 16.36 104.36 24.84 104.36 24.84 95.45 18.98 95.45 18.98 101.6 22.43 101.6 22.43 99.16 21.59 99.16 21.59 100.75 19.81 100.75 19.81 96.3 24 96.3 24 103.51 17.2 103.51 17.2 93.55 26.37 93.55 26.37 106.19 14.65 106.19 14.65 93.13 13.81 93.13"/>
      <polygon class="cls-1" points="13.81 77 13.81 90.92 14.65 90.92 14.65 77.85 26.37 77.85 26.37 90.49 17.2 90.49 17.2 80.53 24 80.53 24 87.74 19.81 87.74 19.81 83.29 21.59 83.29 21.59 84.89 22.43 84.89 22.43 82.44 18.98 82.44 18.98 88.59 24.84 88.59 24.84 79.68 16.36 79.68 16.36 91.34 27.21 91.34 27.21 77 13.81 77"/>
    </g>
    <g>
      <polygon class="cls-1" points="13.81 61.55 13.81 75.47 27.21 75.47 27.21 61.13 16.36 61.13 16.36 72.79 24.84 72.79 24.84 63.88 18.98 63.88 18.98 70.03 22.43 70.03 22.43 67.58 21.59 67.58 21.59 69.18 19.81 69.18 19.81 64.73 24 64.73 24 71.94 17.2 71.94 17.2 61.98 26.37 61.98 26.37 74.62 14.65 74.62 14.65 61.55 13.81 61.55"/>
      <polygon class="cls-1" points="13.81 45.43 13.81 59.34 14.65 59.34 14.65 46.28 26.37 46.28 26.37 58.92 17.2 58.92 17.2 48.96 24 48.96 24 56.17 19.81 56.17 19.81 51.72 21.59 51.72 21.59 53.32 22.43 53.32 22.43 50.87 18.98 50.87 18.98 57.02 24.84 57.02 24.84 48.11 16.36 48.11 16.36 59.77 27.21 59.77 27.21 45.43 13.81 45.43"/>
    </g>
    <g>
      <polygon class="cls-1" points="13.81 29.98 13.81 43.9 27.21 43.9 27.21 29.56 16.36 29.56 16.36 41.22 24.84 41.22 24.84 32.31 18.98 32.31 18.98 38.46 22.43 38.46 22.43 36.01 21.59 36.01 21.59 37.61 19.81 37.61 19.81 33.16 24 33.16 24 40.37 17.2 40.37 17.2 30.41 26.37 30.41 26.37 43.05 14.65 43.05 14.65 29.98 13.81 29.98"/>
      <polygon class="cls-1" points="13.81 13.86 13.81 27.77 14.65 27.77 14.65 14.71 26.37 14.71 26.37 27.35 17.2 27.35 17.2 17.39 24 17.39 24 24.6 19.81 24.6 19.81 20.14 21.59 20.14 21.59 21.74 22.43 21.74 22.43 19.3 18.98 19.3 18.98 25.45 24.84 25.45 24.84 16.54 16.36 16.54 16.36 28.2 27.21 28.2 27.21 13.86 13.81 13.86"/>
    </g>
  </g>
  <g>
    <g>
      <polygon class="cls-1" points="814.85 471.99 814.85 485.9 828.25 485.9 828.25 471.56 817.4 471.56 817.4 483.22 825.87 483.22 825.87 474.31 820.01 474.31 820.01 480.46 823.47 480.46 823.47 478.02 822.63 478.02 822.63 479.61 820.85 479.61 820.85 475.16 825.04 475.16 825.04 482.37 818.23 482.37 818.23 472.41 827.41 472.41 827.41 485.05 815.69 485.05 815.69 471.99 814.85 471.99"/>
      <polygon class="cls-1" points="814.85 455.86 814.85 469.78 815.69 469.78 815.69 456.71 827.41 456.71 827.41 469.35 818.23 469.35 818.23 459.39 825.04 459.39 825.04 466.6 820.85 466.6 820.85 462.15 822.63 462.15 822.63 463.75 823.47 463.75 823.47 461.3 820.01 461.3 820.01 467.45 825.87 467.45 825.87 458.54 817.4 458.54 817.4 470.2 828.25 470.2 828.25 455.86 814.85 455.86"/>
    </g>
    <g>
      <polygon class="cls-1" points="814.85 440.41 814.85 454.33 828.25 454.33 828.25 439.99 817.4 439.99 817.4 451.65 825.87 451.65 825.87 442.74 820.01 442.74 820.01 448.89 823.47 448.89 823.47 446.44 822.63 446.44 822.63 448.04 820.85 448.04 820.85 443.59 825.04 443.59 825.04 450.8 818.23 450.8 818.23 440.84 827.41 440.84 827.41 453.48 815.69 453.48 815.69 440.41 814.85 440.41"/>
      <polygon class="cls-1" points="814.85 424.29 814.85 438.21 815.69 438.21 815.69 425.14 827.41 425.14 827.41 437.78 818.23 437.78 818.23 427.82 825.04 427.82 825.04 435.03 820.85 435.03 820.85 430.58 822.63 430.58 822.63 432.18 823.47 432.18 823.47 429.73 820.01 429.73 820.01 435.88 825.87 435.88 825.87 426.97 817.4 426.97 817.4 438.63 828.25 438.63 828.25 424.29 814.85 424.29"/>
    </g>
    <g>
      <polygon class="cls-1" points="814.85 408.84 814.85 422.76 828.25 422.76 828.25 408.42 817.4 408.42 817.4 420.08 825.87 420.08 825.87 411.17 820.01 411.17 820.01 417.32 823.47 417.32 823.47 414.87 822.63 414.87 822.63 416.47 820.85 416.47 820.85 412.02 825.04 412.02 825.04 419.23 818.23 419.23 818.23 409.27 827.41 409.27 827.41 421.91 815.69 421.91 815.69 408.84 814.85 408.84"/>
      <polygon class="cls-1" points="814.85 392.72 814.85 406.63 815.69 406.63 815.69 393.57 827.41 393.57 827.41 406.21 818.23 406.21 818.23 396.25 825.04 396.25 825.04 403.46 820.85 403.46 820.85 399 822.63 399 822.63 400.6 823.47 400.6 823.47 398.16 820.01 398.16 820.01 404.31 825.87 404.31 825.87 395.4 817.4 395.4 817.4 407.06 828.25 407.06 828.25 392.72 814.85 392.72"/>
    </g>
    <g>
      <polygon class="cls-1" points="814.85 566.7 814.85 580.61 828.25 580.61 828.25 566.28 817.4 566.28 817.4 577.94 825.87 577.94 825.87 569.03 820.01 569.03 820.01 575.18 823.47 575.18 823.47 572.73 822.63 572.73 822.63 574.33 820.85 574.33 820.85 569.88 825.04 569.88 825.04 577.09 818.23 577.09 818.23 567.13 827.41 567.13 827.41 579.77 815.69 579.77 815.69 566.7 814.85 566.7"/>
      <polygon class="cls-1" points="814.85 550.58 814.85 564.49 815.69 564.49 815.69 551.43 827.41 551.43 827.41 564.07 818.23 564.07 818.23 554.1 825.04 554.1 825.04 561.32 820.85 561.32 820.85 556.86 822.63 556.86 822.63 558.46 823.47 558.46 823.47 556.01 820.01 556.01 820.01 562.16 825.87 562.16 825.87 553.26 817.4 553.26 817.4 564.92 828.25 564.92 828.25 550.58 814.85 550.58"/>
    </g>
    <g>
      <polygon class="cls-1" points="814.85 535.13 814.85 549.04 828.25 549.04 828.25 534.71 817.4 534.71 817.4 546.36 825.87 546.36 825.87 537.46 820.01 537.46 820.01 543.61 823.47 543.61 823.47 541.16 822.63 541.16 822.63 542.76 820.85 542.76 820.85 538.3 825.04 538.3 825.04 545.52 818.23 545.52 818.23 535.55 827.41 535.55 827.41 548.19 815.69 548.19 815.69 535.13 814.85 535.13"/>
      <polygon class="cls-1" points="814.85 519.01 814.85 532.92 815.69 532.92 815.69 519.86 827.41 519.86 827.41 532.5 818.23 532.5 818.23 522.53 825.04 522.53 825.04 529.74 820.85 529.74 820.85 525.29 822.63 525.29 822.63 526.89 823.47 526.89 823.47 524.44 820.01 524.44 820.01 530.59 825.87 530.59 825.87 521.68 817.4 521.68 817.4 533.34 828.25 533.34 828.25 519.01 814.85 519.01"/>
    </g>
    <g>
      <polygon class="cls-1" points="814.85 503.56 814.85 517.47 828.25 517.47 828.25 503.13 817.4 503.13 817.4 514.79 825.87 514.79 825.87 505.88 820.01 505.88 820.01 512.04 823.47 512.04 823.47 509.59 822.63 509.59 822.63 511.19 820.85 511.19 820.85 506.73 825.04 506.73 825.04 513.94 818.23 513.94 818.23 503.98 827.41 503.98 827.41 516.62 815.69 516.62 815.69 503.56 814.85 503.56"/>
      <polygon class="cls-1" points="814.85 487.44 814.85 501.35 815.69 501.35 815.69 488.28 827.41 488.28 827.41 500.92 818.23 500.92 818.23 490.96 825.04 490.96 825.04 498.17 820.85 498.17 820.85 493.72 822.63 493.72 822.63 495.32 823.47 495.32 823.47 492.87 820.01 492.87 820.01 499.02 825.87 499.02 825.87 490.11 817.4 490.11 817.4 501.77 828.25 501.77 828.25 487.44 814.85 487.44"/>
    </g>
    <g>
      <polygon class="cls-1" points="814.85 377.27 814.85 391.18 828.25 391.18 828.25 376.85 817.4 376.85 817.4 388.51 825.87 388.51 825.87 379.6 820.01 379.6 820.01 385.75 823.47 385.75 823.47 383.3 822.63 383.3 822.63 384.9 820.85 384.9 820.85 380.45 825.04 380.45 825.04 387.66 818.23 387.66 818.23 377.7 827.41 377.7 827.41 390.34 815.69 390.34 815.69 377.27 814.85 377.27"/>
      <polygon class="cls-1" points="814.85 361.15 814.85 375.06 815.69 375.06 815.69 362 827.41 362 827.41 374.64 818.23 374.64 818.23 364.67 825.04 364.67 825.04 371.89 820.85 371.89 820.85 367.43 822.63 367.43 822.63 369.03 823.47 369.03 823.47 366.58 820.01 366.58 820.01 372.73 825.87 372.73 825.87 363.83 817.4 363.83 817.4 375.49 828.25 375.49 828.25 361.15 814.85 361.15"/>
    </g>
    <g>
      <polygon class="cls-1" points="814.85 345.7 814.85 359.61 828.25 359.61 828.25 345.28 817.4 345.28 817.4 356.93 825.87 356.93 825.87 348.03 820.01 348.03 820.01 354.18 823.47 354.18 823.47 351.73 822.63 351.73 822.63 353.33 820.85 353.33 820.85 348.87 825.04 348.87 825.04 356.09 818.23 356.09 818.23 346.12 827.41 346.12 827.41 358.76 815.69 358.76 815.69 345.7 814.85 345.7"/>
      <polygon class="cls-1" points="814.85 329.58 814.85 343.49 815.69 343.49 815.69 330.43 827.41 330.43 827.41 343.07 818.23 343.07 818.23 333.1 825.04 333.1 825.04 340.31 820.85 340.31 820.85 335.86 822.63 335.86 822.63 337.46 823.47 337.46 823.47 335.01 820.01 335.01 820.01 341.16 825.87 341.16 825.87 332.25 817.4 332.25 817.4 343.91 828.25 343.91 828.25 329.58 814.85 329.58"/>
    </g>
    <g>
      <polygon class="cls-1" points="814.85 314.13 814.85 328.04 828.25 328.04 828.25 313.7 817.4 313.7 817.4 325.36 825.87 325.36 825.87 316.45 820.01 316.45 820.01 322.6 823.47 322.6 823.47 320.16 822.63 320.16 822.63 321.76 820.85 321.76 820.85 317.3 825.04 317.3 825.04 324.51 818.23 324.51 818.23 314.55 827.41 314.55 827.41 327.19 815.69 327.19 815.69 314.13 814.85 314.13"/>
      <polygon class="cls-1" points="814.85 298 814.85 311.92 815.69 311.92 815.69 298.85 827.41 298.85 827.41 311.49 818.23 311.49 818.23 301.53 825.04 301.53 825.04 308.74 820.85 308.74 820.85 304.29 822.63 304.29 822.63 305.89 823.47 305.89 823.47 303.44 820.01 303.44 820.01 309.59 825.87 309.59 825.87 300.68 817.4 300.68 817.4 312.34 828.25 312.34 828.25 298 814.85 298"/>
    </g>
    <g>
      <polygon class="cls-1" points="814.85 282.56 814.85 296.47 828.25 296.47 828.25 282.13 817.4 282.13 817.4 293.79 825.87 293.79 825.87 284.88 820.01 284.88 820.01 291.03 823.47 291.03 823.47 288.59 822.63 288.59 822.63 290.18 820.85 290.18 820.85 285.73 825.04 285.73 825.04 292.94 818.23 292.94 818.23 282.98 827.41 282.98 827.41 295.62 815.69 295.62 815.69 282.56 814.85 282.56"/>
      <polygon class="cls-1" points="814.85 266.43 814.85 280.35 815.69 280.35 815.69 267.28 827.41 267.28 827.41 279.92 818.23 279.92 818.23 269.96 825.04 269.96 825.04 277.17 820.85 277.17 820.85 272.72 822.63 272.72 822.63 274.32 823.47 274.32 823.47 271.87 820.01 271.87 820.01 278.02 825.87 278.02 825.87 269.11 817.4 269.11 817.4 280.77 828.25 280.77 828.25 266.43 814.85 266.43"/>
    </g>
    <g>
      <polygon class="cls-1" points="814.85 250.98 814.85 264.9 828.25 264.9 828.25 250.56 817.4 250.56 817.4 262.22 825.87 262.22 825.87 253.31 820.01 253.31 820.01 259.46 823.47 259.46 823.47 257.01 822.63 257.01 822.63 258.61 820.85 258.61 820.85 254.16 825.04 254.16 825.04 261.37 818.23 261.37 818.23 251.41 827.41 251.41 827.41 264.05 815.69 264.05 815.69 250.98 814.85 250.98"/>
      <polygon class="cls-1" points="814.85 234.86 814.85 248.78 815.69 248.78 815.69 235.71 827.41 235.71 827.41 248.35 818.23 248.35 818.23 238.39 825.04 238.39 825.04 245.6 820.85 245.6 820.85 241.15 822.63 241.15 822.63 242.75 823.47 242.75 823.47 240.3 820.01 240.3 820.01 246.45 825.87 246.45 825.87 237.54 817.4 237.54 817.4 249.2 828.25 249.2 828.25 234.86 814.85 234.86"/>
    </g>
    <g>
      <polygon class="cls-1" points="814.85 219.41 814.85 233.33 828.25 233.33 828.25 218.99 817.4 218.99 817.4 230.65 825.87 230.65 825.87 221.74 820.01 221.74 820.01 227.89 823.47 227.89 823.47 225.44 822.63 225.44 822.63 227.04 820.85 227.04 820.85 222.59 825.04 222.59 825.04 229.8 818.23 229.8 818.23 219.84 827.41 219.84 827.41 232.48 815.69 232.48 815.69 219.41 814.85 219.41"/>
      <polygon class="cls-1" points="814.85 203.29 814.85 217.2 815.69 217.2 815.69 204.14 827.41 204.14 827.41 216.78 818.23 216.78 818.23 206.82 825.04 206.82 825.04 214.03 820.85 214.03 820.85 209.57 822.63 209.57 822.63 211.17 823.47 211.17 823.47 208.73 820.01 208.73 820.01 214.88 825.87 214.88 825.87 205.97 817.4 205.97 817.4 217.63 828.25 217.63 828.25 203.29 814.85 203.29"/>
    </g>
    <g>
      <polygon class="cls-1" points="814.85 187.84 814.85 201.75 828.25 201.75 828.25 187.42 817.4 187.42 817.4 199.08 825.87 199.08 825.87 190.17 820.01 190.17 820.01 196.32 823.47 196.32 823.47 193.87 822.63 193.87 822.63 195.47 820.85 195.47 820.85 191.02 825.04 191.02 825.04 198.23 818.23 198.23 818.23 188.27 827.41 188.27 827.41 200.91 815.69 200.91 815.69 187.84 814.85 187.84"/>
      <polygon class="cls-1" points="814.85 171.72 814.85 185.63 815.69 185.63 815.69 172.57 827.41 172.57 827.41 185.21 818.23 185.21 818.23 175.24 825.04 175.24 825.04 182.46 820.85 182.46 820.85 178 822.63 178 822.63 179.6 823.47 179.6 823.47 177.15 820.01 177.15 820.01 183.3 825.87 183.3 825.87 174.4 817.4 174.4 817.4 186.06 828.25 186.06 828.25 171.72 814.85 171.72"/>
    </g>
    <g>
      <polygon class="cls-1" points="814.85 156.27 814.85 170.18 828.25 170.18 828.25 155.84 817.4 155.84 817.4 167.5 825.87 167.5 825.87 158.6 820.01 158.6 820.01 164.75 823.47 164.75 823.47 162.3 822.63 162.3 822.63 163.9 820.85 163.9 820.85 159.44 825.04 159.44 825.04 166.66 818.23 166.66 818.23 156.69 827.41 156.69 827.41 169.33 815.69 169.33 815.69 156.27 814.85 156.27"/>
      <polygon class="cls-1" points="814.85 140.15 814.85 154.06 815.69 154.06 815.69 141 827.41 141 827.41 153.64 818.23 153.64 818.23 143.67 825.04 143.67 825.04 150.88 820.85 150.88 820.85 146.43 822.63 146.43 822.63 148.03 823.47 148.03 823.47 145.58 820.01 145.58 820.01 151.73 825.87 151.73 825.87 142.82 817.4 142.82 817.4 154.48 828.25 154.48 828.25 140.15 814.85 140.15"/>
    </g>
    <g>
      <polygon class="cls-1" points="814.85 124.7 814.85 138.61 828.25 138.61 828.25 124.27 817.4 124.27 817.4 135.93 825.87 135.93 825.87 127.02 820.01 127.02 820.01 133.17 823.47 133.17 823.47 130.73 822.63 130.73 822.63 132.33 820.85 132.33 820.85 127.87 825.04 127.87 825.04 135.08 818.23 135.08 818.23 125.12 827.41 125.12 827.41 137.76 815.69 137.76 815.69 124.7 814.85 124.7"/>
      <polygon class="cls-1" points="814.85 108.57 814.85 122.49 815.69 122.49 815.69 109.42 827.41 109.42 827.41 122.06 818.23 122.06 818.23 112.1 825.04 112.1 825.04 119.31 820.85 119.31 820.85 114.86 822.63 114.86 822.63 116.46 823.47 116.46 823.47 114.01 820.01 114.01 820.01 120.16 825.87 120.16 825.87 111.25 817.4 111.25 817.4 122.91 828.25 122.91 828.25 108.57 814.85 108.57"/>
    </g>
    <g>
      <polygon class="cls-1" points="814.85 93.13 814.85 107.04 828.25 107.04 828.25 92.7 817.4 92.7 817.4 104.36 825.87 104.36 825.87 95.45 820.01 95.45 820.01 101.6 823.47 101.6 823.47 99.16 822.63 99.16 822.63 100.75 820.85 100.75 820.85 96.3 825.04 96.3 825.04 103.51 818.23 103.51 818.23 93.55 827.41 93.55 827.41 106.19 815.69 106.19 815.69 93.13 814.85 93.13"/>
      <polygon class="cls-1" points="814.85 77 814.85 90.92 815.69 90.92 815.69 77.85 827.41 77.85 827.41 90.49 818.23 90.49 818.23 80.53 825.04 80.53 825.04 87.74 820.85 87.74 820.85 83.29 822.63 83.29 822.63 84.89 823.47 84.89 823.47 82.44 820.01 82.44 820.01 88.59 825.87 88.59 825.87 79.68 817.4 79.68 817.4 91.34 828.25 91.34 828.25 77 814.85 77"/>
    </g>
    <g>
      <polygon class="cls-1" points="814.85 61.55 814.85 75.47 828.25 75.47 828.25 61.13 817.4 61.13 817.4 72.79 825.87 72.79 825.87 63.88 820.01 63.88 820.01 70.03 823.47 70.03 823.47 67.58 822.63 67.58 822.63 69.18 820.85 69.18 820.85 64.73 825.04 64.73 825.04 71.94 818.23 71.94 818.23 61.98 827.41 61.98 827.41 74.62 815.69 74.62 815.69 61.55 814.85 61.55"/>
      <polygon class="cls-1" points="814.85 45.43 814.85 59.34 815.69 59.34 815.69 46.28 827.41 46.28 827.41 58.92 818.23 58.92 818.23 48.96 825.04 48.96 825.04 56.17 820.85 56.17 820.85 51.72 822.63 51.72 822.63 53.32 823.47 53.32 823.47 50.87 820.01 50.87 820.01 57.02 825.87 57.02 825.87 48.11 817.4 48.11 817.4 59.77 828.25 59.77 828.25 45.43 814.85 45.43"/>
    </g>
    <g>
      <polygon class="cls-1" points="814.85 29.98 814.85 43.9 828.25 43.9 828.25 29.56 817.4 29.56 817.4 41.22 825.87 41.22 825.87 32.31 820.01 32.31 820.01 38.46 823.47 38.46 823.47 36.01 822.63 36.01 822.63 37.61 820.85 37.61 820.85 33.16 825.04 33.16 825.04 40.37 818.23 40.37 818.23 30.41 827.41 30.41 827.41 43.05 815.69 43.05 815.69 29.98 814.85 29.98"/>
      <polygon class="cls-1" points="814.85 13.86 814.85 27.77 815.69 27.77 815.69 14.71 827.41 14.71 827.41 27.35 818.23 27.35 818.23 17.39 825.04 17.39 825.04 24.6 820.85 24.6 820.85 20.14 822.63 20.14 822.63 21.74 823.47 21.74 823.47 19.3 820.01 19.3 820.01 25.45 825.87 25.45 825.87 16.54 817.4 16.54 817.4 28.2 828.25 28.2 828.25 13.86 814.85 13.86"/>
    </g>
  </g>
  <g>
    <g>
      <polygon class="cls-1" points="485.19 28.2 499.11 28.2 499.11 13.88 484.77 13.88 484.77 25.48 496.43 25.48 496.43 16.41 487.52 16.41 487.52 22.68 493.67 22.68 493.67 18.99 491.22 18.99 491.22 19.88 492.82 19.88 492.82 21.78 488.37 21.78 488.37 17.31 495.58 17.31 495.58 24.58 485.62 24.58 485.62 14.77 498.26 14.77 498.26 27.3 485.19 27.3 485.19 28.2"/>
      <polygon class="cls-1" points="469.07 28.2 482.98 28.2 482.98 27.3 469.92 27.3 469.92 14.77 482.56 14.77 482.56 24.58 472.6 24.58 472.6 17.31 479.81 17.31 479.81 21.78 475.35 21.78 475.35 19.88 476.95 19.88 476.95 18.99 474.51 18.99 474.51 22.68 480.66 22.68 480.66 16.41 471.75 16.41 471.75 25.48 483.41 25.48 483.41 13.88 469.07 13.88 469.07 28.2"/>
    </g>
    <g>
      <polygon class="cls-1" points="453.62 28.2 467.53 28.2 467.53 13.88 453.2 13.88 453.2 25.48 464.86 25.48 464.86 16.41 455.95 16.41 455.95 22.68 462.1 22.68 462.1 18.99 459.65 18.99 459.65 19.88 461.25 19.88 461.25 21.78 456.8 21.78 456.8 17.31 464.01 17.31 464.01 24.58 454.05 24.58 454.05 14.77 466.69 14.77 466.69 27.3 453.62 27.3 453.62 28.2"/>
      <polygon class="cls-1" points="437.5 28.2 451.41 28.2 451.41 27.3 438.35 27.3 438.35 14.77 450.99 14.77 450.99 24.58 441.02 24.58 441.02 17.31 448.24 17.31 448.24 21.78 443.78 21.78 443.78 19.88 445.38 19.88 445.38 18.99 442.93 18.99 442.93 22.68 449.08 22.68 449.08 16.41 440.18 16.41 440.18 25.48 451.84 25.48 451.84 13.88 437.5 13.88 437.5 28.2"/>
    </g>
    <g>
      <polygon class="cls-1" points="422.05 28.2 435.96 28.2 435.96 13.88 421.63 13.88 421.63 25.48 433.28 25.48 433.28 16.41 424.38 16.41 424.38 22.68 430.53 22.68 430.53 18.99 428.08 18.99 428.08 19.88 429.68 19.88 429.68 21.78 425.22 21.78 425.22 17.31 432.44 17.31 432.44 24.58 422.47 24.58 422.47 14.77 435.11 14.77 435.11 27.3 422.05 27.3 422.05 28.2"/>
      <polygon class="cls-1" points="405.93 28.2 419.84 28.2 419.84 27.3 406.78 27.3 406.78 14.77 419.42 14.77 419.42 24.58 409.45 24.58 409.45 17.31 416.66 17.31 416.66 21.78 412.21 21.78 412.21 19.88 413.81 19.88 413.81 18.99 411.36 18.99 411.36 22.68 417.51 22.68 417.51 16.41 408.6 16.41 408.6 25.48 420.26 25.48 420.26 13.88 405.93 13.88 405.93 28.2"/>
    </g>
    <g>
      <polygon class="cls-1" points="579.91 28.2 593.82 28.2 593.82 13.88 579.48 13.88 579.48 25.48 591.14 25.48 591.14 16.41 582.23 16.41 582.23 22.68 588.39 22.68 588.39 18.99 585.94 18.99 585.94 19.88 587.54 19.88 587.54 21.78 583.08 21.78 583.08 17.31 590.29 17.31 590.29 24.58 580.33 24.58 580.33 14.77 592.97 14.77 592.97 27.3 579.91 27.3 579.91 28.2"/>
      <polygon class="cls-1" points="563.79 28.2 577.7 28.2 577.7 27.3 564.63 27.3 564.63 14.77 577.27 14.77 577.27 24.58 567.31 24.58 567.31 17.31 574.52 17.31 574.52 21.78 570.07 21.78 570.07 19.88 571.67 19.88 571.67 18.99 569.22 18.99 569.22 22.68 575.37 22.68 575.37 16.41 566.46 16.41 566.46 25.48 578.12 25.48 578.12 13.88 563.79 13.88 563.79 28.2"/>
    </g>
    <g>
      <polygon class="cls-1" points="548.34 28.2 562.25 28.2 562.25 13.88 547.91 13.88 547.91 25.48 559.57 25.48 559.57 16.41 550.66 16.41 550.66 22.68 556.81 22.68 556.81 18.99 554.37 18.99 554.37 19.88 555.96 19.88 555.96 21.78 551.51 21.78 551.51 17.31 558.72 17.31 558.72 24.58 548.76 24.58 548.76 14.77 561.4 14.77 561.4 27.3 548.34 27.3 548.34 28.2"/>
      <polygon class="cls-1" points="532.21 28.2 546.13 28.2 546.13 27.3 533.06 27.3 533.06 14.77 545.7 14.77 545.7 24.58 535.74 24.58 535.74 17.31 542.95 17.31 542.95 21.78 538.5 21.78 538.5 19.88 540.1 19.88 540.1 18.99 537.65 18.99 537.65 22.68 543.8 22.68 543.8 16.41 534.89 16.41 534.89 25.48 546.55 25.48 546.55 13.88 532.21 13.88 532.21 28.2"/>
    </g>
    <g>
      <polygon class="cls-1" points="516.76 28.2 530.68 28.2 530.68 13.88 516.34 13.88 516.34 25.48 528 25.48 528 16.41 519.09 16.41 519.09 22.68 525.24 22.68 525.24 18.99 522.79 18.99 522.79 19.88 524.39 19.88 524.39 21.78 519.94 21.78 519.94 17.31 527.15 17.31 527.15 24.58 517.19 24.58 517.19 14.77 529.83 14.77 529.83 27.3 516.76 27.3 516.76 28.2"/>
      <polygon class="cls-1" points="500.64 28.2 514.56 28.2 514.56 27.3 501.49 27.3 501.49 14.77 514.13 14.77 514.13 24.58 504.17 24.58 504.17 17.31 511.38 17.31 511.38 21.78 506.93 21.78 506.93 19.88 508.53 19.88 508.53 18.99 506.08 18.99 506.08 22.68 512.23 22.68 512.23 16.41 503.32 16.41 503.32 25.48 514.98 25.48 514.98 13.88 500.64 13.88 500.64 28.2"/>
    </g>
    <g>
      <polygon class="cls-1" points="390.48 28.2 404.39 28.2 404.39 13.88 390.05 13.88 390.05 25.48 401.71 25.48 401.71 16.41 392.8 16.41 392.8 22.68 398.96 22.68 398.96 18.99 396.51 18.99 396.51 19.88 398.11 19.88 398.11 21.78 393.65 21.78 393.65 17.31 400.86 17.31 400.86 24.58 390.9 24.58 390.9 14.77 403.54 14.77 403.54 27.3 390.48 27.3 390.48 28.2"/>
      <polygon class="cls-1" points="374.36 28.2 388.27 28.2 388.27 27.3 375.2 27.3 375.2 14.77 387.84 14.77 387.84 24.58 377.88 24.58 377.88 17.31 385.09 17.31 385.09 21.78 380.64 21.78 380.64 19.88 382.24 19.88 382.24 18.99 379.79 18.99 379.79 22.68 385.94 22.68 385.94 16.41 377.03 16.41 377.03 25.48 388.69 25.48 388.69 13.88 374.36 13.88 374.36 28.2"/>
    </g>
    <g>
      <polygon class="cls-1" points="358.91 28.2 372.82 28.2 372.82 13.88 358.48 13.88 358.48 25.48 370.14 25.48 370.14 16.41 361.23 16.41 361.23 22.68 367.38 22.68 367.38 18.99 364.94 18.99 364.94 19.88 366.53 19.88 366.53 21.78 362.08 21.78 362.08 17.31 369.29 17.31 369.29 24.58 359.33 24.58 359.33 14.77 371.97 14.77 371.97 27.3 358.91 27.3 358.91 28.2"/>
      <polygon class="cls-1" points="342.78 28.2 356.7 28.2 356.7 27.3 343.63 27.3 343.63 14.77 356.27 14.77 356.27 24.58 346.31 24.58 346.31 17.31 353.52 17.31 353.52 21.78 349.07 21.78 349.07 19.88 350.67 19.88 350.67 18.99 348.22 18.99 348.22 22.68 354.37 22.68 354.37 16.41 345.46 16.41 345.46 25.48 357.12 25.48 357.12 13.88 342.78 13.88 342.78 28.2"/>
    </g>
    <g>
      <polygon class="cls-1" points="737.77 28.2 751.68 28.2 751.68 13.88 737.34 13.88 737.34 25.48 749 25.48 749 16.41 740.09 16.41 740.09 22.68 746.24 22.68 746.24 18.99 743.8 18.99 743.8 19.88 745.4 19.88 745.4 21.78 740.94 21.78 740.94 17.31 748.15 17.31 748.15 24.58 738.19 24.58 738.19 14.77 750.83 14.77 750.83 27.3 737.77 27.3 737.77 28.2"/>
      <polygon class="cls-1" points="721.64 28.2 735.56 28.2 735.56 27.3 722.49 27.3 722.49 14.77 735.13 14.77 735.13 24.58 725.17 24.58 725.17 17.31 732.38 17.31 732.38 21.78 727.93 21.78 727.93 19.88 729.53 19.88 729.53 18.99 727.08 18.99 727.08 22.68 733.23 22.68 733.23 16.41 724.32 16.41 724.32 25.48 735.98 25.48 735.98 13.88 721.64 13.88 721.64 28.2"/>
    </g>
    <g>
      <polygon class="cls-1" points="706.19 28.2 720.11 28.2 720.11 13.88 705.77 13.88 705.77 25.48 717.43 25.48 717.43 16.41 708.52 16.41 708.52 22.68 714.67 22.68 714.67 18.99 712.22 18.99 712.22 19.88 713.82 19.88 713.82 21.78 709.37 21.78 709.37 17.31 716.58 17.31 716.58 24.58 706.62 24.58 706.62 14.77 719.26 14.77 719.26 27.3 706.19 27.3 706.19 28.2"/>
      <polygon class="cls-1" points="690.07 28.2 703.99 28.2 703.99 27.3 690.92 27.3 690.92 14.77 703.56 14.77 703.56 24.58 693.6 24.58 693.6 17.31 700.81 17.31 700.81 21.78 696.36 21.78 696.36 19.88 697.96 19.88 697.96 18.99 695.51 18.99 695.51 22.68 701.66 22.68 701.66 16.41 692.75 16.41 692.75 25.48 704.41 25.48 704.41 13.88 690.07 13.88 690.07 28.2"/>
    </g>
    <g>
      <polygon class="cls-1" points="674.62 28.2 688.54 28.2 688.54 13.88 674.2 13.88 674.2 25.48 685.86 25.48 685.86 16.41 676.95 16.41 676.95 22.68 683.1 22.68 683.1 18.99 680.65 18.99 680.65 19.88 682.25 19.88 682.25 21.78 677.8 21.78 677.8 17.31 685.01 17.31 685.01 24.58 675.05 24.58 675.05 14.77 687.69 14.77 687.69 27.3 674.62 27.3 674.62 28.2"/>
      <polygon class="cls-1" points="658.5 28.2 672.41 28.2 672.41 27.3 659.35 27.3 659.35 14.77 671.99 14.77 671.99 24.58 662.03 24.58 662.03 17.31 669.24 17.31 669.24 21.78 664.78 21.78 664.78 19.88 666.38 19.88 666.38 18.99 663.94 18.99 663.94 22.68 670.09 22.68 670.09 16.41 661.18 16.41 661.18 25.48 672.84 25.48 672.84 13.88 658.5 13.88 658.5 28.2"/>
    </g>
    <g>
      <polygon class="cls-1" points="800.91 28.2 814.82 28.2 814.82 13.88 800.49 13.88 800.49 25.48 812.14 25.48 812.14 16.41 803.24 16.41 803.24 22.68 809.39 22.68 809.39 18.99 806.94 18.99 806.94 19.88 808.54 19.88 808.54 21.78 804.09 21.78 804.09 17.31 811.3 17.31 811.3 24.58 801.33 24.58 801.33 14.77 813.97 14.77 813.97 27.3 800.91 27.3 800.91 28.2"/>
      <polygon class="cls-1" points="784.79 28.2 798.7 28.2 798.7 27.3 785.64 27.3 785.64 14.77 798.28 14.77 798.28 24.58 788.31 24.58 788.31 17.31 795.52 17.31 795.52 21.78 791.07 21.78 791.07 19.88 792.67 19.88 792.67 18.99 790.22 18.99 790.22 22.68 796.37 22.68 796.37 16.41 787.46 16.41 787.46 25.48 799.12 25.48 799.12 13.88 784.79 13.88 784.79 28.2"/>
    </g>
    <g>
      <polygon class="cls-1" points="769.34 28.2 783.25 28.2 783.25 13.88 768.91 13.88 768.91 25.48 780.57 25.48 780.57 16.41 771.67 16.41 771.67 22.68 777.82 22.68 777.82 18.99 775.37 18.99 775.37 19.88 776.97 19.88 776.97 21.78 772.51 21.78 772.51 17.31 779.72 17.31 779.72 24.58 769.76 24.58 769.76 14.77 782.4 14.77 782.4 27.3 769.34 27.3 769.34 28.2"/>
      <polygon class="cls-1" points="753.22 28.2 767.13 28.2 767.13 27.3 754.06 27.3 754.06 14.77 766.7 14.77 766.7 24.58 756.74 24.58 756.74 17.31 763.95 17.31 763.95 21.78 759.5 21.78 759.5 19.88 761.1 19.88 761.1 18.99 758.65 18.99 758.65 22.68 764.8 22.68 764.8 16.41 755.89 16.41 755.89 25.48 767.55 25.48 767.55 13.88 753.22 13.88 753.22 28.2"/>
    </g>
    <g>
      <polygon class="cls-1" points="643.05 28.2 656.96 28.2 656.96 13.88 642.63 13.88 642.63 25.48 654.29 25.48 654.29 16.41 645.38 16.41 645.38 22.68 651.53 22.68 651.53 18.99 649.08 18.99 649.08 19.88 650.68 19.88 650.68 21.78 646.23 21.78 646.23 17.31 653.44 17.31 653.44 24.58 643.48 24.58 643.48 14.77 656.12 14.77 656.12 27.3 643.05 27.3 643.05 28.2"/>
      <polygon class="cls-1" points="626.93 28.2 640.84 28.2 640.84 27.3 627.78 27.3 627.78 14.77 640.42 14.77 640.42 24.58 630.45 24.58 630.45 17.31 637.67 17.31 637.67 21.78 633.21 21.78 633.21 19.88 634.81 19.88 634.81 18.99 632.36 18.99 632.36 22.68 638.51 22.68 638.51 16.41 629.61 16.41 629.61 25.48 641.27 25.48 641.27 13.88 626.93 13.88 626.93 28.2"/>
    </g>
    <g>
      <polygon class="cls-1" points="611.48 28.2 625.39 28.2 625.39 13.88 611.06 13.88 611.06 25.48 622.71 25.48 622.71 16.41 613.81 16.41 613.81 22.68 619.96 22.68 619.96 18.99 617.51 18.99 617.51 19.88 619.11 19.88 619.11 21.78 614.66 21.78 614.66 17.31 621.87 17.31 621.87 24.58 611.9 24.58 611.9 14.77 624.54 14.77 624.54 27.3 611.48 27.3 611.48 28.2"/>
      <polygon class="cls-1" points="595.36 28.2 609.27 28.2 609.27 27.3 596.21 27.3 596.21 14.77 608.85 14.77 608.85 24.58 598.88 24.58 598.88 17.31 606.09 17.31 606.09 21.78 601.64 21.78 601.64 19.88 603.24 19.88 603.24 18.99 600.79 18.99 600.79 22.68 606.94 22.68 606.94 16.41 598.03 16.41 598.03 25.48 609.69 25.48 609.69 13.88 595.36 13.88 595.36 28.2"/>
    </g>
    <g>
      <polygon class="cls-1" points="327.33 28.2 341.25 28.2 341.25 13.88 326.91 13.88 326.91 25.48 338.57 25.48 338.57 16.41 329.66 16.41 329.66 22.68 335.81 22.68 335.81 18.99 333.36 18.99 333.36 19.88 334.96 19.88 334.96 21.78 330.51 21.78 330.51 17.31 337.72 17.31 337.72 24.58 327.76 24.58 327.76 14.77 340.4 14.77 340.4 27.3 327.33 27.3 327.33 28.2"/>
      <polygon class="cls-1" points="311.21 28.2 325.13 28.2 325.13 27.3 312.06 27.3 312.06 14.77 324.7 14.77 324.7 24.58 314.74 24.58 314.74 17.31 321.95 17.31 321.95 21.78 317.5 21.78 317.5 19.88 319.1 19.88 319.1 18.99 316.65 18.99 316.65 22.68 322.8 22.68 322.8 16.41 313.89 16.41 313.89 25.48 325.55 25.48 325.55 13.88 311.21 13.88 311.21 28.2"/>
    </g>
    <g>
      <polygon class="cls-1" points="295.76 28.2 309.68 28.2 309.68 13.88 295.34 13.88 295.34 25.48 307 25.48 307 16.41 298.09 16.41 298.09 22.68 304.24 22.68 304.24 18.99 301.79 18.99 301.79 19.88 303.39 19.88 303.39 21.78 298.94 21.78 298.94 17.31 306.15 17.31 306.15 24.58 296.19 24.58 296.19 14.77 308.83 14.77 308.83 27.3 295.76 27.3 295.76 28.2"/>
      <polygon class="cls-1" points="279.64 28.2 293.55 28.2 293.55 27.3 280.49 27.3 280.49 14.77 293.13 14.77 293.13 24.58 283.17 24.58 283.17 17.31 290.38 17.31 290.38 21.78 285.92 21.78 285.92 19.88 287.52 19.88 287.52 18.99 285.08 18.99 285.08 22.68 291.23 22.68 291.23 16.41 282.32 16.41 282.32 25.48 293.98 25.48 293.98 13.88 279.64 13.88 279.64 28.2"/>
    </g>
    <g>
      <polygon class="cls-1" points="264.19 28.2 278.1 28.2 278.1 13.88 263.77 13.88 263.77 25.48 275.43 25.48 275.43 16.41 266.52 16.41 266.52 22.68 272.67 22.68 272.67 18.99 270.22 18.99 270.22 19.88 271.82 19.88 271.82 21.78 267.37 21.78 267.37 17.31 274.58 17.31 274.58 24.58 264.62 24.58 264.62 14.77 277.26 14.77 277.26 27.3 264.19 27.3 264.19 28.2"/>
      <polygon class="cls-1" points="248.07 28.2 261.98 28.2 261.98 27.3 248.92 27.3 248.92 14.77 261.56 14.77 261.56 24.58 251.59 24.58 251.59 17.31 258.81 17.31 258.81 21.78 254.35 21.78 254.35 19.88 255.95 19.88 255.95 18.99 253.5 18.99 253.5 22.68 259.65 22.68 259.65 16.41 250.75 16.41 250.75 25.48 262.41 25.48 262.41 13.88 248.07 13.88 248.07 28.2"/>
    </g>
    <g>
      <polygon class="cls-1" points="232.62 28.2 246.53 28.2 246.53 13.88 232.2 13.88 232.2 25.48 243.85 25.48 243.85 16.41 234.95 16.41 234.95 22.68 241.1 22.68 241.1 18.99 238.65 18.99 238.65 19.88 240.25 19.88 240.25 21.78 235.79 21.78 235.79 17.31 243.01 17.31 243.01 24.58 233.04 24.58 233.04 14.77 245.68 14.77 245.68 27.3 232.62 27.3 232.62 28.2"/>
      <polygon class="cls-1" points="216.5 28.2 230.41 28.2 230.41 27.3 217.35 27.3 217.35 14.77 229.99 14.77 229.99 24.58 220.02 24.58 220.02 17.31 227.23 17.31 227.23 21.78 222.78 21.78 222.78 19.88 224.38 19.88 224.38 18.99 221.93 18.99 221.93 22.68 228.08 22.68 228.08 16.41 219.17 16.41 219.17 25.48 230.83 25.48 230.83 13.88 216.5 13.88 216.5 28.2"/>
    </g>
    <g>
      <polygon class="cls-1" points="201.05 28.2 214.96 28.2 214.96 13.88 200.62 13.88 200.62 25.48 212.28 25.48 212.28 16.41 203.37 16.41 203.37 22.68 209.52 22.68 209.52 18.99 207.08 18.99 207.08 19.88 208.68 19.88 208.68 21.78 204.22 21.78 204.22 17.31 211.43 17.31 211.43 24.58 201.47 24.58 201.47 14.77 214.11 14.77 214.11 27.3 201.05 27.3 201.05 28.2"/>
      <polygon class="cls-1" points="184.93 28.2 198.84 28.2 198.84 27.3 185.77 27.3 185.77 14.77 198.41 14.77 198.41 24.58 188.45 24.58 188.45 17.31 195.66 17.31 195.66 21.78 191.21 21.78 191.21 19.88 192.81 19.88 192.81 18.99 190.36 18.99 190.36 22.68 196.51 22.68 196.51 16.41 187.6 16.41 187.6 25.48 199.26 25.48 199.26 13.88 184.93 13.88 184.93 28.2"/>
    </g>
    <g>
      <polygon class="cls-1" points="169.48 28.2 183.39 28.2 183.39 13.88 169.05 13.88 169.05 25.48 180.71 25.48 180.71 16.41 171.8 16.41 171.8 22.68 177.95 22.68 177.95 18.99 175.51 18.99 175.51 19.88 177.1 19.88 177.1 21.78 172.65 21.78 172.65 17.31 179.86 17.31 179.86 24.58 169.9 24.58 169.9 14.77 182.54 14.77 182.54 27.3 169.48 27.3 169.48 28.2"/>
      <polygon class="cls-1" points="153.35 28.2 167.27 28.2 167.27 27.3 154.2 27.3 154.2 14.77 166.84 14.77 166.84 24.58 156.88 24.58 156.88 17.31 164.09 17.31 164.09 21.78 159.64 21.78 159.64 19.88 161.24 19.88 161.24 18.99 158.79 18.99 158.79 22.68 164.94 22.68 164.94 16.41 156.03 16.41 156.03 25.48 167.69 25.48 167.69 13.88 153.35 13.88 153.35 28.2"/>
    </g>
    <g>
      <polygon class="cls-1" points="137.9 28.2 151.82 28.2 151.82 13.88 137.48 13.88 137.48 25.48 149.14 25.48 149.14 16.41 140.23 16.41 140.23 22.68 146.38 22.68 146.38 18.99 143.93 18.99 143.93 19.88 145.53 19.88 145.53 21.78 141.08 21.78 141.08 17.31 148.29 17.31 148.29 24.58 138.33 24.58 138.33 14.77 150.97 14.77 150.97 27.3 137.9 27.3 137.9 28.2"/>
      <polygon class="cls-1" points="121.78 28.2 135.7 28.2 135.7 27.3 122.63 27.3 122.63 14.77 135.27 14.77 135.27 24.58 125.31 24.58 125.31 17.31 132.52 17.31 132.52 21.78 128.07 21.78 128.07 19.88 129.67 19.88 129.67 18.99 127.22 18.99 127.22 22.68 133.37 22.68 133.37 16.41 124.46 16.41 124.46 25.48 136.12 25.48 136.12 13.88 121.78 13.88 121.78 28.2"/>
    </g>
    <g>
      <polygon class="cls-1" points="106.33 28.2 120.25 28.2 120.25 13.88 105.91 13.88 105.91 25.48 117.57 25.48 117.57 16.41 108.66 16.41 108.66 22.68 114.81 22.68 114.81 18.99 112.36 18.99 112.36 19.88 113.96 19.88 113.96 21.78 109.51 21.78 109.51 17.31 116.72 17.31 116.72 24.58 106.76 24.58 106.76 14.77 119.4 14.77 119.4 27.3 106.33 27.3 106.33 28.2"/>
      <polygon class="cls-1" points="90.21 28.2 104.12 28.2 104.12 27.3 91.06 27.3 91.06 14.77 103.7 14.77 103.7 24.58 93.74 24.58 93.74 17.31 100.95 17.31 100.95 21.78 96.49 21.78 96.49 19.88 98.09 19.88 98.09 18.99 95.65 18.99 95.65 22.68 101.8 22.68 101.8 16.41 92.89 16.41 92.89 25.48 104.55 25.48 104.55 13.88 90.21 13.88 90.21 28.2"/>
    </g>
    <g>
      <polygon class="cls-1" points="74.76 28.2 88.67 28.2 88.67 13.88 74.34 13.88 74.34 25.48 86 25.48 86 16.41 77.09 16.41 77.09 22.68 83.24 22.68 83.24 18.99 80.79 18.99 80.79 19.88 82.39 19.88 82.39 21.78 77.94 21.78 77.94 17.31 85.15 17.31 85.15 24.58 75.19 24.58 75.19 14.77 87.83 14.77 87.83 27.3 74.76 27.3 74.76 28.2"/>
      <polygon class="cls-1" points="58.64 28.2 72.55 28.2 72.55 27.3 59.49 27.3 59.49 14.77 72.13 14.77 72.13 24.58 62.16 24.58 62.16 17.31 69.38 17.31 69.38 21.78 64.92 21.78 64.92 19.88 66.52 19.88 66.52 18.99 64.07 18.99 64.07 22.68 70.22 22.68 70.22 16.41 61.32 16.41 61.32 25.48 72.98 25.48 72.98 13.88 58.64 13.88 58.64 28.2"/>
    </g>
    <g>
      <polygon class="cls-1" points="43.19 28.2 57.1 28.2 57.1 13.88 42.76 13.88 42.76 25.48 54.42 25.48 54.42 16.41 45.52 16.41 45.52 22.68 51.67 22.68 51.67 18.99 49.22 18.99 49.22 19.88 50.82 19.88 50.82 21.78 46.36 21.78 46.36 17.31 53.58 17.31 53.58 24.58 43.61 24.58 43.61 14.77 56.25 14.77 56.25 27.3 43.19 27.3 43.19 28.2"/>
      <polygon class="cls-1" points="27.07 28.2 40.98 28.2 40.98 27.3 27.92 27.3 27.92 14.77 40.56 14.77 40.56 24.58 30.59 24.58 30.59 17.31 37.8 17.31 37.8 21.78 33.35 21.78 33.35 19.88 34.95 19.88 34.95 18.99 32.5 18.99 32.5 22.68 38.65 22.68 38.65 16.41 29.74 16.41 29.74 25.48 41.4 25.48 41.4 13.88 27.07 13.88 27.07 28.2"/>
    </g>
  </g>
  <g>
    <g>
      <polygon class="cls-1" points="485.19 580.61 499.11 580.61 499.11 566.28 484.77 566.28 484.77 577.89 496.43 577.89 496.43 568.82 487.52 568.82 487.52 575.09 493.67 575.09 493.67 571.39 491.22 571.39 491.22 572.29 492.82 572.29 492.82 574.19 488.37 574.19 488.37 569.71 495.58 569.71 495.58 576.99 485.62 576.99 485.62 567.17 498.26 567.17 498.26 579.72 485.19 579.72 485.19 580.61"/>
      <polygon class="cls-1" points="469.07 580.61 482.98 580.61 482.98 579.72 469.92 579.72 469.92 567.17 482.56 567.17 482.56 576.99 472.6 576.99 472.6 569.71 479.81 569.71 479.81 574.19 475.35 574.19 475.35 572.29 476.95 572.29 476.95 571.39 474.51 571.39 474.51 575.09 480.66 575.09 480.66 568.82 471.75 568.82 471.75 577.89 483.41 577.89 483.41 566.28 469.07 566.28 469.07 580.61"/>
    </g>
    <g>
      <polygon class="cls-1" points="453.62 580.61 467.53 580.61 467.53 566.28 453.2 566.28 453.2 577.89 464.86 577.89 464.86 568.82 455.95 568.82 455.95 575.09 462.1 575.09 462.1 571.39 459.65 571.39 459.65 572.29 461.25 572.29 461.25 574.19 456.8 574.19 456.8 569.71 464.01 569.71 464.01 576.99 454.05 576.99 454.05 567.17 466.69 567.17 466.69 579.72 453.62 579.72 453.62 580.61"/>
      <polygon class="cls-1" points="437.5 580.61 451.41 580.61 451.41 579.72 438.35 579.72 438.35 567.17 450.99 567.17 450.99 576.99 441.02 576.99 441.02 569.71 448.24 569.71 448.24 574.19 443.78 574.19 443.78 572.29 445.38 572.29 445.38 571.39 442.93 571.39 442.93 575.09 449.08 575.09 449.08 568.82 440.18 568.82 440.18 577.89 451.84 577.89 451.84 566.28 437.5 566.28 437.5 580.61"/>
    </g>
    <g>
      <polygon class="cls-1" points="422.05 580.61 435.96 580.61 435.96 566.28 421.63 566.28 421.63 577.89 433.28 577.89 433.28 568.82 424.38 568.82 424.38 575.09 430.53 575.09 430.53 571.39 428.08 571.39 428.08 572.29 429.68 572.29 429.68 574.19 425.22 574.19 425.22 569.71 432.44 569.71 432.44 576.99 422.47 576.99 422.47 567.17 435.11 567.17 435.11 579.72 422.05 579.72 422.05 580.61"/>
      <polygon class="cls-1" points="405.93 580.61 419.84 580.61 419.84 579.72 406.78 579.72 406.78 567.17 419.42 567.17 419.42 576.99 409.45 576.99 409.45 569.71 416.66 569.71 416.66 574.19 412.21 574.19 412.21 572.29 413.81 572.29 413.81 571.39 411.36 571.39 411.36 575.09 417.51 575.09 417.51 568.82 408.6 568.82 408.6 577.89 420.26 577.89 420.26 566.28 405.93 566.28 405.93 580.61"/>
    </g>
    <g>
      <polygon class="cls-1" points="579.91 580.61 593.82 580.61 593.82 566.28 579.48 566.28 579.48 577.89 591.14 577.89 591.14 568.82 582.23 568.82 582.23 575.09 588.39 575.09 588.39 571.39 585.94 571.39 585.94 572.29 587.54 572.29 587.54 574.19 583.08 574.19 583.08 569.71 590.29 569.71 590.29 576.99 580.33 576.99 580.33 567.17 592.97 567.17 592.97 579.72 579.91 579.72 579.91 580.61"/>
      <polygon class="cls-1" points="563.79 580.61 577.7 580.61 577.7 579.72 564.63 579.72 564.63 567.17 577.27 567.17 577.27 576.99 567.31 576.99 567.31 569.71 574.52 569.71 574.52 574.19 570.07 574.19 570.07 572.29 571.67 572.29 571.67 571.39 569.22 571.39 569.22 575.09 575.37 575.09 575.37 568.82 566.46 568.82 566.46 577.89 578.12 577.89 578.12 566.28 563.79 566.28 563.79 580.61"/>
    </g>
    <g>
      <polygon class="cls-1" points="548.34 580.61 562.25 580.61 562.25 566.28 547.91 566.28 547.91 577.89 559.57 577.89 559.57 568.82 550.66 568.82 550.66 575.09 556.81 575.09 556.81 571.39 554.37 571.39 554.37 572.29 555.96 572.29 555.96 574.19 551.51 574.19 551.51 569.71 558.72 569.71 558.72 576.99 548.76 576.99 548.76 567.17 561.4 567.17 561.4 579.72 548.34 579.72 548.34 580.61"/>
      <polygon class="cls-1" points="532.21 580.61 546.13 580.61 546.13 579.72 533.06 579.72 533.06 567.17 545.7 567.17 545.7 576.99 535.74 576.99 535.74 569.71 542.95 569.71 542.95 574.19 538.5 574.19 538.5 572.29 540.1 572.29 540.1 571.39 537.65 571.39 537.65 575.09 543.8 575.09 543.8 568.82 534.89 568.82 534.89 577.89 546.55 577.89 546.55 566.28 532.21 566.28 532.21 580.61"/>
    </g>
    <g>
      <polygon class="cls-1" points="516.76 580.61 530.68 580.61 530.68 566.28 516.34 566.28 516.34 577.89 528 577.89 528 568.82 519.09 568.82 519.09 575.09 525.24 575.09 525.24 571.39 522.79 571.39 522.79 572.29 524.39 572.29 524.39 574.19 519.94 574.19 519.94 569.71 527.15 569.71 527.15 576.99 517.19 576.99 517.19 567.17 529.83 567.17 529.83 579.72 516.76 579.72 516.76 580.61"/>
      <polygon class="cls-1" points="500.64 580.61 514.56 580.61 514.56 579.72 501.49 579.72 501.49 567.17 514.13 567.17 514.13 576.99 504.17 576.99 504.17 569.71 511.38 569.71 511.38 574.19 506.93 574.19 506.93 572.29 508.53 572.29 508.53 571.39 506.08 571.39 506.08 575.09 512.23 575.09 512.23 568.82 503.32 568.82 503.32 577.89 514.98 577.89 514.98 566.28 500.64 566.28 500.64 580.61"/>
    </g>
    <g>
      <polygon class="cls-1" points="390.48 580.61 404.39 580.61 404.39 566.28 390.05 566.28 390.05 577.89 401.71 577.89 401.71 568.82 392.8 568.82 392.8 575.09 398.96 575.09 398.96 571.39 396.51 571.39 396.51 572.29 398.11 572.29 398.11 574.19 393.65 574.19 393.65 569.71 400.86 569.71 400.86 576.99 390.9 576.99 390.9 567.17 403.54 567.17 403.54 579.72 390.48 579.72 390.48 580.61"/>
      <polygon class="cls-1" points="374.36 580.61 388.27 580.61 388.27 579.72 375.2 579.72 375.2 567.17 387.84 567.17 387.84 576.99 377.88 576.99 377.88 569.71 385.09 569.71 385.09 574.19 380.64 574.19 380.64 572.29 382.24 572.29 382.24 571.39 379.79 571.39 379.79 575.09 385.94 575.09 385.94 568.82 377.03 568.82 377.03 577.89 388.69 577.89 388.69 566.28 374.36 566.28 374.36 580.61"/>
    </g>
    <g>
      <polygon class="cls-1" points="358.91 580.61 372.82 580.61 372.82 566.28 358.48 566.28 358.48 577.89 370.14 577.89 370.14 568.82 361.23 568.82 361.23 575.09 367.38 575.09 367.38 571.39 364.94 571.39 364.94 572.29 366.53 572.29 366.53 574.19 362.08 574.19 362.08 569.71 369.29 569.71 369.29 576.99 359.33 576.99 359.33 567.17 371.97 567.17 371.97 579.72 358.91 579.72 358.91 580.61"/>
      <polygon class="cls-1" points="342.78 580.61 356.7 580.61 356.7 579.72 343.63 579.72 343.63 567.17 356.27 567.17 356.27 576.99 346.31 576.99 346.31 569.71 353.52 569.71 353.52 574.19 349.07 574.19 349.07 572.29 350.67 572.29 350.67 571.39 348.22 571.39 348.22 575.09 354.37 575.09 354.37 568.82 345.46 568.82 345.46 577.89 357.12 577.89 357.12 566.28 342.78 566.28 342.78 580.61"/>
    </g>
    <g>
      <polygon class="cls-1" points="737.77 580.61 751.68 580.61 751.68 566.28 737.34 566.28 737.34 577.89 749 577.89 749 568.82 740.09 568.82 740.09 575.09 746.24 575.09 746.24 571.39 743.8 571.39 743.8 572.29 745.4 572.29 745.4 574.19 740.94 574.19 740.94 569.71 748.15 569.71 748.15 576.99 738.19 576.99 738.19 567.17 750.83 567.17 750.83 579.72 737.77 579.72 737.77 580.61"/>
      <polygon class="cls-1" points="721.64 580.61 735.56 580.61 735.56 579.72 722.49 579.72 722.49 567.17 735.13 567.17 735.13 576.99 725.17 576.99 725.17 569.71 732.38 569.71 732.38 574.19 727.93 574.19 727.93 572.29 729.53 572.29 729.53 571.39 727.08 571.39 727.08 575.09 733.23 575.09 733.23 568.82 724.32 568.82 724.32 577.89 735.98 577.89 735.98 566.28 721.64 566.28 721.64 580.61"/>
    </g>
    <g>
      <polygon class="cls-1" points="706.19 580.61 720.11 580.61 720.11 566.28 705.77 566.28 705.77 577.89 717.43 577.89 717.43 568.82 708.52 568.82 708.52 575.09 714.67 575.09 714.67 571.39 712.22 571.39 712.22 572.29 713.82 572.29 713.82 574.19 709.37 574.19 709.37 569.71 716.58 569.71 716.58 576.99 706.62 576.99 706.62 567.17 719.26 567.17 719.26 579.72 706.19 579.72 706.19 580.61"/>
      <polygon class="cls-1" points="690.07 580.61 703.99 580.61 703.99 579.72 690.92 579.72 690.92 567.17 703.56 567.17 703.56 576.99 693.6 576.99 693.6 569.71 700.81 569.71 700.81 574.19 696.36 574.19 696.36 572.29 697.96 572.29 697.96 571.39 695.51 571.39 695.51 575.09 701.66 575.09 701.66 568.82 692.75 568.82 692.75 577.89 704.41 577.89 704.41 566.28 690.07 566.28 690.07 580.61"/>
    </g>
    <g>
      <polygon class="cls-1" points="674.62 580.61 688.54 580.61 688.54 566.28 674.2 566.28 674.2 577.89 685.86 577.89 685.86 568.82 676.95 568.82 676.95 575.09 683.1 575.09 683.1 571.39 680.65 571.39 680.65 572.29 682.25 572.29 682.25 574.19 677.8 574.19 677.8 569.71 685.01 569.71 685.01 576.99 675.05 576.99 675.05 567.17 687.69 567.17 687.69 579.72 674.62 579.72 674.62 580.61"/>
      <polygon class="cls-1" points="658.5 580.61 672.41 580.61 672.41 579.72 659.35 579.72 659.35 567.17 671.99 567.17 671.99 576.99 662.03 576.99 662.03 569.71 669.24 569.71 669.24 574.19 664.78 574.19 664.78 572.29 666.38 572.29 666.38 571.39 663.94 571.39 663.94 575.09 670.09 575.09 670.09 568.82 661.18 568.82 661.18 577.89 672.84 577.89 672.84 566.28 658.5 566.28 658.5 580.61"/>
    </g>
    <g>
      <polygon class="cls-1" points="800.91 580.61 814.82 580.61 814.82 566.28 800.49 566.28 800.49 577.89 812.14 577.89 812.14 568.82 803.24 568.82 803.24 575.09 809.39 575.09 809.39 571.39 806.94 571.39 806.94 572.29 808.54 572.29 808.54 574.19 804.09 574.19 804.09 569.71 811.3 569.71 811.3 576.99 801.33 576.99 801.33 567.17 813.97 567.17 813.97 579.72 800.91 579.72 800.91 580.61"/>
      <polygon class="cls-1" points="784.79 580.61 798.7 580.61 798.7 579.72 785.64 579.72 785.64 567.17 798.28 567.17 798.28 576.99 788.31 576.99 788.31 569.71 795.52 569.71 795.52 574.19 791.07 574.19 791.07 572.29 792.67 572.29 792.67 571.39 790.22 571.39 790.22 575.09 796.37 575.09 796.37 568.82 787.46 568.82 787.46 577.89 799.12 577.89 799.12 566.28 784.79 566.28 784.79 580.61"/>
    </g>
    <g>
      <polygon class="cls-1" points="769.34 580.61 783.25 580.61 783.25 566.28 768.91 566.28 768.91 577.89 780.57 577.89 780.57 568.82 771.66 568.82 771.66 575.09 777.82 575.09 777.82 571.39 775.37 571.39 775.37 572.29 776.97 572.29 776.97 574.19 772.51 574.19 772.51 569.71 779.72 569.71 779.72 576.99 769.76 576.99 769.76 567.17 782.4 567.17 782.4 579.72 769.34 579.72 769.34 580.61"/>
      <polygon class="cls-1" points="753.22 580.61 767.13 580.61 767.13 579.72 754.06 579.72 754.06 567.17 766.7 567.17 766.7 576.99 756.74 576.99 756.74 569.71 763.95 569.71 763.95 574.19 759.5 574.19 759.5 572.29 761.1 572.29 761.1 571.39 758.65 571.39 758.65 575.09 764.8 575.09 764.8 568.82 755.89 568.82 755.89 577.89 767.55 577.89 767.55 566.28 753.22 566.28 753.22 580.61"/>
    </g>
    <g>
      <polygon class="cls-1" points="643.05 580.61 656.96 580.61 656.96 566.28 642.63 566.28 642.63 577.89 654.29 577.89 654.29 568.82 645.38 568.82 645.38 575.09 651.53 575.09 651.53 571.39 649.08 571.39 649.08 572.29 650.68 572.29 650.68 574.19 646.23 574.19 646.23 569.71 653.44 569.71 653.44 576.99 643.48 576.99 643.48 567.17 656.12 567.17 656.12 579.72 643.05 579.72 643.05 580.61"/>
      <polygon class="cls-1" points="626.93 580.61 640.84 580.61 640.84 579.72 627.78 579.72 627.78 567.17 640.42 567.17 640.42 576.99 630.45 576.99 630.45 569.71 637.67 569.71 637.67 574.19 633.21 574.19 633.21 572.29 634.81 572.29 634.81 571.39 632.36 571.39 632.36 575.09 638.51 575.09 638.51 568.82 629.61 568.82 629.61 577.89 641.27 577.89 641.27 566.28 626.93 566.28 626.93 580.61"/>
    </g>
    <g>
      <polygon class="cls-1" points="611.48 580.61 625.39 580.61 625.39 566.28 611.06 566.28 611.06 577.89 622.71 577.89 622.71 568.82 613.81 568.82 613.81 575.09 619.96 575.09 619.96 571.39 617.51 571.39 617.51 572.29 619.11 572.29 619.11 574.19 614.66 574.19 614.66 569.71 621.87 569.71 621.87 576.99 611.9 576.99 611.9 567.17 624.54 567.17 624.54 579.72 611.48 579.72 611.48 580.61"/>
      <polygon class="cls-1" points="595.36 580.61 609.27 580.61 609.27 579.72 596.21 579.72 596.21 567.17 608.85 567.17 608.85 576.99 598.88 576.99 598.88 569.71 606.09 569.71 606.09 574.19 601.64 574.19 601.64 572.29 603.24 572.29 603.24 571.39 600.79 571.39 600.79 575.09 606.94 575.09 606.94 568.82 598.03 568.82 598.03 577.89 609.69 577.89 609.69 566.28 595.36 566.28 595.36 580.61"/>
    </g>
    <g>
      <polygon class="cls-1" points="327.33 580.61 341.25 580.61 341.25 566.28 326.91 566.28 326.91 577.89 338.57 577.89 338.57 568.82 329.66 568.82 329.66 575.09 335.81 575.09 335.81 571.39 333.36 571.39 333.36 572.29 334.96 572.29 334.96 574.19 330.51 574.19 330.51 569.71 337.72 569.71 337.72 576.99 327.76 576.99 327.76 567.17 340.4 567.17 340.4 579.72 327.33 579.72 327.33 580.61"/>
      <polygon class="cls-1" points="311.21 580.61 325.13 580.61 325.13 579.72 312.06 579.72 312.06 567.17 324.7 567.17 324.7 576.99 314.74 576.99 314.74 569.71 321.95 569.71 321.95 574.19 317.5 574.19 317.5 572.29 319.1 572.29 319.1 571.39 316.65 571.39 316.65 575.09 322.8 575.09 322.8 568.82 313.89 568.82 313.89 577.89 325.55 577.89 325.55 566.28 311.21 566.28 311.21 580.61"/>
    </g>
    <g>
      <polygon class="cls-1" points="295.76 580.61 309.68 580.61 309.68 566.28 295.34 566.28 295.34 577.89 307 577.89 307 568.82 298.09 568.82 298.09 575.09 304.24 575.09 304.24 571.39 301.79 571.39 301.79 572.29 303.39 572.29 303.39 574.19 298.94 574.19 298.94 569.71 306.15 569.71 306.15 576.99 296.19 576.99 296.19 567.17 308.83 567.17 308.83 579.72 295.76 579.72 295.76 580.61"/>
      <polygon class="cls-1" points="279.64 580.61 293.55 580.61 293.55 579.72 280.49 579.72 280.49 567.17 293.13 567.17 293.13 576.99 283.17 576.99 283.17 569.71 290.38 569.71 290.38 574.19 285.92 574.19 285.92 572.29 287.52 572.29 287.52 571.39 285.08 571.39 285.08 575.09 291.23 575.09 291.23 568.82 282.32 568.82 282.32 577.89 293.98 577.89 293.98 566.28 279.64 566.28 279.64 580.61"/>
    </g>
    <g>
      <polygon class="cls-1" points="264.19 580.61 278.1 580.61 278.1 566.28 263.77 566.28 263.77 577.89 275.43 577.89 275.43 568.82 266.52 568.82 266.52 575.09 272.67 575.09 272.67 571.39 270.22 571.39 270.22 572.29 271.82 572.29 271.82 574.19 267.37 574.19 267.37 569.71 274.58 569.71 274.58 576.99 264.62 576.99 264.62 567.17 277.26 567.17 277.26 579.72 264.19 579.72 264.19 580.61"/>
      <polygon class="cls-1" points="248.07 580.61 261.98 580.61 261.98 579.72 248.92 579.72 248.92 567.17 261.56 567.17 261.56 576.99 251.59 576.99 251.59 569.71 258.81 569.71 258.81 574.19 254.35 574.19 254.35 572.29 255.95 572.29 255.95 571.39 253.5 571.39 253.5 575.09 259.65 575.09 259.65 568.82 250.75 568.82 250.75 577.89 262.41 577.89 262.41 566.28 248.07 566.28 248.07 580.61"/>
    </g>
    <g>
      <polygon class="cls-1" points="232.62 580.61 246.53 580.61 246.53 566.28 232.2 566.28 232.2 577.89 243.85 577.89 243.85 568.82 234.95 568.82 234.95 575.09 241.1 575.09 241.1 571.39 238.65 571.39 238.65 572.29 240.25 572.29 240.25 574.19 235.79 574.19 235.79 569.71 243.01 569.71 243.01 576.99 233.04 576.99 233.04 567.17 245.68 567.17 245.68 579.72 232.62 579.72 232.62 580.61"/>
      <polygon class="cls-1" points="216.5 580.61 230.41 580.61 230.41 579.72 217.35 579.72 217.35 567.17 229.99 567.17 229.99 576.99 220.02 576.99 220.02 569.71 227.23 569.71 227.23 574.19 222.78 574.19 222.78 572.29 224.38 572.29 224.38 571.39 221.93 571.39 221.93 575.09 228.08 575.09 228.08 568.82 219.17 568.82 219.17 577.89 230.83 577.89 230.83 566.28 216.5 566.28 216.5 580.61"/>
    </g>
    <g>
      <polygon class="cls-1" points="201.05 580.61 214.96 580.61 214.96 566.28 200.62 566.28 200.62 577.89 212.28 577.89 212.28 568.82 203.37 568.82 203.37 575.09 209.52 575.09 209.52 571.39 207.08 571.39 207.08 572.29 208.68 572.29 208.68 574.19 204.22 574.19 204.22 569.71 211.43 569.71 211.43 576.99 201.47 576.99 201.47 567.17 214.11 567.17 214.11 579.72 201.05 579.72 201.05 580.61"/>
      <polygon class="cls-1" points="184.93 580.61 198.84 580.61 198.84 579.72 185.77 579.72 185.77 567.17 198.41 567.17 198.41 576.99 188.45 576.99 188.45 569.71 195.66 569.71 195.66 574.19 191.21 574.19 191.21 572.29 192.81 572.29 192.81 571.39 190.36 571.39 190.36 575.09 196.51 575.09 196.51 568.82 187.6 568.82 187.6 577.89 199.26 577.89 199.26 566.28 184.92 566.28 184.93 580.61"/>
    </g>
    <g>
      <polygon class="cls-1" points="169.48 580.61 183.39 580.61 183.39 566.28 169.05 566.28 169.05 577.89 180.71 577.89 180.71 568.82 171.8 568.82 171.8 575.09 177.95 575.09 177.95 571.39 175.51 571.39 175.51 572.29 177.1 572.29 177.1 574.19 172.65 574.19 172.65 569.71 179.86 569.71 179.86 576.99 169.9 576.99 169.9 567.17 182.54 567.17 182.54 579.72 169.48 579.72 169.48 580.61"/>
      <polygon class="cls-1" points="153.35 580.61 167.27 580.61 167.27 579.72 154.2 579.72 154.2 567.17 166.84 567.17 166.84 576.99 156.88 576.99 156.88 569.71 164.09 569.71 164.09 574.19 159.64 574.19 159.64 572.29 161.24 572.29 161.24 571.39 158.79 571.39 158.79 575.09 164.94 575.09 164.94 568.82 156.03 568.82 156.03 577.89 167.69 577.89 167.69 566.28 153.35 566.28 153.35 580.61"/>
    </g>
    <g>
      <polygon class="cls-1" points="137.9 580.61 151.82 580.61 151.82 566.28 137.48 566.28 137.48 577.89 149.14 577.89 149.14 568.82 140.23 568.82 140.23 575.09 146.38 575.09 146.38 571.39 143.93 571.39 143.93 572.29 145.53 572.29 145.53 574.19 141.08 574.19 141.08 569.71 148.29 569.71 148.29 576.99 138.33 576.99 138.33 567.17 150.97 567.17 150.97 579.72 137.9 579.72 137.9 580.61"/>
      <polygon class="cls-1" points="121.78 580.61 135.7 580.61 135.7 579.72 122.63 579.72 122.63 567.17 135.27 567.17 135.27 576.99 125.31 576.99 125.31 569.71 132.52 569.71 132.52 574.19 128.07 574.19 128.07 572.29 129.67 572.29 129.67 571.39 127.22 571.39 127.22 575.09 133.37 575.09 133.37 568.82 124.46 568.82 124.46 577.89 136.12 577.89 136.12 566.28 121.78 566.28 121.78 580.61"/>
    </g>
    <g>
      <polygon class="cls-1" points="106.33 580.61 120.25 580.61 120.25 566.28 105.91 566.28 105.91 577.89 117.57 577.89 117.57 568.82 108.66 568.82 108.66 575.09 114.81 575.09 114.81 571.39 112.36 571.39 112.36 572.29 113.96 572.29 113.96 574.19 109.51 574.19 109.51 569.71 116.72 569.71 116.72 576.99 106.76 576.99 106.76 567.17 119.4 567.17 119.4 579.72 106.33 579.72 106.33 580.61"/>
      <polygon class="cls-1" points="90.21 580.61 104.12 580.61 104.12 579.72 91.06 579.72 91.06 567.17 103.7 567.17 103.7 576.99 93.74 576.99 93.74 569.71 100.95 569.71 100.95 574.19 96.49 574.19 96.49 572.29 98.09 572.29 98.09 571.39 95.65 571.39 95.65 575.09 101.8 575.09 101.8 568.82 92.89 568.82 92.89 577.89 104.55 577.89 104.55 566.28 90.21 566.28 90.21 580.61"/>
    </g>
    <g>
      <polygon class="cls-1" points="74.76 580.61 88.67 580.61 88.67 566.28 74.34 566.28 74.34 577.89 86 577.89 86 568.82 77.09 568.82 77.09 575.09 83.24 575.09 83.24 571.39 80.79 571.39 80.79 572.29 82.39 572.29 82.39 574.19 77.94 574.19 77.94 569.71 85.15 569.71 85.15 576.99 75.19 576.99 75.19 567.17 87.83 567.17 87.83 579.72 74.76 579.72 74.76 580.61"/>
      <polygon class="cls-1" points="58.64 580.61 72.55 580.61 72.55 579.72 59.49 579.72 59.49 567.17 72.13 567.17 72.13 576.99 62.16 576.99 62.16 569.71 69.38 569.71 69.38 574.19 64.92 574.19 64.92 572.29 66.52 572.29 66.52 571.39 64.07 571.39 64.07 575.09 70.22 575.09 70.22 568.82 61.32 568.82 61.32 577.89 72.98 577.89 72.98 566.28 58.64 566.28 58.64 580.61"/>
    </g>
    <g>
      <polygon class="cls-1" points="43.19 580.61 57.1 580.61 57.1 566.28 42.76 566.28 42.76 577.89 54.42 577.89 54.42 568.82 45.52 568.82 45.52 575.09 51.67 575.09 51.67 571.39 49.22 571.39 49.22 572.29 50.82 572.29 50.82 574.19 46.36 574.19 46.36 569.71 53.58 569.71 53.58 576.99 43.61 576.99 43.61 567.17 56.25 567.17 56.25 579.72 43.19 579.72 43.19 580.61"/>
      <polygon class="cls-1" points="27.07 580.61 40.98 580.61 40.98 579.72 27.92 579.72 27.92 567.17 40.56 567.17 40.56 576.99 30.59 576.99 30.59 569.71 37.8 569.71 37.8 574.19 33.35 574.19 33.35 572.29 34.95 572.29 34.95 571.39 32.5 571.39 32.5 575.09 38.65 575.09 38.65 568.82 29.74 568.82 29.74 577.89 41.4 577.89 41.4 566.28 27.07 566.28 27.07 580.61"/>
    </g>
  </g>
</svg>