<?xml version="1.0" encoding="UTF-8"?>
<svg id="Layer_1" data-name="Layer 1" xmlns="http://www.w3.org/2000/svg" xmlns:xlink="http://www.w3.org/1999/xlink" viewBox="0 0 204 324.85">
  <defs>
    <style>
      .cls-1 {
        fill: #ea2c2a;
      }

      .cls-2 {
        fill: #f4ea0c;
      }

      .cls-3 {
        fill: #fff;
      }

      .cls-4 {
        letter-spacing: -.03em;
      }

      .cls-4, .cls-5, .cls-6, .cls-7, .cls-8, .cls-9 {
        isolation: isolate;
      }

      .cls-4, .cls-5, .cls-7, .cls-8, .cls-9 {
        font-style: italic;
      }

      .cls-4, .cls-7 {
        fill: #abacaf;
        font-family: FiraSans-Italic, 'Fira Sans';
        font-size: 12px;
      }

      .cls-10 {
        fill: #040404;
      }

      .cls-5 {
        letter-spacing: 2.96em;
      }

      .cls-5, .cls-8, .cls-9 {
        fill: #aaacaf;
        font-family: FiraSans-MediumItalic, 'Fira Sans';
        font-size: 6.97px;
        font-weight: 500;
      }

      .cls-11 {
        fill: #889ace;
      }

      .cls-8 {
        letter-spacing: 1.18em;
      }

      .cls-12 {
        fill: url(#linear-gradient);
      }
    </style>
    <linearGradient id="linear-gradient" x1="-1286.85" y1="-669.58" x2="-1082.85" y2="-669.58" gradientTransform="translate(-1082.85 878.13) rotate(-180) scale(1 -1)" gradientUnits="userSpaceOnUse">
      <stop offset="0" stop-color="#fff"/>
      <stop offset="1" stop-color="#c1c2c0"/>
    </linearGradient>
  </defs>
  <g>
    <rect class="cls-3" width="203.99" height="324.85"/>
    <path class="cls-12" d="m0,213.03v-8.55c11.23,13.59,28.53,22.31,47.94,22.31,69.55,0,101.29-45.03,139.09-45.03,6.3,0,12.14,1.87,16.97,5.08v8.55c-4.82-3.21-10.66-5.08-16.97-5.08-37.8,0-69.54,45.03-139.09,45.03C28.52,235.34,11.22,226.63,0,213.03Z"/>
    <g>
      <path class="cls-2" d="m0,259.88v-46.84c11.23,13.59,28.53,22.31,47.94,22.31,69.55,0,101.29-45.03,139.09-45.03,6.3,0,12.14,1.87,16.97,5.08v12.76c-6.37-3.93-14.27-5.58-22.26-4-37.03,7.33-58.75,57.61-126.87,71.11C34.32,279.34,14.05,272.97,0,259.88Z"/>
      <path class="cls-1" d="m0,309.39v-49.51c14.05,13.08,34.32,19.46,54.87,15.39,68.12-13.49,89.84-63.77,126.87-71.11,7.99-1.58,15.9.06,22.26,4-7.93-3.46-17.22-4.06-26.05-.97-40.91,14.32-56.98,75.08-132.24,101.42-15.32,5.35-31.31,5.28-45.7.78H0Z"/>
    </g>
    <rect class="cls-3" x="23.56" y="242.72" width="62.76" height="64.59"/>
  </g>
  <rect class="cls-10" x="92.98" y="300.63" width="105.61" height=".65"/>
  <g class="cls-6">
    <text class="cls-7" transform="translate(88.07 315.52)"><tspan x="0" y="0">Authori</tspan></text>
    <text class="cls-7" transform="translate(127.74 315.52)"><tspan x="0" y="0">z</tspan></text>
    <text class="cls-7" transform="translate(132.79 315.52)"><tspan x="0" y="0">e</tspan></text>
    <text class="cls-7" transform="translate(138.93 315.52)"><tspan x="0" y="0">d Signatu</tspan></text>
    <text class="cls-4" transform="translate(190.69 315.52)"><tspan x="0" y="0">r</tspan></text>
    <text class="cls-7" transform="translate(194.88 315.52)"><tspan x="0" y="0">e</tspan></text>
  </g>
  <g class="cls-6">
    <text class="cls-9" transform="translate(23.56 193.63)"><tspan x="0" y="0">JOIN</tspan></text>
    <text class="cls-5" transform="translate(37.11 193.63)"><tspan x="0" y="0"> </tspan></text>
    <text class="cls-9" transform="translate(59.4 193.63)"><tspan x="0" y="0">: </tspan></text>
    <text class="cls-9" transform="translate(23.56 201.99)"><tspan x="0" y="0">EXPIRED</tspan></text>
    <text class="cls-8" transform="translate(49.47 201.99)"><tspan x="0" y="0"> </tspan></text>
    <text class="cls-9" transform="translate(59.41 201.99)"><tspan x="0" y="0">:</tspan></text>
  </g>
  <g>
    <path class="cls-11" d="m39.14,117.79c-1.16-2.73-3.87-4.61-6.93-4.61-4.16,0-7.47,3.44-7.47,7.53s3.34,7.47,7.47,7.47,7.53-3.31,7.53-7.47c0-1.01-.2-1.99-.6-2.92Z"/>
    <path class="cls-3" d="m36.71,122.92l-1.17-1.17c-.32-.32-.85-.32-1.17,0l-.53.53c-.25.25-.64.25-.89,0l-2.31-2.31c-.25-.25-.25-.64,0-.89l.53-.53c.32-.32.33-.85,0-1.17l-1.17-1.17c-.32-.32-.85-.32-1.17,0-.24.24-.32.32-.43.42-1.17,1.17-1.17,3.07,0,4.23l3.66,3.67c1.17,1.17,3.06,1.17,4.23,0l.43-.43c.32-.32.32-.85,0-1.17Zm-1.56-.78l1.17,1.17c.11.11.11.28,0,.39l-.2.2-1.56-1.56.2-.2c.11-.11.28-.11.39,0Zm-5.55-5.55l1.17,1.17c.11.11.11.28,0,.39l-.2.2-1.56-1.56.19-.19c.11-.11.28-.11.39,0Zm2.85,7.54l-3.66-3.67c-.9-.9-.95-2.32-.15-3.28l1.56,1.56c-.41.46-.39,1.17.05,1.62l2.31,2.31s0,0,0,0c.44.44,1.15.46,1.62.05l1.56,1.56c-.96.8-2.37.76-3.28-.15Z"/>
  </g>
  <g>
    <path class="cls-11" d="m38.68,137.85c-1.16-2.73-3.87-4.61-6.93-4.61-4.16,0-7.47,3.44-7.47,7.53s3.34,7.47,7.47,7.47,7.53-3.31,7.53-7.47c0-1.01-.2-1.99-.6-2.92Z"/>
    <g>
      <path class="cls-3" d="m31.78,135.55c-2.01,0-3.65,1.64-3.65,3.65,0,.68.19,1.34.54,1.92l2.9,4.67c.06.09.15.14.26.14h0c.11,0,.2-.06.26-.15l2.82-4.71c.34-.56.51-1.21.51-1.87,0-2.01-1.64-3.65-3.65-3.65Zm2.61,5.21l-2.57,4.28-2.63-4.24c-.3-.48-.46-1.03-.46-1.6,0-1.68,1.37-3.04,3.04-3.04s3.04,1.37,3.04,3.04c0,.55-.15,1.09-.43,1.56Z"/>
      <path class="cls-3" d="m31.78,137.38c-1.01,0-1.82.82-1.82,1.82s.81,1.82,1.82,1.82,1.82-.84,1.82-1.82-.82-1.82-1.82-1.82Zm0,3.04c-.67,0-1.22-.55-1.22-1.22s.55-1.22,1.22-1.22,1.22.55,1.22,1.22-.53,1.22-1.22,1.22Z"/>
    </g>
  </g>
</svg>