<?xml version="1.0" encoding="utf-8"?>
<!-- Generator: Adobe Illustrator 27.1.1, SVG Export Plug-In . SVG Version: 6.00 Build 0)  -->
<svg version="1.1" id="Layer_1" xmlns="http://www.w3.org/2000/svg" xmlns:xlink="http://www.w3.org/1999/xlink" x="0px" y="0px"
	 viewBox="0 0 204 324.9" style="enable-background:new 0 0 204 324.9;" xml:space="preserve">
<style type="text/css">
	.st0{fill:#098040;}
	.st1{display:none;fill:url(#SVGID_1_);}
	.st2{display:none;}
	.st3{fill:#F4EA0C;}
	.st4{display:inline;fill:#EA2C2A;}
	.st5{fill:#FFFFFF;}
	.st6{fill:#F6EB0F;}
	.st7{fill:#EC1E24;}
	.st8{fill:#040404;}
	.st9{fill:#ABACAF;}
	.st10{font-family:'FiraSans-Italic';}
	.st11{font-size:12px;}
	.st12{fill:#050505;}
	.st13{font-family:'FiraSans-MediumItalic';}
	.st14{font-size:6.97px;}
	.st15{fill:#AAACAF;}
	.st16{fill:#889ACE;}
	.st17{font-family:'LiAlinurShishirUnicode';}
	.st18{font-size:8px;}
</style>
<g>
	<path class="st0" d="M197.5,324.9H6.5c-3.6,0-6.5-2.9-6.5-6.5V6.5C0,2.9,2.9,0,6.5,0h190.9c3.6,0,6.5,2.9,6.5,6.5v311.8
		C204,321.9,201.1,324.9,197.5,324.9z"/>
	
		<linearGradient id="SVGID_1_" gradientUnits="userSpaceOnUse" x1="-1888.6146" y1="1002.2081" x2="-1684.6146" y2="1002.2081" gradientTransform="matrix(-1 0 0 -1 -1472.85 1204.0199)">
		<stop  offset="0" style="stop-color:#FFFFFF"/>
		<stop  offset="1" style="stop-color:#C1C2C0"/>
	</linearGradient>
	<path class="st1" d="M211.8,206.3v-8.6c11.2,13.6,28.5,22.3,47.9,22.3c69.5,0,101.3-45,139.1-45c6.3,0,12.1,1.9,17,5.1v8.6
		c-4.8-3.2-10.7-5.1-17-5.1c-37.8,0-69.5,45-139.1,45C240.3,228.6,223,219.9,211.8,206.3z"/>
	<g class="st2">
		<path class="st3" d="M211.8,253.1v-46.8c11.2,13.6,28.5,22.3,47.9,22.3c69.5,0,101.3-45,139.1-45c6.3,0,12.1,1.9,17,5.1v12.8
			c-6.4-3.9-14.3-5.6-22.3-4c-37,7.3-58.8,57.6-126.9,71.1C246.1,272.6,225.8,266.2,211.8,253.1z"/>
		<path class="st4" d="M211.8,302.7v-49.5c14.1,13.1,34.3,19.5,54.9,15.4c68.1-13.5,89.8-63.8,126.9-71.1c8-1.6,15.9,0.1,22.3,4
			c-7.9-3.5-17.2-4.1-26.1-1c-40.9,14.3-57,75.1-132.2,101.4C242.2,307.2,226.2,307.2,211.8,302.7L211.8,302.7z"/>
	</g>
</g>
<path class="st5" d="M196.5,320.6H7.8c-1.2,0-2.1-0.9-2.1-2.1V7.9c0-1.2,0.9-2.1,2.1-2.1h188.7c1.2,0,2.1,0.9,2.1,2.1v310.5
	C198.6,319.6,197.6,320.6,196.5,320.6z"/>
<g>
	<path class="st6" d="M192,235.6c-10.6,2-19,4.9-25.2,7.4c-6.2,2.5-11,5-13.7,6.5c-7.4,4-12.7,7.7-18.4,11.7c-2.2,1.5-2.8,2-14,10.4
		c-7,5.2-12.4,9.3-12.9,9.6c-27,20.2-51.4,27.2-51.5,27.2c0,0,0,0,0,0c-1.9,0.6-4.5,1.2-7.6,1.9c-6.6,1.4-14.4,2-14.4,2
		c-9.6,0.8-18.3,0.3-23,0c0-9.1,0-18.2,0-27.4c3.8,0.5,8.4,0.9,13.5,1.1c1.9,0.1,8.8,0.4,16.8-0.1c9.1-0.5,19.6-1,32.2-4.9
		c9.7-2.9,18.9-8.2,37.3-18.7c12.9-7.3,14.1-8.7,25.1-14.5c11-5.8,17.6-9.3,26.8-12.3c7-2.3,16.8-4.8,29-5.8
		C192.1,231.8,192,233.7,192,235.6z"/>
	<path class="st0" d="M192.2,229.8c0.1-2.5,0.1-5.1,0.2-7.6c-5.2,0.1-11,0.6-17.3,1.5c-6,0.9-10.3,2-15.7,3.3
		c-7.7,1.9-18.3,4.6-31.5,9.9c-6,2.4-4.5,2.1-16.4,7.1c-10,4.2-15.5,6.6-22.2,8.9c-7.2,2.5-18.3,6.3-33.3,8.4
		c-8.8,1.2-15.7,2.2-25.1,1.1c-1.9-0.2-9.1-2.5-19.2-3.2c-0.1,0-0.3,0-0.3,0c0,8.5,0,17.1,0,25.6c5,0.7,11.8,1.5,19.9,1.8
		c7.1,0.2,17.8,0.5,30-1.9c12.9-2.6,21.7-7.1,34.9-13.8c4.5-2.3,12.5-7,28.6-16.4c8.5-5,12.5-7.4,19.4-10.8
		c7.2-3.6,12.6-6.2,20.5-8.7c2.3-0.7,11.2-3.4,23.2-4.9C189.6,230.1,191.1,229.9,192.2,229.8z"/>
	<path class="st7" d="M11.4,259.7c0-6.7,0-13.3,0-20c2.1,0.6,5.1,1.4,8.6,2.2c5,1.1,15.7,3.1,29.6,2.9c4.5-0.1,15.2-0.4,28.8-3.4
		c11.9-2.7,13-4.6,36.5-12c8.4-2.7,13.1-4.1,20-5.9c15-3.8,26.7-5.4,32.3-6c8.9-1,15.8-1.3,18.3-1.4c2.8-0.1,5.3-0.1,7.1-0.1
		c-0.1,2.2-0.1,4.4-0.2,6.6c-7.2,0.2-13.2,1-17.8,1.7c-6.1,1-10.8,2.1-14.7,3.1c-1.8,0.5-7.3,1.8-14.3,4.1
		c-8.4,2.6-14.6,5.1-21.6,7.9c-3,1.2-5.8,2.3-11.3,4.6c-8.5,3.5-11,4.6-14.1,5.9c-6.2,2.5-17.2,7-31.5,10.3
		c-5.3,1.2-10.5,2.4-17.7,3.1c-10.8,1-19.2,0.2-22.9-0.3c-6.6-0.8-11.1-2-12.3-2.3C13,260.1,12.1,259.9,11.4,259.7z"/>
	<rect x="24.7" y="247.9" class="st5" width="55.4" height="52.7"/>
</g>
<rect x="90.4" y="300.3" class="st8" width="105.6" height="0.6"/>
<rect x="48.8" y="82.1" class="st8" width="105.6" height="0.6"/>
<g>
	<text transform="matrix(1 0 0 1 83.3232 315.52)" class="st9 st10 st11">Authori</text>
	<text transform="matrix(1 0 0 1 122.9932 315.52)" class="st9 st10 st11">z</text>
	<text transform="matrix(1 0 0 1 128.0432 315.52)" class="st9 st10 st11">e</text>
	<text transform="matrix(1 0 0 1 134.1832 315.52)" class="st9 st10 st11">d Signatu</text>
	<text transform="matrix(1 0 0 1 185.9432 315.52)" class="st9 st10 st11">r</text>
	<text transform="matrix(1 0 0 1 190.1332 315.52)" class="st9 st10 st11">e</text>
</g>
<g>
	<text transform="matrix(1 0 0 1 23.56 193.63)" class="st12 st13 st14">JOIN</text>
	<text transform="matrix(1 0 0 1 59.4 193.63)" class="st15 st13 st14">:</text>
	<text transform="matrix(1 0 0 1 24.2799 207.3261)" class="st13 st14">EXPIRED</text>
	<text transform="matrix(1 0 0 1 59.4833 205.5615)" class="st15 st13 st14">:</text>
</g>
<g>
	<path class="st16" d="M39.1,117.8c-1.2-2.7-3.9-4.6-6.9-4.6c-4.2,0-7.5,3.4-7.5,7.5s3.3,7.5,7.5,7.5s7.5-3.3,7.5-7.5
		C39.7,119.7,39.5,118.7,39.1,117.8z"/>
	<path class="st5" d="M36.7,122.9l-1.2-1.2c-0.3-0.3-0.8-0.3-1.2,0l-0.5,0.5c-0.3,0.3-0.6,0.3-0.9,0l-2.3-2.3
		c-0.3-0.3-0.3-0.6,0-0.9l0.5-0.5c0.3-0.3,0.3-0.8,0-1.2l-1.2-1.2c-0.3-0.3-0.9-0.3-1.2,0c-0.2,0.2-0.3,0.3-0.4,0.4
		c-1.2,1.2-1.2,3.1,0,4.2l3.7,3.7c1.2,1.2,3.1,1.2,4.2,0l0.4-0.4C37,123.8,37,123.3,36.7,122.9L36.7,122.9z M35.1,122.1l1.2,1.2
		c0.1,0.1,0.1,0.3,0,0.4l-0.2,0.2l-1.6-1.6l0.2-0.2C34.9,122,35,122,35.1,122.1z M29.6,116.6l1.2,1.2c0.1,0.1,0.1,0.3,0,0.4
		l-0.2,0.2l-1.6-1.6l0.2-0.2C29.3,116.5,29.5,116.5,29.6,116.6L29.6,116.6z M32.4,124.1l-3.7-3.7c-0.9-0.9-1-2.3-0.1-3.3l1.6,1.6
		c-0.4,0.5-0.4,1.2,0,1.6l2.3,2.3l0,0c0.4,0.4,1.2,0.5,1.6,0.1l1.6,1.6C34.8,125.1,33.4,125,32.4,124.1L32.4,124.1z"/>
</g>
<g>
	<path class="st16" d="M38.7,137.9c-1.2-2.7-3.9-4.6-6.9-4.6c-4.2,0-7.5,3.4-7.5,7.5s3.3,7.5,7.5,7.5s7.5-3.3,7.5-7.5
		C39.3,139.8,39.1,138.8,38.7,137.9z"/>
	<g>
		<path class="st5" d="M31.8,135.6c-2,0-3.6,1.6-3.6,3.6c0,0.7,0.2,1.3,0.5,1.9l2.9,4.7c0.1,0.1,0.1,0.1,0.3,0.1l0,0
			c0.1,0,0.2-0.1,0.3-0.1l2.8-4.7c0.3-0.6,0.5-1.2,0.5-1.9C35.4,137.2,33.8,135.6,31.8,135.6L31.8,135.6z M34.4,140.8l-2.6,4.3
			l-2.6-4.2c-0.3-0.5-0.5-1-0.5-1.6c0-1.7,1.4-3,3-3c1.7,0,3,1.4,3,3C34.8,139.8,34.7,140.3,34.4,140.8L34.4,140.8z"/>
		<path class="st5" d="M31.8,137.4c-1,0-1.8,0.8-1.8,1.8s0.8,1.8,1.8,1.8s1.8-0.8,1.8-1.8S32.8,137.4,31.8,137.4z M31.8,140.4
			c-0.7,0-1.2-0.6-1.2-1.2s0.5-1.2,1.2-1.2s1.2,0.6,1.2,1.2S32.5,140.4,31.8,140.4z"/>
	</g>
</g>
<image style="overflow:visible;" width="819" height="746" xlink:href="C:\Users\Mahtab Kamal\Desktop\Desktop\Nure-Madina.png"  transform="matrix(7.508121e-02 0 0 6.228710e-02 73.3035 10.786)">
</image>
<g>
	<g>
		<path d="M42.3,73.9v-0.3c1-0.1,1.1-0.2,1.1-1.2v-4.8c0-1-0.1-1.1-1.1-1.2v-0.3h3.2v0.3c-1,0.1-1.1,0.2-1.1,1.2v4.8
			c0,1,0.1,1.1,1.1,1.2v0.3H42.3z"/>
		<path d="M47.3,68.6v-0.3c0-0.9,0.3-1.8,1.1-2.4c0.4-0.4,0.9-0.6,1.3-0.6c0.4,0,0.8,0.2,1,0.4c0.1,0.1,0.1,0.3,0.1,0.4
			c0,0.1-0.2,0.3-0.3,0.4c-0.1,0.1-0.2,0.1-0.3,0c-0.2-0.2-0.6-0.5-1-0.5c-0.9,0-0.9,1.2-0.9,2.1v0.6h1.3c0.1,0.1,0,0.4-0.1,0.5
			h-1.2v3.5c0,0.9,0.1,0.9,1,1v0.3h-2.8v-0.3c0.8-0.1,0.8-0.1,0.8-0.9v-3.5h-0.9l0-0.1l0.3-0.4H47.3z"/>
		<path d="M53.5,68.6v-0.3c0-0.9,0.3-1.8,1.1-2.4c0.4-0.4,0.9-0.6,1.3-0.6c0.4,0,0.8,0.2,1,0.4c0.1,0.1,0.1,0.3,0.1,0.4
			c0,0.1-0.2,0.3-0.3,0.4c-0.1,0.1-0.2,0.1-0.3,0c-0.2-0.2-0.6-0.5-1-0.5c-0.9,0-0.9,1.2-0.9,2.1v0.6h1.3c0.1,0.1,0,0.4-0.1,0.5
			h-1.2v3.5c0,0.9,0.1,0.9,1,1v0.3h-2.8v-0.3c0.8-0.1,0.8-0.1,0.8-0.9v-3.5h-0.9l0-0.1l0.3-0.4H53.5z"/>
		<path d="M58.9,68.5c1.5,0,2.6,1.1,2.6,2.7c0,1.9-1.4,2.9-2.6,2.9c-1.7,0-2.7-1.3-2.7-2.7C56.2,69.4,57.7,68.5,58.9,68.5z
			 M58.7,68.9c-0.7,0-1.4,0.7-1.4,2.1c0,1.5,0.7,2.6,1.7,2.6c0.7,0,1.4-0.5,1.4-2.2C60.4,70.1,59.8,68.9,58.7,68.9z"/>
		<path d="M68.2,73.6c-0.6,0.1-1.2,0.2-1.8,0.4c0-0.2,0-0.6,0-0.9c-0.6,0.5-1.2,0.9-1.8,0.9c-0.8,0-1.5-0.5-1.5-1.8v-2.3
			c0-0.6-0.1-0.7-0.4-0.8l-0.3-0.1v-0.3c0.5,0,1.3-0.1,1.7-0.2c0,0.4,0,1,0,1.8v1.6c0,1.1,0.6,1.4,1.1,1.4c0.4,0,0.9-0.2,1.3-0.6
			v-2.8c0-0.6-0.1-0.7-0.6-0.8l-0.4,0v-0.3c0.8,0,1.6-0.2,1.9-0.2v4c0,0.6,0.1,0.7,0.6,0.7l0.3,0V73.6z"/>
		<path d="M72.2,73.9v-0.3c0.7-0.1,0.8-0.2,0.8-1v-2c0-0.8-0.3-1.4-1.1-1.4c-0.5,0-1,0.3-1.3,0.6v2.8c0,0.8,0.1,0.9,0.8,0.9v0.3
			h-2.6v-0.3c0.8-0.1,0.9-0.1,0.9-0.9v-2.5c0-0.8-0.1-0.8-0.7-0.9v-0.3c0.6-0.1,1.2-0.3,1.7-0.5c0,0.3,0,0.7,0,0.9
			c0.2-0.2,0.5-0.3,0.8-0.6c0.3-0.2,0.6-0.4,1-0.4c1,0,1.6,0.7,1.6,1.9v2.3c0,0.8,0.1,0.9,0.8,0.9v0.3H72.2z"/>
		<path d="M81.2,73.6c-0.3,0-1.2,0.2-1.9,0.4c0-0.3,0-0.5,0-0.8c-0.2,0.1-0.5,0.3-0.7,0.4c-0.5,0.3-0.8,0.3-0.9,0.3
			c-1,0-2.2-1-2.2-2.6c0-1.7,1.5-2.9,3.1-2.9c0.2,0,0.6,0,0.8,0.1v-1.8c0-0.8-0.1-0.8-0.9-0.9v-0.3c0.6-0.1,1.4-0.3,1.9-0.4
			c0,0.4,0,1,0,1.5v5.8c0,0.6,0.1,0.7,0.5,0.7l0.4,0V73.6z M79.4,69.6c-0.3-0.4-0.8-0.6-1.3-0.6c-0.6,0-1.6,0.4-1.6,2.1
			c0,1.5,0.9,2.2,1.7,2.2c0.4,0,0.9-0.2,1.2-0.4V69.6z"/>
		<path d="M84.5,68.9c0.6-0.1,1.2-0.3,1.7-0.5c0,0.3,0,0.7,0,1c0,0,1-0.6,1-0.6c0.3-0.2,0.5-0.2,0.7-0.2c1.3,0,2.1,1.1,2.1,2.3
			c0,1.8-1.4,3-3,3.3c-0.4,0-0.7-0.1-0.9-0.2v1.6c0,0.9,0.1,1,1,1v0.3h-2.8v-0.3c0.8-0.1,0.9-0.1,0.9-0.9v-5.5c0-0.7,0-0.8-0.8-0.9
			V68.9z M86.2,73c0.3,0.3,0.7,0.5,1.1,0.5c1,0,1.7-0.9,1.7-2.2c0-1.3-0.8-2-1.6-2c-0.4,0-0.9,0.3-1.2,0.5V73z"/>
		<path d="M90.8,73.9v-0.3c0.8-0.1,0.9-0.1,0.9-0.9v-5.7c0-0.7-0.1-0.8-0.8-0.9v-0.3c0.6-0.1,1.4-0.3,1.8-0.4c0,0.6,0,1.1,0,1.7v5.7
			c0,0.8,0.1,0.9,0.9,0.9v0.3H90.8z"/>
		<path d="M98.5,72.9c-0.8,1-1.6,1.2-2,1.2c-1.5,0-2.4-1.2-2.4-2.6c0-0.8,0.3-1.6,0.8-2.1c0.5-0.6,1.2-0.9,1.8-0.9
			c1,0,1.8,0.9,1.8,1.9c0,0.2,0,0.3-0.2,0.4c-0.2,0-1.8,0.2-3.2,0.2c0,1.6,0.9,2.3,1.8,2.3c0.5,0,0.9-0.2,1.4-0.6L98.5,72.9z
			 M96.5,69c-0.6,0-1.1,0.5-1.3,1.5c0.7,0,1.3,0,2.1,0c0.2,0,0.3-0.1,0.3-0.2C97.6,69.5,97.1,69,96.5,69z"/>
		<path d="M103.2,74.1c-0.2,0-0.4-0.1-0.6-0.2c-0.2-0.2-0.2-0.3-0.3-0.5c-0.5,0.3-1.1,0.8-1.4,0.8c-0.9,0-1.5-0.7-1.5-1.5
			c0-0.6,0.3-1,1-1.2c0.7-0.3,1.6-0.6,1.9-0.8v-0.2c0-0.9-0.4-1.3-1.1-1.3c-0.3,0-0.4,0.1-0.6,0.3c-0.1,0.2-0.2,0.4-0.3,0.8
			c-0.1,0.2-0.2,0.3-0.3,0.3c-0.2,0-0.5-0.2-0.5-0.5c0-0.2,0.2-0.3,0.4-0.5c0.3-0.3,1-0.7,1.7-0.8c0.4,0,0.7,0.1,1,0.3
			c0.4,0.4,0.6,0.8,0.6,1.4v2.3c0,0.6,0.2,0.7,0.4,0.7c0.1,0,0.3-0.1,0.4-0.1l0.1,0.3L103.2,74.1z M102.3,71
			c-0.3,0.1-0.8,0.4-1.1,0.5c-0.5,0.2-0.7,0.4-0.7,0.9c0,0.6,0.5,0.9,0.9,0.9c0.3,0,0.7-0.2,1-0.4C102.3,72.3,102.3,71.6,102.3,71z"
			/>
		<path d="M107.8,70.1c-0.2-0.7-0.5-1.2-1.3-1.2c-0.4,0-0.7,0.3-0.7,0.8c0,0.5,0.3,0.8,1,1.1c1,0.5,1.5,0.9,1.5,1.6
			c0,1.1-1,1.7-2,1.7c-0.6,0-1.2-0.2-1.4-0.3c-0.1-0.3-0.2-1-0.2-1.4l0.3-0.1c0.2,0.8,0.6,1.4,1.5,1.4c0.5,0,0.8-0.3,0.8-0.8
			c0-0.5-0.3-0.8-1-1.1c-0.8-0.4-1.5-0.8-1.5-1.7c0-0.9,0.7-1.5,1.9-1.5c0.5,0,0.9,0.1,1.2,0.2c0,0.3,0.1,1,0.2,1.3L107.8,70.1z"/>
		<path d="M113.6,72.9c-0.8,1-1.6,1.2-2,1.2c-1.5,0-2.4-1.2-2.4-2.6c0-0.8,0.3-1.6,0.8-2.1c0.5-0.6,1.2-0.9,1.8-0.9
			c1,0,1.8,0.9,1.8,1.9c0,0.2,0,0.3-0.2,0.4c-0.2,0-1.8,0.2-3.2,0.2c0,1.6,0.9,2.3,1.8,2.3c0.5,0,0.9-0.2,1.4-0.6L113.6,72.9z
			 M111.5,69c-0.6,0-1.1,0.5-1.3,1.5c0.7,0,1.3,0,2.1,0c0.2,0,0.3-0.1,0.3-0.2C112.6,69.5,112.2,69,111.5,69z"/>
		<path d="M119.9,73.9h-2.8v-0.3c0.8-0.1,0.8-0.1,0.8-0.9v-2.5c0-0.8,0-0.8-0.7-0.9V69c0.6-0.1,1.1-0.2,1.7-0.5c0,0.4,0,0.9,0,1.3
			c0.4-0.6,0.9-1.3,1.5-1.3c0.4,0,0.7,0.3,0.7,0.6c0,0.3-0.2,0.5-0.4,0.7c-0.1,0.1-0.2,0.1-0.3,0c-0.2-0.2-0.3-0.3-0.5-0.3
			c-0.3,0-0.7,0.4-1,1v2.3c0,0.8,0.1,0.9,1,0.9V73.9z"/>
		<path d="M126,72.9c-0.8,1-1.6,1.2-2,1.2c-1.5,0-2.4-1.2-2.4-2.6c0-0.8,0.3-1.6,0.8-2.1c0.5-0.6,1.2-0.9,1.8-0.9
			c1,0,1.8,0.9,1.8,1.9c0,0.2,0,0.3-0.2,0.4c-0.2,0-1.8,0.2-3.2,0.2c0,1.6,0.9,2.3,1.8,2.3c0.5,0,0.9-0.2,1.4-0.6L126,72.9z
			 M123.9,69c-0.6,0-1.1,0.5-1.3,1.5c0.7,0,1.3,0,2.1,0c0.2,0,0.3-0.1,0.3-0.2C125,69.5,124.6,69,123.9,69z"/>
		<path d="M129.1,73.9c-0.2,0.1-0.4,0.2-0.5,0.2c-0.8,0-1.2-0.5-1.2-1.4v-3.5h-0.8l0-0.1l0.3-0.3h0.6v-1c0.2-0.2,0.6-0.6,0.8-0.8
			l0.2,0c0,0.5,0,1.2,0,1.8h1.4c0.1,0.1,0.1,0.4-0.1,0.5h-1.3v3.1c0,1,0.4,1.2,0.7,1.2c0.3,0,0.6-0.1,0.7-0.2l0.1,0.3L129.1,73.9z"
			/>
		<path d="M136.2,73.6c-0.6,0.1-1.2,0.2-1.8,0.4c0-0.2,0-0.6,0-0.9c-0.6,0.5-1.2,0.9-1.8,0.9c-0.8,0-1.5-0.5-1.5-1.8v-2.3
			c0-0.6-0.1-0.7-0.4-0.8l-0.3-0.1v-0.3c0.5,0,1.3-0.1,1.7-0.2c0,0.4,0,1,0,1.8v1.6c0,1.1,0.6,1.4,1.1,1.4c0.4,0,0.9-0.2,1.3-0.6
			v-2.8c0-0.6-0.1-0.7-0.6-0.8l-0.4,0v-0.3c0.8,0,1.6-0.2,1.9-0.2v4c0,0.6,0.1,0.7,0.6,0.7l0.3,0V73.6z"/>
		<path d="M139.6,73.9h-2.8v-0.3c0.8-0.1,0.8-0.1,0.8-0.9v-2.5c0-0.8,0-0.8-0.7-0.9V69c0.6-0.1,1.1-0.2,1.7-0.5c0,0.4,0,0.9,0,1.3
			c0.4-0.6,0.9-1.3,1.5-1.3c0.4,0,0.7,0.3,0.7,0.6c0,0.3-0.2,0.5-0.4,0.7c-0.1,0.1-0.2,0.1-0.3,0c-0.2-0.2-0.3-0.3-0.5-0.3
			c-0.3,0-0.7,0.4-1,1v2.3c0,0.8,0.1,0.9,1,0.9V73.9z"/>
		<path d="M144.7,73.9v-0.3c0.7-0.1,0.8-0.2,0.8-1v-2c0-0.8-0.3-1.4-1.1-1.4c-0.5,0-1,0.3-1.3,0.6v2.8c0,0.8,0.1,0.9,0.8,0.9v0.3
			h-2.6v-0.3c0.8-0.1,0.9-0.1,0.9-0.9v-2.5c0-0.8-0.1-0.8-0.7-0.9v-0.3c0.6-0.1,1.2-0.3,1.7-0.5c0,0.3,0,0.7,0,0.9
			c0.2-0.2,0.5-0.3,0.8-0.6c0.3-0.2,0.6-0.4,1-0.4c1,0,1.6,0.7,1.6,1.9v2.3c0,0.8,0.1,0.9,0.8,0.9v0.3H144.7z"/>
		<path d="M153.1,73.9c-0.2,0.1-0.4,0.2-0.5,0.2c-0.8,0-1.2-0.5-1.2-1.4v-3.5h-0.8l0-0.1l0.3-0.3h0.6v-1c0.2-0.2,0.6-0.6,0.8-0.8
			l0.2,0c0,0.5,0,1.2,0,1.8h1.4c0.1,0.1,0.1,0.4-0.1,0.5h-1.3v3.1c0,1,0.4,1.2,0.7,1.2c0.3,0,0.6-0.1,0.7-0.2l0.1,0.3L153.1,73.9z"
			/>
		<path d="M157.1,68.5c1.5,0,2.6,1.1,2.6,2.7c0,1.9-1.4,2.9-2.6,2.9c-1.7,0-2.7-1.3-2.7-2.7C154.4,69.4,156,68.5,157.1,68.5z
			 M157,68.9c-0.7,0-1.4,0.7-1.4,2.1c0,1.5,0.7,2.6,1.7,2.6c0.7,0,1.4-0.5,1.4-2.2C158.6,70.1,158,68.9,157,68.9z"/>
	</g>
</g>
<text transform="matrix(1 0 0 1 48.7561 124.8482)" class="st17 st11">01718836826</text>
<text transform="matrix(1 0 0 1 48.0587 143.5369)"><tspan x="0" y="0" class="st17 st18">পূরব মুননন পাড়া,কুড়ড়গাম সদর</tspan><tspan x="0" y="9.6" class="st17 st18">	কুড়ড়গাম</tspan></text>
<g>
	<g>
		<path d="M71.7,189c1.4,0,1.9,1.5,1.9,2.9c0,1.3-0.5,2.9-1.9,2.9c-1.4,0-1.9-1.5-1.9-2.9C69.8,190.6,70.3,189,71.7,189z
			 M71.7,189.3c-0.8,0-1,1.3-1,2.6c0,1.3,0.3,2.6,1,2.6c0.8,0,1-1.3,1-2.6C72.7,190.6,72.5,189.3,71.7,189.3z"/>
		<path d="M74.7,194.7v-0.3c1-0.1,1.1-0.1,1.1-0.8v-3.5c0-0.5-0.1-0.5-0.5-0.5l-0.4,0v-0.2c0.6-0.1,1.2-0.2,1.6-0.4v4.7
			c0,0.7,0.1,0.7,1.1,0.8v0.3H74.7z"/>
		<path d="M83.1,189.1c-0.7,0.1-0.8,0.1-0.8,0.9v3.3c0,1.2-0.2,1.8-0.8,2.3c-0.3,0.3-0.6,0.4-0.8,0.5l-0.1-0.3
			c0.5-0.3,0.8-0.7,0.9-1.2c0.1-0.4,0.1-1,0.1-1.7v-3c0-0.8-0.1-0.8-0.8-0.9v-0.3h2.4V189.1z"/>
		<path d="M86.6,194.8c-0.1,0-0.3-0.1-0.4-0.2c-0.1-0.1-0.2-0.2-0.2-0.4c-0.4,0.2-0.8,0.6-1.1,0.6c-0.6,0-1.1-0.5-1.1-1.1
			c0-0.4,0.2-0.7,0.7-0.9c0.5-0.2,1.2-0.4,1.4-0.6V192c0-0.6-0.3-1-0.8-1c-0.2,0-0.3,0.1-0.4,0.2c-0.1,0.1-0.2,0.3-0.2,0.6
			c0,0.1-0.1,0.2-0.3,0.2c-0.2,0-0.4-0.2-0.4-0.4c0-0.1,0.1-0.2,0.3-0.4c0.3-0.2,0.8-0.5,1.3-0.6c0.3,0,0.5,0.1,0.8,0.2
			c0.3,0.3,0.5,0.6,0.5,1v1.7c0,0.4,0.2,0.5,0.3,0.5c0.1,0,0.2,0,0.3-0.1l0.1,0.3L86.6,194.8z M85.9,192.5c-0.2,0.1-0.6,0.3-0.8,0.4
			c-0.3,0.2-0.5,0.3-0.5,0.7c0,0.5,0.4,0.7,0.6,0.7c0.2,0,0.6-0.1,0.7-0.3C85.9,193.5,85.9,193,85.9,192.5z"/>
		<path d="M90.3,194.7v-0.3c0.5-0.1,0.6-0.1,0.6-0.7v-1.5c0-0.6-0.2-1.1-0.8-1.1c-0.4,0-0.7,0.2-1,0.5v2.1c0,0.6,0.1,0.6,0.6,0.7
			v0.3h-1.9v-0.3c0.6-0.1,0.6-0.1,0.6-0.7v-1.9c0-0.6-0.1-0.6-0.5-0.7V191c0.4-0.1,0.9-0.2,1.3-0.4c0,0.2,0,0.5,0,0.7
			c0.2-0.1,0.4-0.3,0.6-0.4c0.3-0.2,0.5-0.3,0.7-0.3c0.7,0,1.2,0.5,1.2,1.4v1.7c0,0.6,0.1,0.6,0.6,0.7v0.3H90.3z"/>
		<path d="M97,194.5c-0.4,0.1-0.9,0.2-1.4,0.3c0-0.1,0-0.5,0-0.7c-0.5,0.4-0.9,0.7-1.4,0.7c-0.6,0-1.1-0.4-1.1-1.4v-1.7
			c0-0.5-0.1-0.5-0.3-0.6l-0.3,0v-0.2c0.4,0,1-0.1,1.3-0.2c0,0.3,0,0.7,0,1.3v1.2c0,0.8,0.4,1,0.8,1c0.3,0,0.7-0.1,1-0.4v-2.1
			c0-0.5-0.1-0.5-0.4-0.6l-0.3,0v-0.2c0.6,0,1.2-0.1,1.4-0.2v3c0,0.5,0.1,0.5,0.4,0.5l0.3,0V194.5z"/>
		<path d="M100.4,194.8c-0.1,0-0.3-0.1-0.4-0.2c-0.1-0.1-0.2-0.2-0.2-0.4c-0.4,0.2-0.8,0.6-1.1,0.6c-0.6,0-1.1-0.5-1.1-1.1
			c0-0.4,0.2-0.7,0.7-0.9c0.5-0.2,1.2-0.4,1.4-0.6V192c0-0.6-0.3-1-0.8-1c-0.2,0-0.3,0.1-0.4,0.2c-0.1,0.1-0.2,0.3-0.2,0.6
			c0,0.1-0.1,0.2-0.3,0.2c-0.2,0-0.4-0.2-0.4-0.4c0-0.1,0.1-0.2,0.3-0.4c0.3-0.2,0.8-0.5,1.3-0.6c0.3,0,0.5,0.1,0.8,0.2
			c0.3,0.3,0.5,0.6,0.5,1v1.7c0,0.4,0.2,0.5,0.3,0.5c0.1,0,0.2,0,0.3-0.1l0.1,0.3L100.4,194.8z M99.7,192.5
			c-0.2,0.1-0.6,0.3-0.8,0.4c-0.3,0.2-0.5,0.3-0.5,0.7c0,0.5,0.4,0.7,0.6,0.7c0.2,0,0.6-0.1,0.7-0.3C99.7,193.5,99.7,193,99.7,192.5
			z"/>
		<path d="M103.6,194.7h-2.1v-0.3c0.6-0.1,0.6-0.1,0.6-0.7v-1.9c0-0.6,0-0.6-0.6-0.7V191c0.4-0.1,0.8-0.2,1.3-0.4c0,0.3,0,0.7,0,1
			c0.3-0.5,0.7-1,1.1-1c0.3,0,0.5,0.2,0.5,0.4c0,0.2-0.1,0.4-0.3,0.5c-0.1,0.1-0.2,0-0.2,0c-0.1-0.1-0.2-0.2-0.4-0.2
			c-0.2,0-0.5,0.3-0.7,0.7v1.7c0,0.6,0,0.6,0.7,0.7V194.7z"/>
		<path d="M108.8,191c-0.5,0.1-0.6,0.1-0.8,0.7c-0.2,0.5-0.5,1.1-1.1,2.7c-0.6,1.4-0.7,2-0.9,2.5c-0.1,0.2-0.2,0.2-0.3,0.2
			c-0.3,0-0.5-0.2-0.5-0.4c0-0.1,0.1-0.2,0.2-0.3c0.3-0.2,0.5-0.4,0.6-0.7c0.2-0.4,0.3-0.7,0.4-0.8c0-0.1,0-0.2,0-0.4
			c-0.4-1-0.8-2.1-1.1-2.8c-0.2-0.5-0.3-0.6-0.8-0.7v-0.2h1.8v0.2c-0.4,0.1-0.5,0.2-0.3,0.5l0.9,2.2c0.3-0.6,0.6-1.6,0.8-2.2
			c0.1-0.3,0-0.4-0.5-0.5v-0.2h1.6V191z"/>
		<path d="M114.8,193.5c-0.1,0.4-0.3,0.9-0.4,1.2H111v-0.2c0.5-0.5,1-1,1.5-1.5c0.6-0.7,1.1-1.4,1.1-2.2c0-0.7-0.4-1.2-1.1-1.2
			c-0.6,0-1,0.5-1.2,0.8l-0.2-0.2l0.5-0.7c0.3-0.3,0.7-0.5,1.2-0.5c0.9,0,1.5,0.6,1.5,1.6c0,0.8-0.3,1.3-1.1,2.2
			c-0.4,0.4-1,1-1.3,1.3c0.1,0,1.6,0,1.7,0c0.5,0,0.6,0,0.9-0.6L114.8,193.5z"/>
		<path d="M117.3,189c1.3,0,1.9,1.5,1.9,2.9c0,1.3-0.5,2.9-1.9,2.9c-1.4,0-1.9-1.5-1.9-2.9C115.4,190.6,115.9,189,117.3,189z
			 M117.3,189.3c-0.8,0-1,1.3-1,2.6c0,1.3,0.3,2.6,1,2.6c0.8,0,1-1.3,1-2.6C118.3,190.6,118.1,189.3,117.3,189.3z"/>
		<path d="M123.5,193.5c-0.1,0.4-0.3,0.9-0.4,1.2h-3.4v-0.2c0.5-0.5,1-1,1.5-1.5c0.6-0.7,1.1-1.4,1.1-2.2c0-0.7-0.4-1.2-1.1-1.2
			c-0.6,0-1,0.5-1.2,0.8l-0.2-0.2l0.5-0.7c0.3-0.3,0.7-0.5,1.2-0.5c0.9,0,1.5,0.6,1.5,1.6c0,0.8-0.3,1.3-1.1,2.2
			c-0.4,0.4-1,1-1.3,1.3c0.1,0,1.6,0,1.7,0c0.5,0,0.6,0,0.9-0.6L123.5,193.5z"/>
		<path d="M127.1,193.1v0.7c0,0.6,0,0.6,0.7,0.7v0.3h-2.1v-0.3c0.7-0.1,0.7-0.1,0.7-0.7v-0.7H124v-0.3c0.9-1.2,1.8-2.5,2.7-3.8h0.4
			v3.6h0.9v0.4H127.1z M126.4,190c-0.6,0.8-1.2,1.7-1.8,2.7h1.8V190z"/>
	</g>
</g>
<g>
	<g>
		<path d="M70.9,202.7l0.4-0.6c0.3-0.3,0.7-0.5,1.2-0.5c0.8,0,1.4,0.5,1.4,1.2c0,0.3-0.1,0.5-0.3,0.7c-0.1,0.2-0.4,0.3-0.6,0.5
			c0.8,0.2,1.3,0.7,1.3,1.4c0,1.5-1.7,2.1-2.4,2.1c-0.4,0-0.8-0.2-0.9-0.3c-0.1-0.1-0.1-0.2-0.1-0.3c0-0.1,0.1-0.3,0.2-0.3
			c0.1-0.1,0.2-0.1,0.2,0c0.2,0.2,0.6,0.5,1.1,0.5c0.6,0,1.1-0.5,1.1-1.4c0-0.8-0.6-1.2-1.2-1.2c-0.2,0-0.5,0.1-0.6,0.1l-0.1-0.3
			c0.8-0.3,1.4-0.6,1.4-1.3c0-0.5-0.3-0.8-0.9-0.8c-0.5,0-0.9,0.4-1.1,0.7L70.9,202.7z"/>
		<path d="M75.5,207.3v-0.3c1-0.1,1.1-0.1,1.1-0.8v-3.5c0-0.5-0.1-0.5-0.5-0.5l-0.4,0v-0.2c0.6-0.1,1.2-0.2,1.6-0.4v4.7
			c0,0.7,0.1,0.7,1.1,0.8v0.3H75.5z"/>
		<path d="M84.1,201.5c1.3,0,2.1,0.3,2.6,0.8c0.4,0.4,0.8,1.1,0.8,1.9c0,1.1-0.4,1.9-1.1,2.4c-0.7,0.5-1.6,0.7-2.7,0.7h-2.1v-0.3
			c0.8-0.1,0.8-0.1,0.8-0.9v-3.6c0-0.8-0.1-0.8-0.8-0.9v-0.3H84.1z M83.2,206.1c0,0.7,0.3,0.9,1,0.9c1.6,0,2.4-1.1,2.4-2.7
			c0-1-0.3-1.7-1-2.2c-0.4-0.3-0.9-0.4-1.5-0.4c-0.4,0-0.6,0.1-0.7,0.1c-0.1,0.1-0.1,0.2-0.1,0.5V206.1z"/>
		<path d="M91.5,206.6c-0.6,0.7-1.2,0.9-1.5,0.9c-1.1,0-1.8-0.9-1.8-1.9c0-0.6,0.2-1.2,0.6-1.6c0.4-0.4,0.9-0.7,1.3-0.7
			c0.8,0,1.4,0.7,1.4,1.4c0,0.2,0,0.3-0.2,0.3c-0.2,0-1.3,0.1-2.4,0.2c0,1.2,0.7,1.7,1.4,1.7c0.4,0,0.7-0.2,1-0.5L91.5,206.6z
			 M90,203.6c-0.4,0-0.8,0.4-0.9,1.1c0.5,0,1,0,1.5,0c0.2,0,0.2,0,0.2-0.2C90.8,204,90.5,203.6,90,203.6z"/>
		<path d="M95.5,206.5c-0.4,0.5-1,0.9-1.5,0.9c-1.1,0-1.8-0.9-1.8-1.9c0-0.7,0.3-1.3,0.9-1.8c0.5-0.4,1-0.5,1.4-0.5
			c0.4,0,0.7,0.1,0.8,0.2c0.1,0.1,0.1,0.2,0.1,0.3c0,0.2-0.2,0.4-0.3,0.4c0,0-0.1,0-0.2-0.1c-0.3-0.3-0.6-0.4-0.9-0.4
			c-0.6,0-1.1,0.5-1.1,1.4c0,1.3,0.8,1.7,1.4,1.7c0.4,0,0.7-0.1,1.1-0.5L95.5,206.5z"/>
		<path d="M99.2,206.6c-0.6,0.7-1.2,0.9-1.5,0.9c-1.1,0-1.8-0.9-1.8-1.9c0-0.6,0.2-1.2,0.6-1.6c0.4-0.4,0.9-0.7,1.3-0.7
			c0.8,0,1.4,0.7,1.4,1.4c0,0.2,0,0.3-0.2,0.3c-0.2,0-1.3,0.1-2.4,0.2c0,1.2,0.7,1.7,1.4,1.7c0.4,0,0.7-0.2,1-0.5L99.2,206.6z
			 M97.7,203.6c-0.4,0-0.8,0.4-0.9,1.1c0.5,0,1,0,1.5,0c0.2,0,0.2,0,0.2-0.2C98.5,204,98.2,203.6,97.7,203.6z"/>
		<path d="M104.8,207.3v-0.3c0.5-0.1,0.6-0.1,0.6-0.7v-1.5c0-0.6-0.2-1-0.8-1c-0.3,0-0.7,0.2-1,0.5c0,0.1,0,0.2,0,0.4v1.7
			c0,0.6,0.1,0.6,0.6,0.7v0.3h-1.9v-0.3c0.6-0.1,0.6-0.1,0.6-0.7v-1.5c0-0.7-0.2-1-0.8-1c-0.4,0-0.7,0.2-1,0.5v2.1
			c0,0.6,0.1,0.6,0.6,0.7v0.3h-1.9v-0.3c0.6-0.1,0.6-0.1,0.6-0.7v-1.9c0-0.6,0-0.6-0.5-0.7v-0.2c0.4-0.1,0.8-0.2,1.3-0.4
			c0,0.2,0,0.5,0,0.7c0.2-0.1,0.4-0.3,0.7-0.5c0.2-0.1,0.4-0.2,0.7-0.2c0.4,0,0.8,0.3,1,0.7c0.3-0.2,0.5-0.4,0.7-0.5
			c0.2-0.1,0.5-0.2,0.7-0.2c0.7,0,1.1,0.5,1.1,1.4v1.7c0,0.6,0.1,0.6,0.6,0.7v0.3H104.8z"/>
		<path d="M109.1,203.4c0.2-0.1,0.3-0.1,0.4-0.1c1,0,1.8,0.8,1.8,1.9c0,1.2-1,2.3-2.2,2.3c-0.4,0-0.9-0.1-1.4-0.3c0-0.2,0-0.5,0-0.7
			v-4.3c0-0.6,0-0.6-0.6-0.7v-0.2c0.4-0.1,1-0.2,1.3-0.3c0,0.4,0,0.7,0,1.1v1.7L109.1,203.4z M108.3,206.3c0,0.1,0,0.2,0,0.3
			c0.1,0.2,0.5,0.5,0.9,0.5c0.8,0,1.2-0.7,1.2-1.7c0-1-0.6-1.6-1.4-1.6c-0.3,0-0.6,0.1-0.7,0.2V206.3z"/>
		<path d="M115.2,206.6c-0.6,0.7-1.2,0.9-1.5,0.9c-1.1,0-1.8-0.9-1.8-1.9c0-0.6,0.2-1.2,0.6-1.6c0.4-0.4,0.9-0.7,1.3-0.7
			c0.8,0,1.4,0.7,1.4,1.4c0,0.2,0,0.3-0.2,0.3c-0.2,0-1.3,0.1-2.4,0.2c0,1.2,0.7,1.7,1.4,1.7c0.4,0,0.7-0.2,1-0.5L115.2,206.6z
			 M113.6,203.6c-0.4,0-0.8,0.4-0.9,1.1c0.5,0,1,0,1.5,0c0.2,0,0.2,0,0.2-0.2C114.4,204,114.1,203.6,113.6,203.6z"/>
		<path d="M117.8,207.3h-2.1v-0.3c0.6-0.1,0.6-0.1,0.6-0.7v-1.9c0-0.6,0-0.6-0.6-0.7v-0.2c0.4-0.1,0.8-0.2,1.3-0.4c0,0.3,0,0.7,0,1
			c0.3-0.5,0.7-1,1.1-1c0.3,0,0.5,0.2,0.5,0.4c0,0.2-0.1,0.4-0.3,0.5c-0.1,0.1-0.2,0-0.2,0c-0.1-0.1-0.2-0.2-0.4-0.2
			c-0.2,0-0.5,0.3-0.7,0.7v1.7c0,0.6,0,0.6,0.7,0.7V207.3z"/>
		<path d="M125,206.1c-0.1,0.4-0.3,0.9-0.4,1.2h-3.4v-0.2c0.5-0.5,1-1,1.5-1.5c0.6-0.7,1.1-1.4,1.1-2.2c0-0.7-0.4-1.2-1.1-1.2
			c-0.6,0-1,0.5-1.2,0.8l-0.2-0.2l0.5-0.7c0.3-0.3,0.7-0.5,1.2-0.5c0.9,0,1.5,0.6,1.5,1.6c0,0.8-0.3,1.3-1.1,2.2
			c-0.4,0.4-1,1-1.3,1.3c0.1,0,1.6,0,1.7,0c0.5,0,0.6,0,0.9-0.6L125,206.1z"/>
		<path d="M127.5,201.6c1.4,0,1.9,1.5,1.9,2.9c0,1.3-0.5,2.9-1.9,2.9c-1.4,0-1.9-1.5-1.9-2.9C125.6,203.2,126.1,201.6,127.5,201.6z
			 M127.5,201.9c-0.8,0-1,1.3-1,2.6c0,1.3,0.3,2.6,1,2.6c0.8,0,1-1.3,1-2.6C128.5,203.2,128.3,201.9,127.5,201.9z"/>
		<path d="M133.7,206.1c-0.1,0.4-0.3,0.9-0.4,1.2h-3.4v-0.2c0.5-0.5,1-1,1.5-1.5c0.6-0.7,1.1-1.4,1.1-2.2c0-0.7-0.4-1.2-1.1-1.2
			c-0.6,0-1,0.5-1.2,0.8l-0.2-0.2l0.5-0.7c0.3-0.3,0.7-0.5,1.2-0.5c0.9,0,1.5,0.6,1.5,1.6c0,0.8-0.3,1.3-1.1,2.2
			c-0.4,0.4-1,1-1.3,1.3c0.1,0,1.6,0,1.7,0c0.5,0,0.6,0,0.9-0.6L133.7,206.1z"/>
		<path d="M137.3,205.7v0.7c0,0.6,0,0.6,0.7,0.7v0.3h-2.1v-0.3c0.7-0.1,0.7-0.1,0.7-0.7v-0.7h-2.4v-0.3c0.9-1.2,1.8-2.5,2.7-3.8h0.4
			v3.6h0.9v0.4H137.3z M136.6,202.6c-0.6,0.8-1.2,1.7-1.8,2.7h1.8V202.6z"/>
	</g>
</g>
</svg>
