<?xml version="1.0" encoding="utf-8"?>
<!-- Generator: Adobe Illustrator 27.1.1, SVG Export Plug-In . SVG Version: 6.00 Build 0)  -->
<svg version="1.1" id="Layer_1" xmlns="http://www.w3.org/2000/svg" xmlns:xlink="http://www.w3.org/1999/xlink" x="0px" y="0px"
	 viewBox="0 0 153.1 244.1" style="enable-background:new 0 0 153.1 244.1;" xml:space="preserve">
<style type="text/css">
	.st0{fill:#0C8140;}
	.st1{fill:#FFFFFF;}
	.st2{fill:#F7EC13;}
	.st3{fill:#ED2024;}
	.st4{fill:#9C9B9D;}
	.st5{fill:#412410;}
	.st6{font-family:'BernardMT-Condensed';}
	.st7{font-size:11.7993px;}
	.st8{fill:#231F20;}
	.st9{font-family:'MinionPro-Regular';}
	.st10{font-size:7.9523px;}
	.st11{fill:#ED2224;}
	.st12{font-size:8.0617px;}
	.st13{fill:#010101;}
	.st14{font-size:6.4513px;}
</style>
<rect y="0.7" class="st0" width="153.1" height="242.6"/>
<path class="st1" d="M6,5h140.8c1.2,0,2.1,0.9,2.1,2.1v230.2c0,1.2-0.9,2.1-2.1,2.1H6c-1.2,0-2.1-0.9-2.1-2.1V7.2C3.9,6,4.8,5,6,5z"
	/>
<rect x="3.9" y="234.3" class="st2" width="145.1" height="1.4"/>
<rect x="3.9" y="236.5" width="145.1" height="1"/>
<g>
	<path class="st2" d="M6.7,105.2c8.2-1.7,14.8-4.2,19.5-6.3c4.8-2.1,8.5-4.3,10.6-5.5c5.8-3.4,9.9-6.6,14.2-9.8
		c1.7-1.3,2.2-1.7,10.8-8.7c5.4-4.4,9.6-7.9,10-8.2c20.9-17,39.8-22.9,39.9-22.9l0,0c1.5-0.5,3.5-1,5.9-1.6
		c5.1-1.2,11.2-1.7,11.2-1.7c7.4-0.6,14.2-0.3,17.8,0v23.1c-2.9-0.4-6.5-0.8-10.5-1c-1.4-0.1-6.8-0.3-13,0.1
		c-7,0.4-15.2,0.9-24.9,4.1c-7.5,2.5-14.6,6.9-28.9,15.7c-10,6.2-10.9,7.4-19.4,12.2c-8.5,4.9-13.6,7.9-20.8,10.3
		c-5.4,2-13,4.1-22.5,4.9C6.6,108.5,6.7,106.9,6.7,105.2L6.7,105.2z"/>
	<path class="st0" d="M6.6,110.2c-0.1,2.1-0.1,4.3-0.2,6.4c4-0.1,8.5-0.5,13.4-1.3c4.7-0.8,8-1.7,12.1-2.8
		c5.9-1.6,14.2-3.9,24.4-8.3c4.7-2,3.5-1.8,12.7-6.1c7.7-3.6,12-5.6,17.2-7.6c5.6-2.1,14.2-5.4,25.8-7.1c6.8-1,12.2-1.8,19.4-1
		c1.5,0.2,7.1,2.1,14.9,2.7c0.1,0,0.2,0,0.3,0V63.7c-3.9-0.6-9.1-1.3-15.4-1.5c-5.5-0.2-13.8-0.4-23.2,1.7c-10,2.2-16.8,6-27,11.6
		c-3.5,2-9.7,5.9-22.2,13.8c-6.6,4.2-9.7,6.3-15,9c-5.6,3-9.8,5.3-15.9,7.4c-1.8,0.6-8.7,2.9-18,4.1C8.5,110,7.4,110.1,6.6,110.2
		L6.6,110.2z"/>
	<path class="st3" d="M146.6,85v16.9c-1.7-0.5-3.9-1.2-6.7-1.8c-3.9-0.9-12.2-2.6-23-2.5c-3.5,0-11.8,0.3-22.3,2.9
		c-9.2,2.3-10.1,3.9-28.3,10.1c-6.5,2.3-10.1,3.5-15.5,5c-11.6,3.2-20.7,4.6-25,5.1c-6.9,0.9-12.3,1.1-14.1,1.2
		C9.5,122,7.6,122,6.2,122c0.1-1.9,0.1-3.7,0.1-5.6c5.6-0.2,10.3-0.8,13.8-1.4c4.7-0.8,8.3-1.8,11.4-2.6c1.4-0.4,5.6-1.5,11.1-3.4
		c6.5-2.2,11.3-4.3,16.7-6.7c2.3-1,4.5-2,8.8-3.9c6.6-3,8.5-3.9,10.9-5c4.8-2.1,13.4-5.9,24.4-8.7c4.1-1.1,8.1-2.1,13.7-2.6
		c8.4-0.8,14.8-0.1,17.7,0.3c5.1,0.7,8.6,1.7,9.5,1.9C145.4,84.6,146.1,84.8,146.6,85L146.6,85z"/>
	<path class="st4" d="M51.2,44.5h56.4c2.4,0,4.4,2,4.4,4.4v62.9c0,2.4-2,4.4-4.4,4.4H51.2c-2.4,0-4.4-2-4.4-4.4V48.8
		C46.8,46.5,48.8,44.5,51.2,44.5z"/>
</g>
<image style="overflow:visible;enable-background:new    ;" width="819" height="746" xlink:href="46490CE7.png"  transform="matrix(4.000000e-02 0 0 3.976168e-02 9.21 27.4271)">
</image>
<text transform="matrix(0.9456 0 0 1 10.8701 21.6418)" class="st5 st6 st7">NURE MADINA SHISHU ACADEMY</text>
<text transform="matrix(0.9456 0 0 1 52.6997 35.5285)" class="st5 st6 st7">KURIGRAM</text>
<text transform="matrix(1.006 0 0 1 17.04 146.8918)" class="st8 st9 st10">Class:</text>
<text transform="matrix(1.006 0 0 1 67.0601 146.8918)" class="st8 st9 st10">Section:</text>
<text transform="matrix(1.006 0 0 1 111.9805 146.9807)" class="st8 st9 st10">Roll:</text>
<text transform="matrix(1.167 0 0 1 16.1606 161.4435)" class="st11 st9 st12">ID Number   </text>
<text transform="matrix(1.167 0 0 1 16.2607 172.09)" class="st13 st9 st14">Date of Birth      </text>
<text transform="matrix(1.167 0 0 1 16.2607 182.7062)" class="st13 st9 st14">Father&apos;s Name    </text>
<text transform="matrix(1.167 0 0 1 16.3809 193.3723)" class="st13 st9 st14">Mother&apos;s Name   </text>
<text transform="matrix(1.167 0 0 1 16.2607 204.0383)" class="st13 st9 st14">Father&apos;s Mobile</text>
<text transform="matrix(1.167 0 0 1 64.6606 160.4894)" class="st11 st9 st14">:</text>
<text transform="matrix(1.167 0 0 1 64.6709 171.4943)" class="st13 st9 st14">:</text>
<text transform="matrix(1.167 0 0 1 64.6406 181.9904)" class="st13 st9 st14">:</text>
<text transform="matrix(1.167 0 0 1 64.6108 192.9846)" class="st13 st9 st14">:</text>
<text transform="matrix(1.167 0 0 1 64.6406 203.3928)" class="st13 st9 st14">:</text>
</svg>
